<svg width="333" height="47" viewBox="0 0 333 47" fill="none" xmlns="http://www.w3.org/2000/svg">
<path d="M0 46.3745V0.625476H9.78639V19.5014H29.653V0.625476H39.4168V46.3745H29.653V27.4762H9.78639V46.3745H0Z" fill="#22211E"/>
<path d="M89.3847 23.5C89.3847 28.4889 88.4279 32.7332 86.5144 36.2329C84.6159 39.7326 82.0242 42.4057 78.7395 44.2524C75.4698 46.0841 71.7934 47 67.71 47C63.5966 47 59.905 46.0767 56.6354 44.23C53.3657 42.3834 50.7816 39.7102 48.8831 36.2106C46.9846 32.7109 46.0353 28.474 46.0353 23.5C46.0353 18.5111 46.9846 14.2668 48.8831 10.7671C50.7816 7.26743 53.3657 4.60171 56.6354 2.76996C59.905 0.923321 63.5966 0 67.71 0C71.7934 0 75.4698 0.923321 78.7395 2.76996C82.0242 4.60171 84.6159 7.26743 86.5144 10.7671C88.4279 14.2668 89.3847 18.5111 89.3847 23.5ZM79.4627 23.5C79.4627 20.2684 78.9731 17.5431 77.9937 15.3241C77.0293 13.1052 75.6657 11.4224 73.9028 10.2757C72.1399 9.12896 70.0756 8.55561 67.71 8.55561C65.3444 8.55561 63.2802 9.12896 61.5173 10.2757C59.7544 11.4224 58.3832 13.1052 57.4038 15.3241C56.4395 17.5431 55.9573 20.2684 55.9573 23.5C55.9573 26.7316 56.4395 29.4569 57.4038 31.6759C58.3832 33.8948 59.7544 35.5776 61.5173 36.7243C63.2802 37.871 65.3444 38.4444 67.71 38.4444C70.0756 38.4444 72.1399 37.871 73.9028 36.7243C75.6657 35.5776 77.0293 33.8948 77.9937 31.6759C78.9731 29.4569 79.4627 26.7316 79.4627 23.5Z" fill="#22211E"/>
<path d="M95.9977 0.625476H108.067L120.814 31.3631H121.356L134.104 0.625476H146.173V46.3745H136.68V16.5974H136.296L124.317 46.1511H117.853L105.874 16.4857H105.49V46.3745H95.9977V0.625476Z" fill="#22211E"/>
<path d="M153.599 46.3745V0.625476H184.789V8.60029H163.386V19.5014H183.184V27.4762H163.386V38.3997H184.88V46.3745H153.599Z" fill="#22211E"/>
<path d="M191.933 46.3745V0.625476H201.72V38.3997H221.564V46.3745H191.933Z" fill="#22211E"/>
<path d="M237.194 0.625476V46.3745H227.408V0.625476H237.194Z" fill="#22211E"/>
<path d="M275.302 15.4135C274.986 14.3264 274.541 13.3658 273.969 12.5318C273.396 11.683 272.696 10.9682 271.867 10.3874C271.053 9.79167 270.119 9.33745 269.064 9.02472C268.025 8.71198 266.872 8.55561 265.606 8.55561C263.241 8.55561 261.161 9.13641 259.368 10.298C257.59 11.4596 256.204 13.1499 255.21 15.3688C254.215 17.5729 253.718 20.2684 253.718 23.4553C253.718 26.6423 254.208 29.3527 255.187 31.5865C256.167 33.8203 257.553 35.5255 259.346 36.702C261.139 37.8636 263.256 38.4444 265.697 38.4444C267.912 38.4444 269.803 38.0572 271.37 37.2828C272.952 36.4935 274.157 35.384 274.986 33.9544C275.83 32.5247 276.252 30.8344 276.252 28.8836L278.241 29.174H266.307V21.8916H285.676V27.6549C285.676 31.6759 284.818 35.1309 283.1 38.02C281.382 40.8942 279.017 43.1131 276.003 44.6768C272.989 46.2256 269.539 47 265.652 47C261.312 47 257.5 46.0543 254.215 44.163C250.931 42.2568 248.369 39.5539 246.531 36.0542C244.708 32.5396 243.796 28.3698 243.796 23.5447C243.796 19.8365 244.338 16.5304 245.423 13.6264C246.523 10.7075 248.06 8.23543 250.034 6.21008C252.008 4.18473 254.306 2.64338 256.927 1.58603C259.549 0.528675 262.389 0 265.448 0C268.07 0 270.511 0.379753 272.771 1.13926C275.031 1.88387 277.035 2.94122 278.783 4.31131C280.546 5.6814 281.985 7.3121 283.1 9.20342C284.215 11.0798 284.931 13.1499 285.247 15.4135H275.302Z" fill="#22211E"/>
<path d="M298.94 46.3745H288.453L304.432 0.625476H317.043L333 46.3745H322.513L310.918 11.0798H310.557L298.94 46.3745ZM298.284 28.3921H323.055V35.9425H298.284V28.3921Z" fill="#22211E"/>
</svg>
