<svg width="60" height="55" viewBox="0 0 60 55" fill="none" xmlns="http://www.w3.org/2000/svg">
<path d="M22.3121 31.0521V55H0V36.0938C0 25.8576 1.23314 18.4479 3.69942 13.8646C6.93642 7.75347 12.0617 3.13194 19.0751 0L24.1618 8.02083C19.9229 9.77778 16.8015 12.4132 14.7977 15.9271C12.7938 19.3646 11.6763 24.4063 11.4451 31.0521H22.3121ZM58.1503 31.0521V55H35.8382V36.0938C35.8382 25.8576 37.0713 18.4479 39.5376 13.8646C42.7746 7.75347 47.8998 3.13194 54.9133 0L60 8.02083C55.7611 9.77778 52.6397 12.4132 50.6358 15.9271C48.632 19.3646 47.5145 24.4063 47.2832 31.0521H58.1503Z" fill="#2E2F36" fill-opacity="0.2"/>
</svg>
