<svg width="22" height="22" viewBox="0 0 22 22" fill="none" xmlns="http://www.w3.org/2000/svg">
<g clip-path="url(#clip0_562_4296)">
<path d="M10.9915 1.83301C5.93148 1.83301 1.83398 5.93967 1.83398 10.9997C1.83398 16.0597 5.93148 20.1663 10.9915 20.1663C16.0607 20.1663 20.1673 16.0597 20.1673 10.9997C20.1673 5.93967 16.0607 1.83301 10.9915 1.83301ZM11.0007 18.333C6.94898 18.333 3.66732 15.0513 3.66732 10.9997C3.66732 6.94801 6.94898 3.66634 11.0007 3.66634C15.0523 3.66634 18.334 6.94801 18.334 10.9997C18.334 15.0513 15.0523 18.333 11.0007 18.333Z" fill="#858585"/>
<path d="M11.459 6.41699H10.084V11.917L14.8965 14.8045L15.584 13.677L11.459 11.2295V6.41699Z" fill="#858585"/>
</g>
<defs>
<clipPath id="clip0_562_4296">
<rect width="22" height="22" fill="white"/>
</clipPath>
</defs>
</svg>
