<svg width="20" height="20" viewBox="0 0 20 20" fill="none" xmlns="http://www.w3.org/2000/svg">
<rect width="20" height="20" rx="5" fill="#B4A06B"/>
<path d="M8.97599 14.199C8.71499 14.199 8.46779 14.0772 8.30939 13.8672L6.16559 11.0346C6.09931 10.9471 6.05092 10.8475 6.02319 10.7413C5.99546 10.6351 5.98893 10.5245 6.00398 10.4157C6.01902 10.307 6.05535 10.2023 6.11088 10.1077C6.1664 10.013 6.24005 9.93021 6.32759 9.86402C6.41511 9.79755 6.51488 9.74901 6.62119 9.72118C6.7275 9.69334 6.83826 9.68676 6.94712 9.70181C7.05598 9.71686 7.16079 9.75325 7.25556 9.80888C7.35033 9.86451 7.43319 9.9383 7.49939 10.026L8.90999 11.8884L12.4566 6.19322C12.5742 6.00518 12.7616 5.87147 12.9777 5.82142C13.1938 5.77136 13.4209 5.80905 13.6092 5.92622C14.001 6.16982 14.1216 6.68582 13.8768 7.07822L9.68639 13.8042C9.61486 13.9196 9.51626 14.0157 9.39916 14.0843C9.28205 14.1529 9.14998 14.1918 9.01439 14.1978C9.00119 14.199 8.98919 14.199 8.97599 14.199Z" fill="white"/>
</svg>
