<svg width="40" height="40" viewBox="0 0 40 40" fill="none" xmlns="http://www.w3.org/2000/svg">
<path fill-rule="evenodd" clip-rule="evenodd" d="M0 0.846692C0 0.379077 0.377755 0 0.843739 0H39.1563C39.6222 0 40 0.379077 40 0.846692V29.4649C40 29.9325 39.6222 30.3116 39.1563 30.3116H25.5214V39.1533C25.5214 39.6209 25.1437 40 24.6777 40C24.6397 40 24.6024 39.9975 24.5657 39.9926C24.5477 39.9938 24.5295 39.9944 24.5112 39.9944H0.843739C0.377755 39.9944 0 39.6153 0 39.1477V35.9596C0 35.492 0.377755 35.1129 0.843739 35.1129C1.30972 35.1129 1.68748 35.492 1.68748 35.9596V38.301H23.834V29.4321C23.834 28.9645 24.2117 28.5855 24.6777 28.5855C24.7692 28.5855 24.8572 28.6001 24.9397 28.6271C24.9798 28.6212 25.0208 28.6182 25.0624 28.6182H38.3125V12.2827H19.5995V18.7932C19.5995 19.2608 19.2218 19.6399 18.7558 19.6399C18.2898 19.6399 17.912 19.2608 17.912 18.7932V16.036C17.7983 16.0933 17.6699 16.1255 17.534 16.1255H12.3118C11.8459 16.1255 11.4681 15.7465 11.4681 15.2788C11.4681 14.8112 11.8459 14.4322 12.3118 14.4322H17.534C17.6699 14.4322 17.7983 14.4644 17.912 14.5217V11.436C17.912 10.9684 18.2898 10.5893 18.7558 10.5893H38.3125V1.69338H19.5995V5.77444C19.5995 6.24206 19.2218 6.62113 18.7558 6.62113C18.2898 6.62113 17.912 6.24206 17.912 5.77444V1.69338H1.68748V14.4322H6.06592C6.53191 14.4322 6.90966 14.8112 6.90966 15.2788C6.90966 15.7465 6.53191 16.1255 6.06592 16.1255H1.68748V28.6317H17.912V24.974C17.912 24.5064 18.2898 24.1273 18.7558 24.1273C19.2218 24.1273 19.5995 24.5064 19.5995 24.974V29.4683C19.5995 29.9359 19.2218 30.315 18.7558 30.315C18.7205 30.315 18.6857 30.3128 18.6515 30.3086C18.5976 30.3194 18.5418 30.3251 18.4846 30.3251H0.843739C0.377755 30.3251 0 29.9461 0 29.4784C0 29.4762 8.79754e-06 29.4739 2.64463e-05 29.4717C8.79754e-06 29.4694 0 29.4672 0 29.4649V0.846692Z" fill="#F3F3F3" fill-opacity="0.5"/>
</svg>
