<svg width="40" height="40" viewBox="0 0 40 40" fill="none" xmlns="http://www.w3.org/2000/svg">
<path fill-rule="evenodd" clip-rule="evenodd" d="M20 0.0182916C20.2453 -0.0351548 20.5101 0.0285266 20.709 0.20929L29.5443 8.23903L29.629 1.18994C29.6344 0.739074 29.9951 0.376471 30.4381 0.376471H35.7353C35.9504 0.376471 36.1566 0.463633 36.3085 0.618701C36.4603 0.773769 36.5452 0.98398 36.5445 1.20289L36.4984 14.5596L39.7298 17.4964C39.891 17.6429 39.988 17.849 39.9989 18.0688C40.0026 18.1414 39.9967 18.2135 39.982 18.2834C40.0341 18.5313 39.9735 18.8002 39.7952 19.004L36.9466 22.2605C36.8077 22.4193 36.6218 22.5106 36.429 22.5317L36.5537 36.8539C36.5538 36.862 36.5537 36.8701 36.5536 36.8782C36.5368 37.7011 36.2081 38.4854 35.6361 39.0672C35.0641 39.6491 34.2931 39.9832 33.4845 39.9998C33.4791 39.9999 33.4736 40 33.4682 40H6.5318C6.5287 40 6.52559 40 6.52249 39.9999C5.7093 39.9904 4.93211 39.6572 4.35735 39.0718C3.78259 38.4863 3.45597 37.695 3.44745 36.8675C3.4474 36.8629 3.44739 36.8584 3.44742 36.8538L3.53255 22.5279C3.35312 22.4997 3.18196 22.4101 3.052 22.2614L0.204598 19.0038C0.0264586 18.8 -0.0341023 18.5312 0.0180244 18.2834C0.00328614 18.2135 -0.00257526 18.1414 0.00105113 18.0688C0.0120237 17.8491 0.108947 17.6429 0.270206 17.4964L19.291 0.209299C19.4899 0.0285289 19.7547 -0.0351558 20 0.0182916ZM1.78879 18.338L3.72986 20.5588L3.81971 20.4794C4.05972 20.2673 4.3995 20.2178 4.68831 20.3529C4.97712 20.488 5.16145 20.7827 5.15953 21.1062L5.06593 36.8563C5.07155 37.2511 5.22805 37.6282 5.50238 37.9077C5.77715 38.1876 6.14836 38.3473 6.53699 38.3529H33.4592C33.8474 38.3431 34.2171 38.1818 34.4919 37.9023C34.7659 37.6236 34.9244 37.2488 34.9352 36.855L34.7977 21.0661C34.7949 20.7417 34.9795 20.4459 35.2691 20.3105C35.5588 20.1751 35.8996 20.2253 36.1395 20.4388L36.271 20.5558L38.2112 18.3377C38.211 18.3332 38.2108 18.3286 38.2107 18.324L35.1488 15.5413C34.9762 15.3844 34.8778 15.1597 34.8786 14.9242L34.9232 2.02353H31.2376L31.141 10.0689C31.1371 10.3917 30.9482 10.6824 30.6579 10.8125C30.3676 10.9426 30.0294 10.8881 29.7927 10.6731L20.0301 1.80061C20.0101 1.80137 19.99 1.80137 19.9699 1.80061L1.78929 18.324C1.78916 18.3287 1.789 18.3334 1.78879 18.338ZM24.2869 16.3465C24.6844 16.5546 24.8408 17.0511 24.6364 17.4555L16.8029 32.952C16.5984 33.3565 16.1105 33.5157 15.7131 33.3076C15.3156 33.0996 15.1592 32.603 15.3636 32.1986L23.1971 16.7021C23.4016 16.2977 23.8895 16.1385 24.2869 16.3465ZM14.8683 16.7353L14.8705 16.7353H15.6879L15.69 16.7353C16.3576 16.7371 16.9974 17.0077 17.4696 17.4879C17.9418 17.9682 18.2082 18.619 18.2104 19.2984L18.2104 19.3012V21.7941L18.2104 21.7963C18.2086 22.476 17.9425 23.1273 17.4702 23.6079C16.998 24.0885 16.3579 24.3593 15.69 24.3612L15.6879 24.3612H14.8705L14.8678 24.3612C14.2002 24.3589 13.5606 24.0879 13.0887 23.6073C12.6168 23.1268 12.3509 22.4757 12.3491 21.7963L12.3491 21.7941V19.3012L12.3491 19.299C12.3509 18.6196 12.6169 17.9686 13.089 17.4882C13.561 17.0078 14.2008 16.7371 14.8683 16.7353ZM15.6868 18.3824H14.8716C14.6322 18.3833 14.4028 18.4805 14.2334 18.6528C14.064 18.8252 13.9685 19.0588 13.9676 19.3025V21.7928C13.9685 22.0367 14.0641 22.2705 14.2336 22.4431C14.4029 22.6155 14.6324 22.7129 14.8719 22.7141H15.6868C15.9265 22.7132 16.1562 22.6158 16.3258 22.4433C16.4953 22.2707 16.591 22.037 16.5919 21.793V19.3026C16.5908 19.0588 16.495 18.8253 16.3256 18.653C16.156 18.4806 15.9264 18.3833 15.6868 18.3824ZM24.31 25.2941L24.3121 25.2941H25.1283L25.1305 25.2941C25.7981 25.2959 26.4379 25.5665 26.9101 26.0468C27.3823 26.527 27.6486 27.1779 27.6509 27.8572L27.6509 27.86V30.3518L27.6509 30.354C27.6491 31.0336 27.383 31.685 26.9107 32.1656C26.4384 32.6462 25.7984 32.917 25.1305 32.9188L25.1283 32.9188H24.3121L24.31 32.9188C23.6421 32.917 23.0021 32.6462 22.5298 32.1656C22.0575 31.685 21.7914 31.0336 21.7896 30.354L21.7896 30.3518V27.8541L21.7896 27.8486C21.7941 27.1707 22.0614 26.522 22.5334 26.0437C23.0054 25.5653 23.6438 25.2959 24.31 25.2941ZM25.1272 26.9412H24.3132C24.0741 26.9421 23.845 27.0389 23.6755 27.2107C23.5063 27.3822 23.4103 27.6145 23.4081 27.8574V30.3506C23.409 30.5946 23.5047 30.8284 23.6742 31.0009C23.8438 31.1735 24.0735 31.2708 24.3132 31.2718C24.3136 31.2718 24.314 31.2718 24.3143 31.2718H25.1261C25.1265 31.2718 25.1269 31.2718 25.1272 31.2718C25.367 31.2708 25.5967 31.1735 25.7662 31.0009C25.9358 30.8284 26.0314 30.5946 26.0324 30.3506V27.8614C26.0312 27.6176 25.9355 27.3842 25.766 27.2118C25.5965 27.0394 25.3669 26.9421 25.1272 26.9412Z" fill="#F3F3F3" fill-opacity="0.5"/>
</svg>
