<svg width="20" height="20" viewBox="0 0 20 20" fill="none" xmlns="http://www.w3.org/2000/svg">
<g clip-path="url(#clip0_560_3336)">
<path d="M20 10C20 4.47715 15.5228 0 10 0C4.47715 0 0 4.47715 0 10C0 15.5228 4.47715 20 10 20C15.5228 20 20 15.5228 20 10Z" fill="#B4A06B"/>
<path d="M14.479 5.50447C13.407 4.40084 11.925 3.80176 10.4115 3.80176C7.19525 3.80176 4.60967 6.41888 4.64121 9.60355C4.64121 10.6125 4.925 11.59 5.39796 12.4729L4.57812 15.4684L7.63671 14.6801C8.48804 15.1531 9.434 15.3738 10.3799 15.3738C13.5646 15.3738 16.1502 12.7567 16.1502 9.57201C16.1502 8.02697 15.5511 6.57655 14.479 5.50447ZM10.4115 14.3963C9.56013 14.3963 8.70875 14.1756 7.98354 13.7342L7.79433 13.6396L5.96554 14.1125L6.4385 12.3153L6.31237 12.1261C4.925 9.88734 5.58713 6.92338 7.85742 5.53601C10.1277 4.1486 13.0601 4.81076 14.4475 7.08105C15.8349 9.3513 15.1728 12.2838 12.9025 13.6711C12.1773 14.1441 11.2943 14.3963 10.4115 14.3963ZM13.1862 10.8963L12.8394 10.7387C12.8394 10.7387 12.3349 10.518 12.0196 10.3603C11.988 10.3603 11.9565 10.3288 11.925 10.3288C11.8304 10.3288 11.7673 10.3603 11.7042 10.3918C11.7042 10.3918 11.6727 10.4234 11.2313 10.9279C11.1997 10.991 11.1367 11.0225 11.0736 11.0225H11.0421C11.0106 11.0225 10.9475 10.991 10.916 10.9594L10.7583 10.8963C10.4115 10.7387 10.0962 10.5495 9.84392 10.2973C9.78083 10.2342 9.68625 10.1711 9.62317 10.108C9.40246 9.88734 9.18175 9.63509 9.02408 9.3513L8.99254 9.28826C8.961 9.25672 8.961 9.22517 8.9295 9.16213C8.9295 9.09905 8.9295 9.03601 8.961 9.00447C8.961 9.00447 9.08713 8.8468 9.18175 8.75222C9.24479 8.68913 9.27633 8.59455 9.33942 8.53151C9.40246 8.43688 9.434 8.31076 9.40246 8.21617C9.37092 8.05851 8.99254 7.20717 8.89796 7.01797C8.83488 6.92338 8.77183 6.89184 8.67725 6.8603H8.58263C8.51958 6.8603 8.425 6.8603 8.33038 6.8603C8.26733 6.8603 8.20425 6.89184 8.14121 6.89184L8.10967 6.92338C8.04658 6.95492 7.98354 7.01797 7.92046 7.04951C7.85742 7.11255 7.82588 7.17563 7.76283 7.23867C7.54208 7.52247 7.41596 7.86934 7.41596 8.21617C7.41596 8.46842 7.47904 8.72067 7.57363 8.94138L7.60517 9.03601C7.88896 9.63509 8.26733 10.1711 8.77183 10.6441L8.89796 10.7702C8.99254 10.8648 9.08713 10.9279 9.15021 11.0225C9.81238 11.59 10.5691 12 11.4205 12.2207C11.5151 12.2522 11.6412 12.2522 11.7358 12.2838C11.8304 12.2838 11.9565 12.2838 12.0511 12.2838C12.2087 12.2838 12.398 12.2207 12.5241 12.1576C12.6187 12.0945 12.6817 12.0945 12.7448 12.0315L12.8079 11.9684C12.8709 11.9053 12.934 11.8738 12.997 11.8108C13.0601 11.7477 13.1232 11.6846 13.1547 11.6216C13.2178 11.4955 13.2493 11.3378 13.2808 11.1801C13.2808 11.1171 13.2808 11.0225 13.2808 10.9594C13.2808 10.9594 13.2493 10.9279 13.1862 10.8963Z" fill="white"/>
</g>
<defs>
<clipPath id="clip0_560_3336">
<rect width="20" height="20" fill="white"/>
</clipPath>
</defs>
</svg>
