<svg width="20" height="20" viewBox="0 0 20 20" fill="none" xmlns="http://www.w3.org/2000/svg">
<g clip-path="url(#clip0_560_3339)">
<path d="M20 10C20 4.47715 15.5228 0 10 0C4.47715 0 0 4.47715 0 10C0 15.5228 4.47715 20 10 20C15.5228 20 20 15.5228 20 10Z" fill="#B4A06B"/>
<g clip-path="url(#clip1_560_3339)">
<path d="M14 6H6C5.45 6 5.005 6.45 5.005 7L5 13C5 13.55 5.45 14 6 14H14C14.55 14 15 13.55 15 13V7C15 6.45 14.55 6 14 6ZM14 8L10 10.5L6 8V7L10 9.5L14 7V8Z" fill="white"/>
</g>
</g>
<defs>
<clipPath id="clip0_560_3339">
<rect width="20" height="20" fill="white"/>
</clipPath>
<clipPath id="clip1_560_3339">
<rect width="96" height="96" fill="white"/>
</clipPath>
</defs>
</svg>
