<svg width="40" height="40" viewBox="0 0 40 40" fill="none" xmlns="http://www.w3.org/2000/svg">
<g opacity="0.5" clip-path="url(#clip0_533_4868)">
<path fill-rule="evenodd" clip-rule="evenodd" d="M3.26781 0.814531C3.26781 0.364678 3.63248 0 4.08232 0H27.4848C27.9346 0 28.2993 0.364678 28.2993 0.814531V6.40222H35.9177C36.3675 6.40222 36.7322 6.76689 36.7322 7.21675V38.0788C36.7322 38.1818 36.7131 38.2803 36.6782 38.3709H39.1855C39.6353 38.3709 40 38.7356 40 39.1855C40 39.6353 39.6353 40 39.1855 40H0.814509C0.364668 40 0 39.6353 0 39.1855C0 38.7356 0.364668 38.3709 0.814509 38.3709H3.26781V0.814531ZM4.89683 38.3709H12.8117V35.2182C12.8117 34.7683 13.1764 34.4036 13.6262 34.4036H17.9398C18.3897 34.4036 18.7543 34.7683 18.7543 35.2182V38.3709H26.6703V1.62906H4.89683V38.3709ZM28.2993 38.3709H35.1571C35.1223 38.2803 35.1032 38.1818 35.1032 38.0788V8.03128H28.2993V38.3709ZM17.1253 38.3709V36.0327H14.4407V38.3709H17.1253ZM6.76911 4.92954C6.76911 4.47969 7.13378 4.11501 7.58362 4.11501H23.9824C24.4322 4.11501 24.7969 4.47969 24.7969 4.92954C24.7969 5.3794 24.4322 5.74407 23.9824 5.74407H7.58362C7.13378 5.74407 6.76911 5.3794 6.76911 4.92954ZM6.76911 8.80997C6.76911 8.36012 7.13378 7.99544 7.58362 7.99544H23.9824C24.4322 7.99544 24.7969 8.36012 24.7969 8.80997C24.7969 9.25982 24.4322 9.6245 23.9824 9.6245H7.58362C7.13378 9.6245 6.76911 9.25982 6.76911 8.80997ZM31.5563 11.2177C32.0061 11.2177 32.3708 11.5824 32.3708 12.0323V14.0186C32.3708 14.4685 32.0061 14.8332 31.5563 14.8332C31.1064 14.8332 30.7417 14.4685 30.7417 14.0186V12.0323C30.7417 11.5824 31.1064 11.2177 31.5563 11.2177ZM6.76911 12.6915C6.76911 12.2416 7.13378 11.877 7.58362 11.877H23.9824C24.4322 11.877 24.7969 12.2416 24.7969 12.6915C24.7969 13.1413 24.4322 13.506 23.9824 13.506H7.58362C7.13378 13.506 6.76911 13.1413 6.76911 12.6915ZM6.76911 16.573C6.76911 16.1231 7.13378 15.7585 7.58362 15.7585H23.9824C24.4322 15.7585 24.7969 16.1231 24.7969 16.573C24.7969 17.0229 24.4322 17.3875 23.9824 17.3875H7.58362C7.13378 17.3875 6.76911 17.0229 6.76911 16.573ZM31.5563 17.9077C32.0061 17.9077 32.3708 18.2724 32.3708 18.7223V20.7065C32.3708 21.1563 32.0061 21.521 31.5563 21.521C31.1064 21.521 30.7417 21.1563 30.7417 20.7065V18.7223C30.7417 18.2724 31.1064 17.9077 31.5563 17.9077ZM6.76911 20.4545C6.76911 20.0047 7.13378 19.64 7.58362 19.64H23.9824C24.4322 19.64 24.7969 20.0047 24.7969 20.4545C24.7969 20.9044 24.4322 21.269 23.9824 21.269H7.58362C7.13378 21.269 6.76911 20.9044 6.76911 20.4545ZM6.76911 24.336C6.76911 23.8862 7.13378 23.5215 7.58362 23.5215H23.9824C24.4322 23.5215 24.7969 23.8862 24.7969 24.336C24.7969 24.7859 24.4322 25.1506 23.9824 25.1506H7.58362C7.13378 25.1506 6.76911 24.7859 6.76911 24.336ZM31.5563 24.5988C32.0061 24.5988 32.3708 24.9635 32.3708 25.4134V27.3965C32.3708 27.8463 32.0061 28.211 31.5563 28.211C31.1064 28.211 30.7417 27.8463 30.7417 27.3965V25.4134C30.7417 24.9635 31.1064 24.5988 31.5563 24.5988ZM6.76911 28.2175C6.76911 27.7677 7.13378 27.403 7.58362 27.403H23.9824C24.4322 27.403 24.7969 27.7677 24.7969 28.2175C24.7969 28.6674 24.4322 29.0321 23.9824 29.0321H7.58362C7.13378 29.0321 6.76911 28.6674 6.76911 28.2175ZM6.76911 32.1001C6.76911 31.6503 7.13378 31.2856 7.58362 31.2856H23.9824C24.4322 31.2856 24.7969 31.6503 24.7969 32.1001C24.7969 32.55 24.4322 32.9147 23.9824 32.9147H7.58362C7.13378 32.9147 6.76911 32.55 6.76911 32.1001ZM31.5563 31.2878C32.0061 31.2878 32.3708 31.6524 32.3708 32.1023V34.0876C32.3708 34.5374 32.0061 34.9021 31.5563 34.9021C31.1064 34.9021 30.7417 34.5374 30.7417 34.0876V32.1023C30.7417 31.6524 31.1064 31.2878 31.5563 31.2878ZM6.66811 36.037C6.66811 35.5872 7.03278 35.2225 7.48262 35.2225H10.5126C10.9624 35.2225 11.3271 35.5872 11.3271 36.037C11.3271 36.4869 10.9624 36.8516 10.5126 36.8516H7.48262C7.03278 36.8516 6.66811 36.4869 6.66811 36.037ZM20.1379 36.037C20.1379 35.5872 20.5026 35.2225 20.9524 35.2225H23.9824C24.4322 35.2225 24.7969 35.5872 24.7969 36.037C24.7969 36.4869 24.4322 36.8516 23.9824 36.8516H20.9524C20.5026 36.8516 20.1379 36.4869 20.1379 36.037Z" fill="#F3F3F3"/>
</g>
<defs>
<clipPath id="clip0_533_4868">
<rect width="40" height="40" fill="white"/>
</clipPath>
</defs>
</svg>
