<svg width="43" height="40" viewBox="0 0 43 40" fill="none" xmlns="http://www.w3.org/2000/svg">
<path fill-rule="evenodd" clip-rule="evenodd" d="M29.2226 0.00313203C31.5241 0.0553191 33.5858 0.748153 34.6427 1.35514C34.6456 1.35681 34.6485 1.35849 34.6514 1.3602C36.2222 2.2876 37.6448 3.45584 38.8696 4.82422C40.78 6.92619 42.358 9.65006 42.8451 12.5121C43.339 15.4142 42.7017 18.4397 40.2106 20.9842L37.9254 23.3146C39.1967 24.8291 38.7829 26.874 37.7653 28.0633C37.2241 28.6959 36.4529 29.1724 35.5505 29.2252C35.4343 29.232 35.3182 29.2316 35.2022 29.2241C35.2072 29.3539 35.2042 29.4837 35.1933 29.6131C35.1146 30.5443 34.636 31.3427 34.0087 31.9068C33.2131 32.6223 32.0253 33.0653 30.8883 32.8487C30.887 32.8922 30.8847 32.9357 30.8815 32.9792C30.8142 33.9026 30.3497 34.6913 29.7301 35.2452C28.545 36.3047 26.5106 36.6982 25.0554 35.2763C24.8947 35.7413 24.6348 36.1689 24.289 36.5258L24.2866 36.5283L21.8501 39.0221L21.8465 39.0258C21.2292 39.6499 20.3963 40 19.5284 40C18.6605 40 17.8276 39.6499 17.2103 39.0258L17.2081 39.0235L16.9267 38.7369L16.9228 38.7328C16.3112 38.1015 15.9681 37.2487 15.9681 36.3599C15.9681 36.3212 15.9687 36.2826 15.97 36.2441C15.7973 36.2726 15.6216 36.2873 15.4444 36.2873C14.5758 36.2873 13.7423 35.9362 13.1254 35.3106L13.1216 35.3067L12.8414 35.0188L12.8406 35.018C12.2282 34.3872 11.8844 33.5342 11.8844 32.645C11.8844 32.612 11.8849 32.5791 11.8858 32.5462C11.6809 32.5868 11.4712 32.6077 11.2594 32.6077C10.3912 32.6077 9.55815 32.2573 8.94101 31.6326L8.93783 31.6294L8.65643 31.3415L8.65384 31.3389C8.04231 30.7078 7.6992 29.8551 7.6992 28.9665C7.6992 28.8689 7.70334 28.7718 7.71151 28.6754C7.57509 28.693 7.43703 28.702 7.29807 28.702C6.42968 28.702 5.5964 28.3513 4.97939 27.7262L4.69644 27.4392L4.6916 27.4342C4.0796 26.8032 3.73618 25.9504 3.73618 25.0615C3.73618 24.1726 4.0796 23.3198 4.6916 22.6888L4.6937 22.6867L5.24519 22.1221L2.89062 19.7122C2.89052 19.7121 2.89041 19.712 2.8903 19.7119C0.499035 17.2703 -0.277774 14.3535 0.0846501 11.5305C0.443231 8.73739 1.90765 6.07824 3.92472 4.03768C5.94219 1.99671 8.56943 0.516799 11.3273 0.152346C14.112 -0.215649 16.9959 0.562111 19.4199 2.97647C19.4221 2.97867 19.4244 2.98089 19.4265 2.98312L20.6147 4.19294L22.1163 2.66544C22.1184 2.66329 22.1205 2.66116 22.1226 2.65904C24.2419 0.548322 26.9045 -0.0494348 29.2226 0.00313203ZM19.4209 5.40745L18.2422 4.20728C16.2072 2.18229 13.8449 1.55637 11.543 1.86056C9.21305 2.16846 6.91215 3.43779 5.10854 5.2624C3.30454 7.08742 2.05494 9.41018 1.75394 11.7548C1.4568 14.0693 2.07476 16.4459 4.0799 18.493L6.4353 20.9038L8.32792 18.9663L8.33022 18.9639C8.94704 18.3373 9.78103 17.9857 10.6503 17.9857C11.4861 17.9857 12.2893 18.3108 12.8982 18.8928C12.9267 18.9153 12.9539 18.9397 12.9797 18.9661L13.2599 19.2527L13.2631 19.2561C13.7213 19.7299 14.0285 20.3281 14.1533 20.9726L14.4447 20.6747L14.4459 20.6735C15.0623 20.0459 15.8965 19.6936 16.7661 19.6936C17.6356 19.6936 18.4698 20.0459 19.0862 20.6735L19.0876 20.6749L19.3678 20.9616L19.3701 20.964C19.9821 21.5949 20.3255 22.4478 20.3255 23.3366C20.3255 24.0383 20.1116 24.7175 19.7204 25.2829C20.3717 25.4039 20.9772 25.7242 21.4529 26.2086C21.4623 26.2182 21.4715 26.228 21.4805 26.238L21.7345 26.4979L21.7362 26.4997C22.3492 27.1304 22.6932 27.9836 22.6932 28.873C22.6932 29.468 22.5392 30.0469 22.2537 30.5538C22.9128 30.6717 23.526 30.9934 24.0069 31.4825C24.0331 31.5091 24.0573 31.5372 24.0794 31.5666L24.2864 31.7783L24.289 31.781C24.5488 32.0491 24.7602 32.3573 24.9174 32.6912L26.1803 33.9926L26.1804 33.9928C26.8472 34.6803 27.8927 34.6005 28.6222 33.9483C28.9696 33.6377 29.1737 33.247 29.2026 32.851C29.2301 32.4728 29.1065 31.9734 28.5804 31.407C28.4802 31.2991 28.4126 31.1716 28.3775 31.0373L23.9514 26.385C23.6271 26.0441 23.6343 25.4989 23.9675 25.1672C24.3007 24.8354 24.8336 24.8428 25.1579 25.1836L30.4168 30.7113L30.417 30.7115C31.0568 31.3844 32.1194 31.3126 32.8971 30.6132C33.2643 30.2829 33.4815 29.8721 33.5159 29.4649C33.5465 29.1027 33.4417 28.6416 32.9917 28.1267C32.9614 28.0963 32.9312 28.0653 32.9012 28.0337L28.1174 22.9896C28.0897 22.9604 28.0643 22.9296 28.0414 22.8976L27.7635 22.6042C27.44 22.2627 27.4483 21.7174 27.7822 21.3864C28.116 21.0554 28.649 21.064 28.9725 21.4055L34.1124 26.8311C34.1428 26.8632 34.1727 26.8956 34.2018 26.928C34.6956 27.4102 35.1292 27.5246 35.4544 27.5056C35.8191 27.4843 36.1925 27.2865 36.4985 26.9289C37.1431 26.1754 37.241 25.0689 36.5811 24.361L26.3746 13.4114C26.0538 13.0671 26.0664 12.522 26.4029 12.1938C26.7394 11.8655 27.2722 11.8785 27.5931 12.2227L36.7666 22.0643L39.0211 19.7653C41.083 17.6592 41.5966 15.2179 41.1864 12.8076C40.7696 10.3584 39.3898 7.92533 37.6345 5.99475L37.63 5.98969C36.5221 4.75144 35.2352 3.69416 33.8143 2.85464C33.0076 2.39275 31.2208 1.77127 29.1853 1.72512C27.1643 1.67929 24.9987 2.20043 23.3002 3.89006L15.3727 11.9547C15.3727 11.9547 15.3727 11.9547 15.3727 11.9547C15.1896 12.1411 15.1454 12.2674 15.1349 12.3202C15.1266 12.3616 15.1281 12.4052 15.1656 12.475C15.2639 12.6577 15.5838 12.9417 16.1984 13.1381C17.4065 13.5239 19.0889 13.3611 20.1791 12.2616L20.1794 12.2613L22.1769 10.2485C22.1851 10.2402 22.1936 10.2321 22.2021 10.2241C23.1456 9.34902 24.1759 9.13387 25.1941 9.22048C25.9821 9.28752 26.8115 9.54466 27.5707 9.78003C27.7224 9.82708 27.8714 9.87326 28.0166 9.91687C28.9399 10.1941 29.813 10.4067 30.7058 10.361C31.5716 10.3166 32.5026 10.0257 33.5226 9.2019C33.8876 8.90719 34.4169 8.97092 34.705 9.34424C34.9931 9.71756 34.9308 10.2591 34.5659 10.5538C33.2758 11.5957 32.0108 12.0187 30.79 12.0812C29.5962 12.1423 28.4921 11.8547 27.5424 11.5696C27.3625 11.5155 27.1903 11.4625 27.0246 11.4115C26.2684 11.1785 25.6481 10.9875 25.0546 10.937C24.4087 10.882 23.8727 11.0052 23.3451 11.489L21.3611 13.4881C21.361 13.4882 21.3609 13.4883 21.3608 13.4884C19.7186 15.1445 17.3359 15.3058 15.6967 14.7822C14.8876 14.5238 14.0882 14.0447 13.6906 13.3055C13.4802 12.9143 13.3896 12.4574 13.485 11.9772C13.5781 11.5085 13.8331 11.0923 14.1849 10.734L19.4209 5.40745ZM22.2259 32.3211C22.2616 32.3848 22.306 32.4448 22.359 32.4995L23.4866 33.6615C23.5348 33.8193 23.56 33.985 23.56 34.1534C23.56 34.5874 23.3926 35.0038 23.0942 35.3122C23.0939 35.3125 23.0936 35.3128 23.0933 35.3131L20.6629 37.8008C20.6624 37.8013 20.6619 37.8018 20.6614 37.8023C20.3595 38.1068 19.9525 38.2776 19.5284 38.2776C19.1041 38.2776 18.697 38.1067 18.395 37.8019C18.3946 37.8015 18.3942 37.8011 18.3939 37.8008L18.1186 37.5204C18.118 37.5197 18.1174 37.5191 18.1167 37.5185C17.8188 37.2099 17.6517 36.7937 17.6517 36.3599C17.6517 35.9256 17.8193 35.5088 18.1179 35.2002C18.1181 35.1999 18.1184 35.1997 18.1186 35.1994L20.5543 32.704C20.5546 32.7036 20.555 32.7032 20.5553 32.7029C20.8563 32.3974 21.263 32.2259 21.6871 32.2259C21.8724 32.2259 22.0545 32.2587 22.2259 32.3211ZM20.5434 30.0307C20.842 29.7229 21.0096 29.3067 21.0096 28.873C21.0096 28.4392 20.842 28.023 20.5434 27.7152C20.543 27.7148 20.5427 27.7144 20.5423 27.7141L20.2638 27.4292C20.257 27.4222 20.2503 27.4151 20.2437 27.4079C19.9451 27.115 19.5471 26.9511 19.1328 26.9511C18.7088 26.9511 18.302 27.1227 18.0012 27.4284C18.0009 27.4287 18.0006 27.4291 18.0003 27.4294L14.0352 31.4859C14.0348 31.4862 14.0344 31.4866 14.0341 31.487C13.7356 31.795 13.5681 32.2112 13.5681 32.645C13.5681 33.079 13.7357 33.4954 14.0344 33.8035L14.0352 33.8042M14.3125 34.0892C14.3119 34.0886 14.3113 34.088 14.3107 34.0874L14.0352 33.8042M14.3125 34.0892C14.6139 34.3939 15.0206 34.5648 15.4444 34.5648C15.8685 34.5648 16.2755 34.3937 16.5769 34.0886C16.5773 34.0882 16.5777 34.0878 16.5781 34.0874L20.5423 30.0318C20.5427 30.0315 20.543 30.0311 20.5434 30.0307M12.3936 30.4082L18.175 24.4961C18.1753 24.4958 18.1756 24.4955 18.176 24.4952C18.4744 24.1869 18.6419 23.7706 18.6419 23.3366C18.6419 22.9028 18.4745 22.4865 18.1761 22.1783C18.1757 22.1779 18.1754 22.1775 18.175 22.1772L17.8986 21.8943C17.8982 21.894 17.8979 21.8937 17.8976 21.8933C17.5968 21.5876 17.1901 21.4161 16.7661 21.4161C16.342 21.4161 15.9351 21.5877 15.6343 21.8935C15.6341 21.8938 15.6338 21.8941 15.6336 21.8943L9.84952 27.8067C9.84907 27.8071 9.84863 27.8076 9.84819 27.8081C9.55006 28.1164 9.38283 28.5327 9.38283 28.9665C9.38283 29.4003 9.55014 29.8167 9.84839 30.1251C9.84876 30.1255 9.84914 30.1259 9.84952 30.1262L10.1252 30.4082C10.1256 30.4087 10.1261 30.4092 10.1266 30.4097C10.4283 30.7144 10.8353 30.8853 11.2594 30.8853C11.6835 30.8853 12.0904 30.7144 12.3922 30.4097C12.3927 30.4092 12.3932 30.4087 12.3936 30.4082ZM12.0677 22.7878C12.3656 22.4789 12.5326 22.0624 12.5326 21.6284C12.5326 21.1943 12.3655 20.7778 12.0676 20.4689C12.0671 20.4683 12.0666 20.4678 12.0661 20.4673L11.851 20.2473C11.8278 20.2282 11.8054 20.2078 11.7841 20.1861C11.4826 19.8799 11.0751 19.7081 10.6503 19.7081C10.2259 19.7081 9.81879 19.8796 9.51746 20.1852C9.51715 20.1855 9.51684 20.1858 9.51652 20.1861L5.8867 23.902C5.88642 23.9023 5.88615 23.9026 5.88588 23.9029C5.58732 24.2111 5.4198 24.6275 5.4198 25.0615C5.4198 25.4948 5.58681 25.9106 5.88453 26.2188C5.88525 26.2195 5.88597 26.2202 5.8867 26.221L6.16412 26.5024C6.1642 26.5024 6.16428 26.5025 6.16436 26.5026C6.16439 26.5026 6.16443 26.5027 6.16446 26.5027C6.46617 26.8082 6.87354 26.9796 7.29807 26.9796C7.72227 26.9796 8.12934 26.8085 8.43099 26.5034C8.43133 26.5031 8.43168 26.5027 8.43203 26.5024L12.0661 22.7895C12.0667 22.7889 12.0672 22.7883 12.0677 22.7878Z" fill="white" fill-opacity="0.5"/>
</svg>
