<svg width="40" height="40" viewBox="0 0 40 40" fill="none" xmlns="http://www.w3.org/2000/svg">
<g opacity="0.5">
<path fill-rule="evenodd" clip-rule="evenodd" d="M7.4799 0C7.90862 0 8.25617 0.348756 8.25617 0.778968V2.41814H13.6645V0.778968C13.6645 0.348756 14.0121 0 14.4408 0C14.8695 0 15.2171 0.348756 15.2171 0.778968V2.41814H20.6266V0.778968C20.6266 0.348756 20.9741 0 21.4028 0C21.8316 0 22.1791 0.348756 22.1791 0.778968V2.41814H27.5864V0.778968C27.5864 0.348756 27.9339 0 28.3626 0C28.7913 0 29.1389 0.348756 29.1389 0.778968V2.41814H32.9981C34.5971 2.41814 35.8425 3.77965 35.8425 5.37265V18.8477C35.8425 19.2779 35.495 19.6266 35.0663 19.6266C34.6375 19.6266 34.29 19.2779 34.29 18.8477V10.2379H1.55254V30.6457C1.55254 31.4464 2.17018 32.0423 2.84558 32.0423H18.9032C19.332 32.0423 19.6795 32.391 19.6795 32.8213C19.6795 33.2515 19.332 33.6002 18.9032 33.6002H2.84558C1.2454 33.6002 0 32.2376 0 30.6457V5.37265C0 3.77937 1.24565 2.41814 2.84558 2.41814H6.70363V0.778968C6.70363 0.348756 7.05118 0 7.4799 0ZM6.70363 3.97607H2.84558C2.16993 3.97607 1.55254 4.57116 1.55254 5.37265V8.67993H34.29V5.37265C34.29 4.57088 33.6723 3.97607 32.9981 3.97607H29.1389V5.82445C29.1389 6.25467 28.7913 6.60342 28.3626 6.60342C27.9339 6.60342 27.5864 6.25467 27.5864 5.82445V3.97607H22.1791V5.82445C22.1791 6.25467 21.8316 6.60342 21.4028 6.60342C20.9741 6.60342 20.6266 6.25467 20.6266 5.82445V3.97607H15.2171V5.82445C15.2171 6.25467 14.8695 6.60342 14.4408 6.60342C14.0121 6.60342 13.6645 6.25467 13.6645 5.82445V3.97607H8.25617V5.82445C8.25617 6.25467 7.90862 6.60342 7.4799 6.60342C7.05118 6.60342 6.70363 6.25467 6.70363 5.82445V3.97607ZM28.9149 13.6542C29.3436 13.6542 29.6912 14.0029 29.6912 14.4332V15.586C29.6912 16.0162 29.3436 16.365 28.9149 16.365C28.4862 16.365 28.1386 16.0162 28.1386 15.586V14.4332C28.1386 14.0029 28.4862 13.6542 28.9149 13.6542ZM6.92875 13.6776C7.35747 13.6776 7.70502 14.0263 7.70502 14.4565V15.6094C7.70502 16.0396 7.35747 16.3884 6.92875 16.3884C6.50003 16.3884 6.15248 16.0396 6.15248 15.6094V14.4565C6.15248 14.0263 6.50003 13.6776 6.92875 13.6776ZM12.4325 13.6776C12.8612 13.6776 13.2088 14.0263 13.2088 14.4565V15.6094C13.2088 16.0396 12.8612 16.3884 12.4325 16.3884C12.0038 16.3884 11.6562 16.0396 11.6562 15.6094V14.4565C11.6562 14.0263 12.0038 13.6776 12.4325 13.6776ZM17.9362 13.6776C18.365 13.6776 18.7125 14.0263 18.7125 14.4565V15.6094C18.7125 16.0396 18.365 16.3884 17.9362 16.3884C17.5075 16.3884 17.16 16.0396 17.16 15.6094V14.4565C17.16 14.0263 17.5075 13.6776 17.9362 13.6776ZM23.4411 13.6776C23.8698 13.6776 24.2174 14.0263 24.2174 14.4565V15.6094C24.2174 16.0396 23.8698 16.3884 23.4411 16.3884C23.0124 16.3884 22.6648 16.0396 22.6648 15.6094V14.4565C22.6648 14.0263 23.0124 13.6776 23.4411 13.6776ZM6.92986 19.4809C7.35858 19.4809 7.70613 19.8296 7.70613 20.2598V21.4316C7.70613 21.8618 7.35858 22.2106 6.92986 22.2106C6.50114 22.2106 6.15359 21.8618 6.15359 21.4316V20.2598C6.15359 19.8296 6.50114 19.4809 6.92986 19.4809ZM12.4026 19.4809C12.8313 19.4809 13.1788 19.8296 13.1788 20.2598V21.4316C13.1788 21.8618 12.8313 22.2106 12.4026 22.2106C11.9738 22.2106 11.6263 21.8618 11.6263 21.4316V20.2598C11.6263 19.8296 11.9738 19.4809 12.4026 19.4809ZM17.9063 19.4809C18.335 19.4809 18.6826 19.8296 18.6826 20.2598V21.4316C18.6826 21.8618 18.335 22.2106 17.9063 22.2106C17.4776 22.2106 17.13 21.8618 17.13 21.4316V20.2598C17.13 19.8296 17.4776 19.4809 17.9063 19.4809ZM23.369 19.4809C23.7977 19.4809 24.1453 19.8296 24.1453 20.2598V21.4316C24.1453 21.8618 23.7977 22.2106 23.369 22.2106C22.9403 22.2106 22.5927 21.8618 22.5927 21.4316V20.2598C22.5927 19.8296 22.9403 19.4809 23.369 19.4809ZM6.92875 25.2909C7.35747 25.2909 7.70502 25.6396 7.70502 26.0698V27.2405C7.70502 27.6707 7.35747 28.0195 6.92875 28.0195C6.50003 28.0195 6.15248 27.6707 6.15248 27.2405V26.0698C6.15248 25.6396 6.50003 25.2909 6.92875 25.2909ZM12.4325 25.2909C12.8612 25.2909 13.2088 25.6396 13.2088 26.0698V27.2405C13.2088 27.6707 12.8612 28.0195 12.4325 28.0195C12.0038 28.0195 11.6562 27.6707 11.6562 27.2405V26.0698C11.6562 25.6396 12.0038 25.2909 12.4325 25.2909ZM17.9362 25.2909C18.365 25.2909 18.7125 25.6396 18.7125 26.0698V27.2405C18.7125 27.6707 18.365 28.0195 17.9362 28.0195C17.5075 28.0195 17.16 27.6707 17.16 27.2405V26.0698C17.16 25.6396 17.5075 25.2909 17.9362 25.2909Z" fill="#F3F3F3"/>
<path fill-rule="evenodd" clip-rule="evenodd" d="M30.3521 22.1947C28.2051 22.1947 26.146 23.0505 24.6278 24.574C23.1097 26.0974 22.2568 28.1637 22.2568 30.3182C22.2568 31.9249 22.7315 33.4955 23.6211 34.8314C24.5106 36.1673 25.7749 37.2085 27.2542 37.8233C28.7334 38.4382 30.3611 38.5991 31.9315 38.2856C33.5018 37.9722 34.9443 37.1985 36.0764 36.0624C37.2086 34.9263 37.9796 33.4788 38.2919 31.903C38.6043 30.3272 38.444 28.6938 37.8313 27.2094C37.2186 25.7251 36.181 24.4563 34.8497 23.5637C33.5184 22.6711 31.9532 22.1947 30.3521 22.1947ZM23.53 23.4724C25.3394 21.6567 27.7933 20.6367 30.3521 20.6367C32.2603 20.6367 34.1256 21.2045 35.7122 22.2683C37.2988 23.3322 38.5354 24.8442 39.2656 26.6132C39.9959 28.3823 40.1869 30.3289 39.8147 32.2069C39.4424 34.085 38.5235 35.81 37.1742 37.164C35.8249 38.518 34.1059 39.44 32.2343 39.8136C30.3628 40.1872 28.423 39.9954 26.66 39.2627C24.8971 38.5299 23.3903 37.289 22.3302 35.6969C21.2701 34.1048 20.7042 32.233 20.7042 30.3182C20.7042 27.7505 21.7207 25.288 23.53 23.4724Z" fill="#F3F3F3"/>
<path fill-rule="evenodd" clip-rule="evenodd" d="M35.3237 26.023C35.6629 26.2861 35.7254 26.7753 35.4632 27.1157L29.7965 34.4736C29.6491 34.6649 29.4216 34.7767 29.1807 34.7762C28.9397 34.7757 28.7127 34.663 28.5661 34.4711L25.7915 30.8377C25.5307 30.4963 25.5952 30.0073 25.9355 29.7456C26.2758 29.484 26.763 29.5486 27.0238 29.8901L29.1849 32.72L34.2348 26.163C34.497 25.8226 34.9845 25.7599 35.3237 26.023Z" fill="#F3F3F3"/>
</g>
</svg>
