<svg width="40" height="40" viewBox="0 0 40 40" fill="none" xmlns="http://www.w3.org/2000/svg">
<g opacity="0.5">
<path fill-rule="evenodd" clip-rule="evenodd" d="M19.9998 0.0170451C20.2596 -0.034746 20.5387 0.0315228 20.7487 0.215365L29.4604 7.84072L29.5433 1.19812C29.5491 0.734374 29.9344 0.361411 30.4078 0.361411H35.6872C35.9171 0.361411 36.1374 0.451063 36.2996 0.610562C36.4619 0.77006 36.5526 0.986277 36.5518 1.21144L36.5059 14.0084L39.7086 16.8108C39.8809 16.9616 39.9844 17.1736 39.9962 17.3996C39.9997 17.4683 39.9947 17.5366 39.9817 17.603C39.99 17.6423 39.9954 17.6824 39.998 17.7229C40.012 17.948 39.9339 18.1692 39.781 18.3376L36.9419 21.465C36.8062 21.6143 36.6287 21.7056 36.4419 21.7369L36.531 31.4171C36.531 31.4182 36.531 31.4194 36.531 31.4205L39.5055 34.3348L39.5076 34.3369C39.823 34.6482 40 35.069 40 35.5075C40 35.9461 39.823 36.3668 39.5076 36.6781L39.5055 36.6802L36.6098 39.5173C36.608 39.5191 36.6061 39.5209 36.6043 39.5227C36.2863 39.8286 35.8585 40 35.4129 40C34.9673 40 34.5395 39.8286 34.2215 39.5227C34.2197 39.5209 34.2178 39.5191 34.216 39.5173L33.1885 38.5106C33.1868 38.5106 33.1852 38.5106 33.1835 38.5106H6.57054C6.56709 38.5106 6.56364 38.5106 6.56018 38.5105C5.73506 38.5009 4.94652 38.1754 4.36303 37.6037C3.77954 37.032 3.44737 36.2594 3.43749 35.451C3.43743 35.4459 3.43741 35.4408 3.43745 35.4357L3.52204 21.7302C3.3484 21.6938 3.18468 21.6048 3.05773 21.465L0.21857 18.3376C0.0656501 18.1692 -0.0124314 17.948 0.00161367 17.7229C0.00402427 17.6843 0.00911464 17.6461 0.0167671 17.6086C0.00304334 17.5414 -0.00240074 17.4722 0.000971769 17.4025C0.011959 17.1755 0.115602 16.9623 0.288604 16.8109L19.2509 0.215329C19.461 0.0315136 19.74 -0.0347423 19.9998 0.0170451ZM1.91593 17.6582L3.78191 19.7136L3.82851 19.674C4.08491 19.4558 4.44792 19.405 4.75646 19.5439C5.065 19.6829 5.26193 19.986 5.25987 20.3187L5.16656 35.4375C5.17278 35.8012 5.32301 36.1484 5.58569 36.4058C5.84888 36.6637 6.20419 36.8109 6.57624 36.8165H31.4594L27.5717 33.0074L27.5678 33.0036C27.254 32.6922 27.0781 32.2722 27.0781 31.8347C27.0781 31.3971 27.254 30.9771 27.5678 30.6658L27.5721 30.6616L28.4161 29.8357L27.6632 29.0854L15.3923 34.3322C15.3743 34.3399 15.3561 34.347 15.3376 34.3535C15.0182 34.4654 14.6714 34.4785 14.3441 34.3911C14.0332 34.308 13.7541 34.138 13.5408 33.9023L9.51525 30.0301C9.51337 30.0283 9.51149 30.0264 9.50962 30.0246C9.35569 29.8738 9.23358 29.6948 9.15028 29.4977C9.06697 29.3007 9.02409 29.0895 9.02409 28.8762C9.02409 28.6629 9.06697 28.4517 9.15028 28.2547C9.23359 28.0576 9.35569 27.8786 9.50962 27.7277L11.1755 26.0956L9.51998 24.4735L9.51814 24.4717C9.21889 24.1768 9.05092 23.7777 9.05092 23.3618C9.05092 22.9459 9.21888 22.5469 9.51814 22.2519L9.52012 22.25L22.7027 9.33971L22.7054 9.33712C23.0065 9.04475 23.4133 8.88073 23.8372 8.88073C24.2612 8.88073 24.668 9.04475 24.9691 9.33712L24.9719 9.33984L29.2635 13.5446L29.2663 13.5474C29.5647 13.8424 29.7321 14.241 29.7321 14.6563C29.7321 15.0717 29.5647 15.4703 29.2663 15.7653L29.2633 15.7682L16.0808 28.6785L16.0788 28.6804C15.7775 28.9735 15.3702 29.138 14.9457 29.138C14.5211 29.138 14.1138 28.9735 13.8126 28.6804L13.8103 28.6782L12.3979 27.2937L10.7833 28.8757L14.7773 32.7177C14.7842 32.7243 14.7911 32.7311 14.7978 32.738L27.5167 27.2996C27.8451 27.1592 28.2278 27.2318 28.479 27.4821L29.6388 28.6377L30.4669 27.8253L30.4695 27.8228C30.7871 27.5137 31.2166 27.3403 31.6642 27.3403C32.1118 27.3403 32.5413 27.5138 32.8589 27.8228L32.8611 27.8249L34.7861 29.711L34.6994 20.2817C34.6963 19.9479 34.8936 19.6434 35.2032 19.5042C35.5129 19.3649 35.8771 19.4168 36.1334 19.6367L36.22 19.711L38.0826 17.6594L35.0641 15.0182C34.8797 14.8568 34.7746 14.6257 34.7754 14.3834L34.8197 2.05553H31.2618L31.1662 9.72327C31.162 10.0553 30.9603 10.3544 30.6501 10.4882C30.3399 10.622 29.9785 10.5658 29.7257 10.3446L20.0117 1.84199C20.0038 1.84209 19.9958 1.84209 19.9878 1.84199L1.91593 17.6582ZM10.7325 28.9255C10.7324 28.9256 10.7323 28.9256 10.7322 28.9257L10.7323 28.9257L10.7325 28.9255ZM23.8372 10.624L10.8306 23.3619L12.8879 25.3775L12.888 25.3776L14.9457 27.3948L27.9528 14.6563L23.8372 10.624ZM31.6642 29.048L30.8039 29.8921L30.8035 29.8925L29.6819 30.9914L29.6815 30.9918L28.8201 31.8347L35.4129 38.2941L38.2571 35.5075L31.6642 29.048Z" fill="white"/>
</g>
</svg>
