<svg width="200" height="51" viewBox="0 0 200 51" fill="none" xmlns="http://www.w3.org/2000/svg">
<path d="M1.38867 25.6307V0.345693H6.7586V10.7782H17.6597V0.345693H23.0172V25.6307H17.6597V15.1858H6.7586V25.6307H1.38867Z" fill="white"/>
<path d="M52.7053 12.9882C52.7053 15.7455 52.1803 18.0913 51.1303 20.0255C50.0886 21.9598 48.6665 23.4372 46.8641 24.4578C45.07 25.4702 43.0527 25.9764 40.8121 25.9764C38.555 25.9764 36.5294 25.4661 34.7353 24.4455C32.9412 23.4248 31.5233 21.9474 30.4815 20.0132C29.4398 18.0789 28.9189 15.7373 28.9189 12.9882C28.9189 10.2309 29.4398 7.8851 30.4815 5.95086C31.5233 4.01663 32.9412 2.54332 34.7353 1.53093C36.5294 0.51031 38.555 0 40.8121 0C43.0527 0 45.07 0.51031 46.8641 1.53093C48.6665 2.54332 50.0886 4.01663 51.1303 5.95086C52.1803 7.8851 52.7053 10.2309 52.7053 12.9882ZM47.261 12.9882C47.261 11.2021 46.9923 9.69587 46.4549 8.46949C45.9257 7.2431 45.1775 6.31302 44.2102 5.67925C43.2428 5.04548 42.1101 4.72859 40.8121 4.72859C39.5141 4.72859 38.3814 5.04548 37.414 5.67925C36.4467 6.31302 35.6944 7.2431 35.1569 8.46949C34.6278 9.69587 34.3632 11.2021 34.3632 12.9882C34.3632 14.7743 34.6278 16.2805 35.1569 17.5069C35.6944 18.7333 36.4467 19.6634 37.414 20.2971C38.3814 20.9309 39.5141 21.2478 40.8121 21.2478C42.1101 21.2478 43.2428 20.9309 44.2102 20.2971C45.1775 19.6634 45.9257 18.7333 46.4549 17.5069C46.9923 16.2805 47.261 14.7743 47.261 12.9882Z" fill="white"/>
<path d="M58.6039 0.345693H65.2264L72.221 17.3341H72.5186L79.5131 0.345693H86.1356V25.6307H80.9269V9.17322H80.7161L74.1432 25.5072H70.5963L64.0235 9.11149H63.8126V25.6307H58.6039V0.345693Z" fill="white"/>
<path d="M92.4807 25.6307V0.345693H109.595V4.75328H97.8506V10.7782H108.715V15.1858H97.8506V21.2231H109.645V25.6307H92.4807Z" fill="white"/>
<path d="M115.785 25.6307V0.345693H121.155V21.2231H132.044V25.6307H115.785Z" fill="white"/>
<path d="M142.891 0.345693V25.6307H137.521V0.345693H142.891Z" fill="white"/>
<path d="M166.071 8.51887C165.897 7.91802 165.653 7.38714 165.339 6.92621C165.025 6.45706 164.641 6.06198 164.186 5.74098C163.739 5.41175 163.227 5.16071 162.648 4.98786C162.078 4.81502 161.445 4.72859 160.751 4.72859C159.453 4.72859 158.312 5.04959 157.328 5.69159C156.352 6.3336 155.591 7.26779 155.046 8.49418C154.5 9.71234 154.227 11.2021 154.227 12.9635C154.227 14.7249 154.496 16.2229 155.033 17.4575C155.571 18.6921 156.331 19.6346 157.315 20.2848C158.299 20.9268 159.461 21.2478 160.8 21.2478C162.016 21.2478 163.053 21.0338 163.913 20.6058C164.781 20.1696 165.443 19.5564 165.897 18.7662C166.36 17.9761 166.592 17.0419 166.592 15.9636L167.683 16.1241H161.135V12.0993H171.763V15.2846C171.763 17.5069 171.292 19.4164 170.349 21.0132C169.407 22.6018 168.109 23.8281 166.455 24.6924C164.802 25.5484 162.908 25.9764 160.775 25.9764C158.394 25.9764 156.303 25.4537 154.5 24.4084C152.698 23.3549 151.292 21.861 150.284 19.9268C149.283 17.9843 148.783 15.6797 148.783 13.0129C148.783 10.9634 149.081 9.13618 149.676 7.53118C150.279 5.91794 151.123 4.55163 152.206 3.43224C153.289 2.31285 154.55 1.46097 155.988 0.876579C157.427 0.292193 158.985 0 160.664 0C162.102 0 163.442 0.209885 164.682 0.629656C165.922 1.0412 167.022 1.62558 167.981 2.38281C168.948 3.14005 169.738 4.04132 170.349 5.08663C170.961 6.12371 171.354 7.26779 171.528 8.51887H166.071Z" fill="white"/>
<path d="M181.311 25.6307H175.557L184.325 0.345693H191.245L200 25.6307H194.246L187.884 6.12371H187.686L181.311 25.6307ZM180.951 15.692H194.544V19.865H180.951V15.692Z" fill="white"/>
<path d="M2.98959 48.6544C2.43427 48.6544 1.9303 48.548 1.47768 48.3351C1.02506 48.1183 0.665622 47.8067 0.399373 47.4003C0.133124 46.99 0 46.4946 0 45.914C0 45.403 0.0988924 44.9889 0.296677 44.6715C0.494462 44.3502 0.758809 44.0986 1.08972 43.9167C1.42063 43.7347 1.78577 43.5993 2.18514 43.5102C2.58832 43.4173 2.9934 43.3438 3.40038 43.2896C3.93287 43.2199 4.36458 43.1677 4.69549 43.1328C5.0302 43.0941 5.27363 43.0303 5.42577 42.9412C5.58172 42.8522 5.65969 42.6974 5.65969 42.4767V42.4303C5.65969 41.8574 5.50564 41.4123 5.19756 41.0949C4.89327 40.7775 4.43114 40.6188 3.81116 40.6188C3.16836 40.6188 2.66439 40.762 2.29925 41.0485C1.93411 41.3349 1.67737 41.6407 1.52903 41.9658L0.251035 41.5013C0.479248 40.9594 0.783532 40.5375 1.16389 40.2356C1.54805 39.9298 1.96644 39.7169 2.41906 39.5969C2.87549 39.4731 3.32431 39.4111 3.76552 39.4111C4.04698 39.4111 4.37028 39.446 4.73542 39.5156C5.10437 39.5814 5.46 39.7189 5.80232 39.9279C6.14844 40.1369 6.43561 40.4524 6.66383 40.8743C6.89204 41.2962 7.00615 41.8613 7.00615 42.5696V48.4454H5.65969V47.2377H5.59122C5.49994 47.4313 5.3478 47.6384 5.1348 47.859C4.9218 48.0796 4.63843 48.2674 4.2847 48.4222C3.93097 48.577 3.49927 48.6544 2.98959 48.6544ZM3.19499 47.4235C3.72748 47.4235 4.1763 47.3171 4.54144 47.1042C4.91039 46.8913 5.18805 46.6165 5.37442 46.2797C5.5646 45.943 5.65969 45.5888 5.65969 45.2172V43.9631C5.60263 44.0328 5.47712 44.0966 5.28314 44.1547C5.09296 44.2089 4.87235 44.2573 4.62132 44.2999C4.37409 44.3386 4.13256 44.3734 3.89674 44.4044C3.66472 44.4315 3.47645 44.4547 3.33191 44.474C2.98199 44.5205 2.65488 44.596 2.3506 44.7005C2.05012 44.8011 1.80669 44.954 1.62031 45.1592C1.43774 45.3604 1.34646 45.6353 1.34646 45.9836C1.34646 46.4597 1.51952 46.8197 1.86564 47.0636C2.21557 47.3035 2.65868 47.4235 3.19499 47.4235Z" fill="white"/>
<path d="M14.8724 39.5273V40.8046H10.8102V48.4454H9.46372V39.5273H14.8724Z" fill="white"/>
<path d="M20.0571 48.6312C19.2127 48.6312 18.4843 48.4415 17.8719 48.0622C17.2634 47.679 16.7936 47.1448 16.4627 46.4597C16.1356 45.7707 15.9721 44.9695 15.9721 44.056C15.9721 43.1425 16.1356 42.3374 16.4627 41.6407C16.7936 40.9401 17.2539 40.3943 17.8434 40.0034C18.4368 39.6085 19.129 39.4111 19.9202 39.4111C20.3766 39.4111 20.8273 39.4885 21.2723 39.6434C21.7173 39.7982 22.1224 40.0498 22.4876 40.3982C22.8527 40.7427 23.1437 41.1994 23.3605 41.7684C23.5773 42.3374 23.6857 43.038 23.6857 43.8702V44.4508H16.9306V43.2664H22.3164C22.3164 42.7632 22.2175 42.3142 22.0197 41.9194C21.8257 41.5245 21.5481 41.213 21.1867 40.9846C20.8292 40.7562 20.407 40.642 19.9202 40.642C19.3839 40.642 18.9198 40.7775 18.5281 41.0485C18.1401 41.3155 17.8415 41.6639 17.6323 42.0935C17.4231 42.5232 17.3185 42.9838 17.3185 43.4754V44.265C17.3185 44.9385 17.4326 45.5095 17.6609 45.9778C17.8929 46.4423 18.2143 46.7965 18.6251 47.0403C19.0358 47.2803 19.5132 47.4003 20.0571 47.4003C20.4108 47.4003 20.7303 47.35 21.0156 47.2494C21.3047 47.1448 21.5538 46.99 21.763 46.7849C21.9722 46.5758 22.1338 46.3165 22.2479 46.0069L23.5488 46.3784C23.4118 46.8274 23.1817 47.2223 22.8584 47.5629C22.5351 47.8996 22.1357 48.1628 21.6603 48.3525C21.1848 48.5383 20.6504 48.6312 20.0571 48.6312Z" fill="white"/>
<path d="M31.599 43.3593V44.6366H26.7609V43.3593H31.599ZM27.0804 39.5273V48.4454H25.7339V39.5273H27.0804ZM32.6259 39.5273V48.4454H31.2795V39.5273H32.6259Z" fill="white"/>
<path d="M33.8925 40.8046V39.5273H41.0128V40.8046H38.1373V48.4454H36.7908V40.8046H33.8925Z" fill="white"/>
<path d="M46.082 48.6312C45.2604 48.6312 44.5529 48.4338 43.9596 48.039C43.3662 47.6442 42.9098 47.1003 42.5903 46.4075C42.2708 45.7146 42.111 44.923 42.111 44.0328C42.111 43.127 42.2746 42.3277 42.6017 41.6349C42.9326 40.9381 43.3928 40.3943 43.9824 40.0034C44.5757 39.6085 45.268 39.4111 46.0591 39.4111C46.6753 39.4111 47.2306 39.5273 47.7251 39.7595C48.2196 39.9917 48.6246 40.3169 48.9403 40.7349C49.256 41.153 49.4519 41.6407 49.528 42.1981H48.1815C48.0788 41.7916 47.8506 41.4317 47.4969 41.1181C47.1469 40.8007 46.6753 40.642 46.082 40.642C45.5571 40.642 45.0968 40.7814 44.7013 41.0601C44.3095 41.3349 44.0033 41.7239 43.7827 42.2271C43.5659 42.7264 43.4575 43.3128 43.4575 43.9863C43.4575 44.6753 43.564 45.2753 43.777 45.7862C43.9938 46.2972 44.2981 46.6939 44.6899 46.9765C45.0854 47.259 45.5495 47.4003 46.082 47.4003C46.4319 47.4003 46.7495 47.3384 47.0347 47.2145C47.32 47.0907 47.5615 46.9126 47.7593 46.6804C47.9571 46.4481 48.0978 46.1694 48.1815 45.8443H49.528C49.4519 46.3707 49.2636 46.8449 48.9631 47.2668C48.6665 47.6848 48.2728 48.0177 47.7821 48.2654C47.2953 48.5093 46.7286 48.6312 46.082 48.6312Z" fill="white"/>
<path d="M50.806 40.8046V39.5273H57.9262V40.8046H55.0507V48.4454H53.7043V40.8046H50.806Z" fill="white"/>
<path d="M59.8903 48.4454V39.5273H63.4732C64.4165 39.5273 65.1658 39.744 65.7211 40.1775C66.2765 40.6111 66.5541 41.1839 66.5541 41.8961C66.5541 42.438 66.3963 42.858 66.0806 43.1561C65.7649 43.4502 65.3598 43.6496 64.8653 43.7541C65.1886 43.8005 65.5024 43.9167 65.8067 44.1025C66.1148 44.2882 66.3696 44.5437 66.5712 44.8689C66.7728 45.1901 66.8736 45.5849 66.8736 46.0533C66.8736 46.51 66.7595 46.9184 66.5313 47.2784C66.3031 47.6384 65.976 47.9229 65.55 48.1319C65.124 48.3409 64.6143 48.4454 64.0209 48.4454H59.8903ZM61.1683 47.1913H64.0209C64.485 47.1913 64.8482 47.079 65.1107 46.8545C65.3731 46.63 65.5043 46.3243 65.5043 45.9372C65.5043 45.4766 65.3731 45.1146 65.1107 44.8514C64.8482 44.5844 64.485 44.4508 64.0209 44.4508H61.1683V47.1913ZM61.1683 43.2664H63.4732C63.8346 43.2664 64.1446 43.2161 64.4032 43.1154C64.6618 43.0109 64.8596 42.8638 64.9966 42.6742C65.1373 42.4806 65.2076 42.2522 65.2076 41.989C65.2076 41.6136 65.0536 41.3194 64.7455 41.1065C64.4374 40.8898 64.0133 40.7814 63.4732 40.7814H61.1683V43.2664Z" fill="white"/>
<path d="M72.472 48.6312C71.6808 48.6312 70.9867 48.4396 70.3895 48.0564C69.7962 47.6732 69.3321 47.1371 68.9974 46.4481C68.6665 45.7591 68.5011 44.954 68.5011 44.0328C68.5011 43.1038 68.6665 42.2929 68.9974 41.6C69.3321 40.9072 69.7962 40.3691 70.3895 39.9859C70.9867 39.6027 71.6808 39.4111 72.472 39.4111C73.2631 39.4111 73.9553 39.6027 74.5487 39.9859C75.1459 40.3691 75.6099 40.9072 75.9408 41.6C76.2755 42.2929 76.4429 43.1038 76.4429 44.0328C76.4429 44.954 76.2755 45.7591 75.9408 46.4481C75.6099 47.1371 75.1459 47.6732 74.5487 48.0564C73.9553 48.4396 73.2631 48.6312 72.472 48.6312ZM72.472 47.4003C73.0729 47.4003 73.5674 47.2435 73.9553 46.93C74.3433 46.6165 74.6305 46.2043 74.8168 45.6933C75.0032 45.1824 75.0964 44.6289 75.0964 44.0328C75.0964 43.4367 75.0032 42.8812 74.8168 42.3664C74.6305 41.8516 74.3433 41.4355 73.9553 41.1181C73.5674 40.8007 73.0729 40.642 72.472 40.642C71.871 40.642 71.3765 40.8007 70.9886 41.1181C70.6006 41.4355 70.3134 41.8516 70.1271 42.3664C69.9407 42.8812 69.8475 43.4367 69.8475 44.0328C69.8475 44.6289 69.9407 45.1824 70.1271 45.6933C70.3134 46.2043 70.6006 46.6165 70.9886 46.93C71.3765 47.2435 71.871 47.4003 72.472 47.4003Z" fill="white"/>
<path d="M88.8819 43.3593V44.6366H84.0438V43.3593H88.8819ZM84.3633 39.5273V48.4454H83.0168V39.5273H84.3633ZM89.9089 39.5273V48.4454H88.5624V39.5273H89.9089Z" fill="white"/>
<path d="M96.0421 48.6312C95.1977 48.6312 94.4693 48.4415 93.857 48.0622C93.2484 47.679 92.7787 47.1448 92.4477 46.4597C92.1206 45.7707 91.9571 44.9695 91.9571 44.056C91.9571 43.1425 92.1206 42.3374 92.4477 41.6407C92.7787 40.9401 93.2389 40.3943 93.8284 40.0034C94.4218 39.6085 95.114 39.4111 95.9052 39.4111C96.3616 39.4111 96.8123 39.4885 97.2573 39.6434C97.7024 39.7982 98.1074 40.0498 98.4726 40.3982C98.8377 40.7427 99.1287 41.1994 99.3455 41.7684C99.5623 42.3374 99.6707 43.038 99.6707 43.8702V44.4508H92.9156V43.2664H98.3014C98.3014 42.7632 98.2025 42.3142 98.0047 41.9194C97.8108 41.5245 97.5331 41.213 97.1718 40.9846C96.8142 40.7562 96.392 40.642 95.9052 40.642C95.3689 40.642 94.9048 40.7775 94.5131 41.0485C94.1251 41.3155 93.8265 41.6639 93.6173 42.0935C93.4081 42.5232 93.3036 42.9838 93.3036 43.4754V44.265C93.3036 44.9385 93.4177 45.5095 93.6459 45.9778C93.8779 46.4423 94.1993 46.7965 94.6101 47.0403C95.0209 47.2803 95.4982 47.4003 96.0421 47.4003C96.3958 47.4003 96.7153 47.35 97.0006 47.2494C97.2897 47.1448 97.5388 46.99 97.748 46.7849C97.9572 46.5758 98.1189 46.3165 98.233 46.0069L99.5338 46.3784C99.3968 46.8274 99.1667 47.2223 98.8434 47.5629C98.5201 47.8996 98.1208 48.1628 97.6453 48.3525C97.1699 48.5383 96.6355 48.6312 96.0421 48.6312Z" fill="white"/>
<path d="M100.783 51.0001V47.1681H101.514C101.692 46.9784 101.846 46.7733 101.976 46.5526C102.105 46.332 102.217 46.0707 102.312 45.7688C102.411 45.463 102.495 45.0914 102.563 44.654C102.632 44.2128 102.693 43.6805 102.746 43.0574L103.043 39.5273H108.611V47.1681H109.957V51.0001H108.611V48.4454H102.13V51.0001H100.783ZM103.043 47.1681H107.264V40.8046H104.298L104.07 43.0574C103.974 43.9902 103.857 44.805 103.716 45.5017C103.575 46.1985 103.351 46.7539 103.043 47.1681Z" fill="white"/>
<path d="M111.745 48.4454V39.5273H115.328C116.271 39.5273 117.02 39.744 117.575 40.1775C118.131 40.6111 118.408 41.1839 118.408 41.8961C118.408 42.438 118.251 42.858 117.935 43.1561C117.619 43.4502 117.214 43.6496 116.72 43.7541C117.043 43.8005 117.357 43.9167 117.661 44.1025C117.969 44.2882 118.224 44.5437 118.426 44.8689C118.627 45.1901 118.728 45.5849 118.728 46.0533C118.728 46.51 118.614 46.9184 118.386 47.2784C118.157 47.6384 117.83 47.9229 117.404 48.1319C116.978 48.3409 116.469 48.4454 115.875 48.4454H111.745ZM113.023 47.1913H115.875C116.339 47.1913 116.703 47.079 116.965 46.8545C117.227 46.63 117.359 46.3243 117.359 45.9372C117.359 45.4766 117.227 45.1146 116.965 44.8514C116.703 44.5844 116.339 44.4508 115.875 44.4508H113.023V47.1913ZM113.023 43.2664H115.328C115.689 43.2664 115.999 43.2161 116.258 43.1154C116.516 43.0109 116.714 42.8638 116.851 42.6742C116.992 42.4806 117.062 42.2522 117.062 41.989C117.062 41.6136 116.908 41.3194 116.6 41.1065C116.292 40.8898 115.868 40.7814 115.328 40.7814H113.023V43.2664Z" fill="white"/>
<path d="M122.113 46.4249L126.335 39.5273H127.886V48.4454H126.54V41.5478L122.341 48.4454H120.766V39.5273H122.113V46.4249Z" fill="white"/>
<path d="M129.805 48.4454L133.365 43.9167L129.85 39.5273H131.448L134.369 43.336H135.099V39.5273H136.446V43.336H137.153L140.074 39.5273H141.672L138.18 43.9167L141.718 48.4454H140.097L137.13 44.6134H136.446V48.4454H135.099V44.6134H134.415L131.425 48.4454H129.805Z" fill="white"/>
<path d="M144.988 46.4249L149.21 39.5273H150.762V48.4454H149.415V41.5478L145.216 48.4454H143.642V39.5273H144.988V46.4249Z" fill="white"/>
<path d="M158.021 46.5875L161.079 39.5273H162.357L158.568 48.4454H157.473L153.753 39.5273H155.008L158.021 46.5875ZM154.575 39.5273V48.4454H153.228V39.5273H154.575ZM161.467 48.4454V39.5273H162.813V48.4454H161.467Z" fill="white"/>
<path d="M168.838 48.6312C168.047 48.6312 167.353 48.4396 166.755 48.0564C166.162 47.6732 165.698 47.1371 165.363 46.4481C165.032 45.7591 164.867 44.954 164.867 44.0328C164.867 43.1038 165.032 42.2929 165.363 41.6C165.698 40.9072 166.162 40.3691 166.755 39.9859C167.353 39.6027 168.047 39.4111 168.838 39.4111C169.629 39.4111 170.321 39.6027 170.915 39.9859C171.512 40.3691 171.976 40.9072 172.307 41.6C172.641 42.2929 172.809 43.1038 172.809 44.0328C172.809 44.954 172.641 45.7591 172.307 46.4481C171.976 47.1371 171.512 47.6732 170.915 48.0564C170.321 48.4396 169.629 48.6312 168.838 48.6312ZM168.838 47.4003C169.439 47.4003 169.933 47.2435 170.321 46.93C170.709 46.6165 170.996 46.2043 171.183 45.6933C171.369 45.1824 171.462 44.6289 171.462 44.0328C171.462 43.4367 171.369 42.8812 171.183 42.3664C170.996 41.8516 170.709 41.4355 170.321 41.1181C169.933 40.8007 169.439 40.642 168.838 40.642C168.237 40.642 167.742 40.8007 167.354 41.1181C166.966 41.4355 166.679 41.8516 166.493 42.3664C166.307 42.8812 166.213 43.4367 166.213 44.0328C166.213 44.6289 166.307 45.1824 166.493 45.6933C166.679 46.2043 166.966 46.6165 167.354 46.93C167.742 47.2435 168.237 47.4003 168.838 47.4003Z" fill="white"/>
<path d="M178.424 48.6312C177.603 48.6312 176.895 48.4338 176.302 48.039C175.708 47.6442 175.252 47.1003 174.933 46.4075C174.613 45.7146 174.453 44.923 174.453 44.0328C174.453 43.127 174.617 42.3277 174.944 41.6349C175.275 40.9381 175.735 40.3943 176.325 40.0034C176.918 39.6085 177.61 39.4111 178.401 39.4111C179.018 39.4111 179.573 39.5273 180.067 39.7595C180.562 39.9917 180.967 40.3169 181.283 40.7349C181.598 41.153 181.794 41.6407 181.87 42.1981H180.524C180.421 41.7916 180.193 41.4317 179.839 41.1181C179.489 40.8007 179.018 40.642 178.424 40.642C177.899 40.642 177.439 40.7814 177.044 41.0601C176.652 41.3349 176.346 41.7239 176.125 42.2271C175.908 42.7264 175.8 43.3128 175.8 43.9863C175.8 44.6753 175.906 45.2753 176.119 45.7862C176.336 46.2972 176.64 46.6939 177.032 46.9765C177.428 47.259 177.892 47.4003 178.424 47.4003C178.774 47.4003 179.092 47.3384 179.377 47.2145C179.662 47.0907 179.904 46.9126 180.102 46.6804C180.299 46.4481 180.44 46.1694 180.524 45.8443H181.87C181.794 46.3707 181.606 46.8449 181.305 47.2668C181.009 47.6848 180.615 48.0177 180.124 48.2654C179.638 48.5093 179.071 48.6312 178.424 48.6312Z" fill="white"/>
<path d="M183.148 40.8046V39.5273H190.268V40.8046H187.393V48.4454H186.047V40.8046H183.148Z" fill="white"/>
<path d="M193.579 46.4249L197.801 39.5273H199.353V48.4454H198.006V41.5478L193.807 48.4454H192.233V39.5273H193.579V46.4249Z" fill="white"/>
</svg>
