<svg width="145" height="37" viewBox="0 0 145 37" fill="none" xmlns="http://www.w3.org/2000/svg">
<path d="M1.00269 18.5947V0.250796H4.88107V7.81947H12.7543V0.250796H16.6237V18.5947H12.7543V11.0171H4.88107V18.5947H1.00269Z" fill="white"/>
<path d="M38.0657 9.42277C38.0657 11.4232 37.6865 13.125 36.9282 14.5283C36.1758 15.9315 35.1487 17.0034 33.847 17.7438C32.5512 18.4783 31.0942 18.8455 29.4759 18.8455C27.8458 18.8455 26.3828 18.4753 25.087 17.7349C23.7912 16.9944 22.7671 15.9226 22.0147 14.5193C21.2624 13.116 20.8862 11.4172 20.8862 9.42277C20.8862 7.42238 21.2624 5.72054 22.0147 4.31728C22.7671 2.91401 23.7912 1.84514 25.087 1.11067C26.3828 0.370223 27.8458 0 29.4759 0C31.0942 0 32.5512 0.370223 33.847 1.11067C35.1487 1.84514 36.1758 2.91401 36.9282 4.31728C37.6865 5.72054 38.0657 7.42238 38.0657 9.42277ZM34.1336 9.42277C34.1336 8.12699 33.9395 7.03424 33.5514 6.14451C33.1692 5.25478 32.6288 4.58002 31.9302 4.12022C31.2315 3.66043 30.4134 3.43054 29.4759 3.43054C28.5384 3.43054 27.7204 3.66043 27.0217 4.12022C26.3231 4.58002 25.7797 5.25478 25.3915 6.14451C25.0094 7.03424 24.8183 8.12699 24.8183 9.42277C24.8183 10.7186 25.0094 11.8113 25.3915 12.701C25.7797 13.5908 26.3231 14.2655 27.0217 14.7253C27.7204 15.1851 28.5384 15.415 29.4759 15.415C30.4134 15.415 31.2315 15.1851 31.9302 14.7253C32.6288 14.2655 33.1692 13.5908 33.5514 12.701C33.9395 11.8113 34.1336 10.7186 34.1336 9.42277Z" fill="white"/>
<path d="M42.3259 0.250796H47.109L52.1607 12.5756H52.3757L57.4274 0.250796H62.2105V18.5947H58.4485V6.65506H58.2963L53.5491 18.5052H50.9874L46.2401 6.61027H46.0879V18.5947H42.3259V0.250796Z" fill="white"/>
<path d="M66.7932 18.5947V0.250796H79.1538V3.44845H70.6715V7.81947H78.5179V11.0171H70.6715V15.3971H79.1897V18.5947H66.7932Z" fill="white"/>
<path d="M83.6245 18.5947V0.250796H87.5029V15.3971H95.3672V18.5947H83.6245Z" fill="white"/>
<path d="M103.201 0.250796V18.5947H99.3229V0.250796H103.201Z" fill="white"/>
<path d="M119.943 6.18034C119.818 5.74443 119.642 5.35928 119.415 5.02488C119.188 4.68452 118.91 4.39789 118.582 4.16501C118.259 3.92616 117.889 3.74403 117.471 3.61863C117.059 3.49323 116.602 3.43054 116.101 3.43054C115.163 3.43054 114.339 3.66342 113.628 4.12918C112.924 4.59495 112.374 5.27269 111.98 6.16242C111.586 7.04618 111.389 8.12699 111.389 9.40486C111.389 10.6827 111.583 11.7695 111.971 12.6652C112.359 13.5609 112.909 14.2446 113.619 14.7164C114.33 15.1821 115.169 15.415 116.136 15.415C117.014 15.415 117.764 15.2598 118.385 14.9492C119.012 14.6328 119.489 14.1879 119.818 13.6147C120.152 13.0414 120.319 12.3637 120.319 11.5814L121.107 11.6979H116.378V8.77787H124.054V11.0888C124.054 12.701 123.714 14.0864 123.033 15.2448C122.352 16.3973 121.415 17.287 120.221 17.914C119.026 18.535 117.659 18.8455 116.118 18.8455C114.399 18.8455 112.888 18.4664 111.586 17.708C110.284 16.9437 109.269 15.8599 108.541 14.4566C107.818 13.0474 107.457 11.3754 107.457 9.44069C107.457 7.95382 107.672 6.62819 108.102 5.46378C108.538 4.29339 109.147 3.30215 109.929 2.49005C110.711 1.67795 111.622 1.05991 112.661 0.635947C113.7 0.211982 114.826 0 116.038 0C117.077 0 118.044 0.152269 118.94 0.456808C119.836 0.755375 120.63 1.17934 121.322 1.7287C122.021 2.27807 122.591 2.93193 123.033 3.69029C123.475 4.44268 123.759 5.27269 123.884 6.18034H119.943Z" fill="white"/>
<path d="M130.95 18.5947H126.794L133.127 0.250796H138.125L144.448 18.5947H140.292L135.697 4.44268H135.554L130.95 18.5947ZM130.69 11.3844H140.507V14.4118H130.69V11.3844Z" fill="white"/>
<path d="M2.15921 35.2982C1.75813 35.2982 1.39415 35.221 1.06724 35.0665C0.740339 34.9093 0.48074 34.6832 0.288444 34.3883C0.096148 34.0907 0 33.7312 0 33.31C0 32.9393 0.0714242 32.6389 0.214273 32.4086C0.357121 32.1755 0.548044 31.993 0.78704 31.861C1.02604 31.729 1.28976 31.6307 1.5782 31.5661C1.86939 31.4987 2.16196 31.4454 2.45589 31.4061C2.84049 31.3555 3.15228 31.3176 3.39128 31.2923C3.63302 31.2643 3.80883 31.2179 3.91872 31.1533C4.03135 31.0887 4.08766 30.9764 4.08766 30.8164V30.7827C4.08766 30.367 3.97641 30.0441 3.75389 29.8138C3.53413 29.5836 3.20035 29.4684 2.75258 29.4684C2.28832 29.4684 1.92433 29.5723 1.66061 29.7801C1.39689 29.9879 1.21146 30.2098 1.10433 30.4457L0.181308 30.1087C0.346133 29.7156 0.5659 29.4095 0.840608 29.1904C1.11806 28.9686 1.42024 28.8141 1.74715 28.7271C2.0768 28.6372 2.40095 28.5923 2.71961 28.5923C2.9229 28.5923 3.1564 28.6176 3.42012 28.6681C3.68659 28.7158 3.94344 28.8155 4.19068 28.9672C4.44066 29.1188 4.64807 29.3477 4.81289 29.6538C4.97772 29.9599 5.06013 30.3699 5.06013 30.8837V35.1465H4.08766V34.2704H4.03822C3.97229 34.4108 3.8624 34.561 3.70857 34.7211C3.55473 34.8812 3.35007 35.0174 3.09459 35.1297C2.83911 35.242 2.52732 35.2982 2.15921 35.2982ZM2.30755 34.4052C2.69214 34.4052 3.0163 34.328 3.28002 34.1735C3.54649 34.0191 3.74702 33.8197 3.88163 33.5754C4.01899 33.3311 4.08766 33.0741 4.08766 32.8045V31.8947C4.04646 31.9452 3.9558 31.9916 3.8157 32.0337C3.67835 32.073 3.51902 32.1081 3.33771 32.139C3.15915 32.1671 2.98471 32.1924 2.81439 32.2148C2.64682 32.2345 2.51084 32.2513 2.40645 32.2654C2.15371 32.2991 1.91747 32.3538 1.6977 32.4296C1.48068 32.5027 1.30487 32.6136 1.17026 32.7624C1.0384 32.9084 0.972468 33.1078 0.972468 33.3605C0.972468 33.706 1.09746 33.9671 1.34745 34.144C1.60018 34.3181 1.92021 34.4052 2.30755 34.4052Z" fill="#C9C9C9"/>
<path d="M10.7414 28.6765V29.6032H7.80756V35.1465H6.83509V28.6765H10.7414Z" fill="#C9C9C9"/>
<path d="M14.4861 35.2813C13.8762 35.2813 13.3501 35.1437 12.9079 34.8685C12.4683 34.5905 12.1291 34.203 11.8901 33.706C11.6538 33.2061 11.5357 32.6248 11.5357 31.9621C11.5357 31.2994 11.6538 30.7153 11.8901 30.2098C12.1291 29.7015 12.4615 29.3056 12.8873 29.0219C13.3158 28.7355 13.8158 28.5923 14.3872 28.5923C14.7168 28.5923 15.0424 28.6484 15.3638 28.7608C15.6852 28.8731 15.9777 29.0556 16.2415 29.3084C16.5052 29.5583 16.7153 29.8897 16.8719 30.3025C17.0285 30.7153 17.1068 31.2235 17.1068 31.8273V32.2485H12.228V31.3892H16.1178C16.1178 31.0242 16.0464 30.6984 15.9036 30.412C15.7635 30.1255 15.5629 29.8995 15.302 29.7338C15.0437 29.5681 14.7388 29.4853 14.3872 29.4853C13.9998 29.4853 13.6647 29.5836 13.3817 29.7801C13.1015 29.9739 12.8859 30.2266 12.7348 30.5383C12.5837 30.85 12.5082 31.1842 12.5082 31.5409V32.1137C12.5082 32.6023 12.5906 33.0165 12.7554 33.3563C12.923 33.6933 13.1551 33.9503 13.4518 34.1272C13.7485 34.3013 14.0932 34.3883 14.4861 34.3883C14.7415 34.3883 14.9723 34.3518 15.1783 34.2788C15.3871 34.203 15.567 34.0907 15.7181 33.9418C15.8692 33.7902 15.986 33.6021 16.0684 33.3774L17.0079 33.647C16.909 33.9727 16.7428 34.2592 16.5093 34.5063C16.2758 34.7506 15.9873 34.9415 15.644 35.0791C15.3006 35.2139 14.9146 35.2813 14.4861 35.2813Z" fill="#C9C9C9"/>
<path d="M22.8221 31.4566V32.3833H19.3278V31.4566H22.8221ZM19.5586 28.6765V35.1465H18.5861V28.6765H19.5586ZM23.5638 28.6765V35.1465H22.5913V28.6765H23.5638Z" fill="#C9C9C9"/>
<path d="M24.4786 29.6032V28.6765H29.6211V29.6032H27.5443V35.1465H26.5719V29.6032H24.4786Z" fill="#C9C9C9"/>
<path d="M33.2823 35.2813C32.6889 35.2813 32.178 35.1381 31.7494 34.8517C31.3209 34.5653 30.9912 34.1707 30.7605 33.668C30.5297 33.1654 30.4144 32.5911 30.4144 31.9452C30.4144 31.2881 30.5325 30.7082 30.7687 30.2056C31.0077 29.7001 31.3401 29.3056 31.7659 29.0219C32.1945 28.7355 32.6944 28.5923 33.2658 28.5923C33.7109 28.5923 34.1119 28.6765 34.4691 28.845C34.8262 29.0135 35.1187 29.2494 35.3467 29.5527C35.5748 29.856 35.7162 30.2098 35.7712 30.6142H34.7987C34.7245 30.3193 34.5597 30.0581 34.3042 29.8307C34.0515 29.6004 33.7109 29.4853 33.2823 29.4853C32.9032 29.4853 32.5708 29.5864 32.2851 29.7886C32.0022 29.9879 31.781 30.2702 31.6217 30.6352C31.4651 30.9975 31.3868 31.4229 31.3868 31.9115C31.3868 32.4114 31.4637 32.8467 31.6176 33.2173C31.7742 33.588 31.9939 33.8758 32.2769 34.0808C32.5626 34.2858 32.8977 34.3883 33.2823 34.3883C33.535 34.3883 33.7644 34.3434 33.9705 34.2535C34.1765 34.1637 34.3509 34.0345 34.4938 33.866C34.6366 33.6975 34.7383 33.4953 34.7987 33.2595H35.7712C35.7162 33.6414 35.5802 33.9854 35.3632 34.2915C35.149 34.5947 34.8646 34.8362 34.5103 35.016C34.1586 35.1929 33.7493 35.2813 33.2823 35.2813Z" fill="#C9C9C9"/>
<path d="M36.6942 29.6032V28.6765H41.8367V29.6032H39.7599V35.1465H38.7875V29.6032H36.6942Z" fill="#C9C9C9"/>
<path d="M43.2553 35.1465V28.6765H45.843C46.5243 28.6765 47.0655 28.8338 47.4665 29.1483C47.8676 29.4628 48.0682 29.8784 48.0682 30.3951C48.0682 30.7883 47.9542 31.093 47.7261 31.3092C47.4981 31.5226 47.2056 31.6672 46.8484 31.743C47.082 31.7767 47.3086 31.861 47.5284 31.9958C47.7509 32.1306 47.9349 32.3159 48.0805 32.5518C48.2261 32.7849 48.2989 33.0713 48.2989 33.4111C48.2989 33.7425 48.2165 34.0387 48.0517 34.2999C47.8868 34.561 47.6506 34.7674 47.3429 34.9191C47.0353 35.0707 46.6671 35.1465 46.2386 35.1465H43.2553ZM44.1783 34.2367H46.2386C46.5737 34.2367 46.8361 34.1553 47.0256 33.9924C47.2152 33.8295 47.31 33.6077 47.31 33.3269C47.31 32.9927 47.2152 32.7301 47.0256 32.5392C46.8361 32.3454 46.5737 32.2485 46.2386 32.2485H44.1783V34.2367ZM44.1783 31.3892H45.843C46.104 31.3892 46.3279 31.3527 46.5147 31.2797C46.7015 31.2039 46.8443 31.0972 46.9432 30.9596C47.0449 30.8192 47.0957 30.6535 47.0957 30.4625C47.0957 30.1901 46.9844 29.9767 46.7619 29.8223C46.5394 29.665 46.2331 29.5864 45.843 29.5864H44.1783V31.3892Z" fill="#C9C9C9"/>
<path d="M52.3423 35.2813C51.7709 35.2813 51.2695 35.1423 50.8382 34.8643C50.4097 34.5863 50.0746 34.1974 49.8328 33.6975C49.5938 33.1977 49.4743 32.6136 49.4743 31.9452C49.4743 31.2713 49.5938 30.683 49.8328 30.1803C50.0746 29.6776 50.4097 29.2873 50.8382 29.0093C51.2695 28.7313 51.7709 28.5923 52.3423 28.5923C52.9137 28.5923 53.4136 28.7313 53.8422 29.0093C54.2735 29.2873 54.6086 29.6776 54.8476 30.1803C55.0894 30.683 55.2102 31.2713 55.2102 31.9452C55.2102 32.6136 55.0894 33.1977 54.8476 33.6975C54.6086 34.1974 54.2735 34.5863 53.8422 34.8643C53.4136 35.1423 52.9137 35.2813 52.3423 35.2813ZM52.3423 34.3883C52.7763 34.3883 53.1334 34.2746 53.4136 34.0471C53.6938 33.8197 53.9012 33.5206 54.0359 33.1499C54.1705 32.7793 54.2378 32.3777 54.2378 31.9452C54.2378 31.5128 54.1705 31.1098 54.0359 30.7363C53.9012 30.3628 53.6938 30.061 53.4136 29.8307C53.1334 29.6004 52.7763 29.4853 52.3423 29.4853C51.9082 29.4853 51.5511 29.6004 51.2709 29.8307C50.9907 30.061 50.7833 30.3628 50.6487 30.7363C50.5141 31.1098 50.4468 31.5128 50.4468 31.9452C50.4468 32.3777 50.5141 32.7793 50.6487 33.1499C50.7833 33.5206 50.9907 33.8197 51.2709 34.0471C51.5511 34.2746 51.9082 34.3883 52.3423 34.3883Z" fill="#C9C9C9"/>
<path d="M64.1942 31.4566V32.3833H60.6999V31.4566H64.1942ZM60.9307 28.6765V35.1465H59.9582V28.6765H60.9307ZM64.9359 28.6765V35.1465H63.9635V28.6765H64.9359Z" fill="#C9C9C9"/>
<path d="M69.3656 35.2813C68.7558 35.2813 68.2297 35.1437 67.7874 34.8685C67.3479 34.5905 67.0086 34.203 66.7696 33.706C66.5334 33.2061 66.4153 32.6248 66.4153 31.9621C66.4153 31.2994 66.5334 30.7153 66.7696 30.2098C67.0086 29.7015 67.341 29.3056 67.7668 29.0219C68.1954 28.7355 68.6953 28.5923 69.2667 28.5923C69.5964 28.5923 69.9219 28.6484 70.2433 28.7608C70.5647 28.8731 70.8573 29.0556 71.121 29.3084C71.3847 29.5583 71.5949 29.8897 71.7515 30.3025C71.9081 30.7153 71.9863 31.2235 71.9863 31.8273V32.2485H67.1075V31.3892H70.9974C70.9974 31.0242 70.926 30.6984 70.7831 30.412C70.643 30.1255 70.4425 29.8995 70.1815 29.7338C69.9233 29.5681 69.6184 29.4853 69.2667 29.4853C68.8794 29.4853 68.5442 29.5836 68.2613 29.7801C67.9811 29.9739 67.7654 30.2266 67.6143 30.5383C67.4633 30.85 67.3877 31.1842 67.3877 31.5409V32.1137C67.3877 32.6023 67.4701 33.0165 67.635 33.3563C67.8025 33.6933 68.0347 33.9503 68.3313 34.1272C68.628 34.3013 68.9728 34.3883 69.3656 34.3883C69.6211 34.3883 69.8519 34.3518 70.0579 34.2788C70.2667 34.203 70.4466 34.0907 70.5977 33.9418C70.7488 33.7902 70.8655 33.6021 70.9479 33.3774L71.8874 33.647C71.7886 33.9727 71.6224 34.2592 71.3888 34.5063C71.1553 34.7506 70.8669 34.9415 70.5235 35.0791C70.1801 35.2139 69.7942 35.2813 69.3656 35.2813Z" fill="#C9C9C9"/>
<path d="M72.7899 36.9999V34.2198H73.3173C73.4464 34.0822 73.5577 33.9334 73.6511 33.7733C73.7445 33.6133 73.8255 33.4237 73.8942 33.2047C73.9656 32.9829 74.026 32.7133 74.0755 32.3959C74.1249 32.0758 74.1689 31.6897 74.2074 31.2376L74.4216 28.6765H78.4434V34.2198H79.4158V36.9999H78.4434V35.1465H73.7623V36.9999H72.7899ZM74.4216 34.2198H77.4709V29.6032H75.3282L75.1633 31.2376C75.0947 31.9143 75.0095 32.5055 74.9079 33.0109C74.8062 33.5164 74.6441 33.9194 74.4216 34.2198Z" fill="#C9C9C9"/>
<path d="M80.7066 35.1465V28.6765H83.2944C83.9756 28.6765 84.5168 28.8338 84.9179 29.1483C85.319 29.4628 85.5195 29.8784 85.5195 30.3951C85.5195 30.7883 85.4055 31.093 85.1775 31.3092C84.9495 31.5226 84.6569 31.6672 84.2998 31.743C84.5333 31.7767 84.7599 31.861 84.9797 31.9958C85.2022 32.1306 85.3863 32.3159 85.5319 32.5518C85.6775 32.7849 85.7503 33.0713 85.7503 33.4111C85.7503 33.7425 85.6679 34.0387 85.503 34.2999C85.3382 34.561 85.102 34.7674 84.7943 34.9191C84.4866 35.0707 84.1185 35.1465 83.6899 35.1465H80.7066ZM81.6296 34.2367H83.6899C84.0251 34.2367 84.2874 34.1553 84.477 33.9924C84.6665 33.8295 84.7613 33.6077 84.7613 33.3269C84.7613 32.9927 84.6665 32.7301 84.477 32.5392C84.2874 32.3454 84.0251 32.2485 83.6899 32.2485H81.6296V34.2367ZM81.6296 31.3892H83.2944C83.5553 31.3892 83.7792 31.3527 83.966 31.2797C84.1528 31.2039 84.2957 31.0972 84.3946 30.9596C84.4962 30.8192 84.547 30.6535 84.547 30.4625C84.547 30.1901 84.4358 29.9767 84.2133 29.8223C83.9908 29.665 83.6845 29.5864 83.2944 29.5864H81.6296V31.3892Z" fill="#C9C9C9"/>
<path d="M88.1948 33.6807L91.2441 28.6765H92.3649V35.1465H91.3924V30.1424L88.3597 35.1465H87.2224V28.6765H88.1948V33.6807Z" fill="#C9C9C9"/>
<path d="M93.7505 35.1465L96.3217 31.861L93.7834 28.6765H94.9372L97.047 31.4398H97.5744V28.6765H98.5469V31.4398H99.0578L101.168 28.6765H102.321L99.7995 31.861L102.354 35.1465H101.184L99.0414 32.3665H98.5469V35.1465H97.5744V32.3665H97.0799L94.9207 35.1465H93.7505Z" fill="#C9C9C9"/>
<path d="M104.716 33.6807L107.766 28.6765H108.887V35.1465H107.914V30.1424L104.881 35.1465H103.744V28.6765H104.716V33.6807Z" fill="#C9C9C9"/>
<path d="M114.129 33.7986L116.338 28.6765H117.261L114.525 35.1465H113.733L111.047 28.6765H111.953L114.129 33.7986ZM111.64 28.6765V35.1465H110.668V28.6765H111.64ZM116.618 35.1465V28.6765H117.59V35.1465H116.618Z" fill="#C9C9C9"/>
<path d="M121.942 35.2813C121.37 35.2813 120.869 35.1423 120.438 34.8643C120.009 34.5863 119.674 34.1974 119.432 33.6975C119.193 33.1977 119.074 32.6136 119.074 31.9452C119.074 31.2713 119.193 30.683 119.432 30.1803C119.674 29.6776 120.009 29.2873 120.438 29.0093C120.869 28.7313 121.37 28.5923 121.942 28.5923C122.513 28.5923 123.013 28.7313 123.442 29.0093C123.873 29.2873 124.208 29.6776 124.447 30.1803C124.689 30.683 124.81 31.2713 124.81 31.9452C124.81 32.6136 124.689 33.1977 124.447 33.6975C124.208 34.1974 123.873 34.5863 123.442 34.8643C123.013 35.1423 122.513 35.2813 121.942 35.2813ZM121.942 34.3883C122.376 34.3883 122.733 34.2746 123.013 34.0471C123.293 33.8197 123.501 33.5206 123.635 33.1499C123.77 32.7793 123.837 32.3777 123.837 31.9452C123.837 31.5128 123.77 31.1098 123.635 30.7363C123.501 30.3628 123.293 30.061 123.013 29.8307C122.733 29.6004 122.376 29.4853 121.942 29.4853C121.508 29.4853 121.151 29.6004 120.87 29.8307C120.59 30.061 120.383 30.3628 120.248 30.7363C120.114 31.1098 120.046 31.5128 120.046 31.9452C120.046 32.3777 120.114 32.7793 120.248 33.1499C120.383 33.5206 120.59 33.8197 120.87 34.0471C121.151 34.2746 121.508 34.3883 121.942 34.3883Z" fill="#C9C9C9"/>
<path d="M128.865 35.2813C128.272 35.2813 127.761 35.1381 127.333 34.8517C126.904 34.5653 126.574 34.1707 126.344 33.668C126.113 33.1654 125.997 32.5911 125.997 31.9452C125.997 31.2881 126.116 30.7082 126.352 30.2056C126.591 29.7001 126.923 29.3056 127.349 29.0219C127.778 28.7355 128.278 28.5923 128.849 28.5923C129.294 28.5923 129.695 28.6765 130.052 28.845C130.409 29.0135 130.702 29.2494 130.93 29.5527C131.158 29.856 131.299 30.2098 131.354 30.6142H130.382C130.308 30.3193 130.143 30.0581 129.887 29.8307C129.635 29.6004 129.294 29.4853 128.865 29.4853C128.486 29.4853 128.154 29.5864 127.868 29.7886C127.585 29.9879 127.364 30.2702 127.205 30.6352C127.048 30.9975 126.97 31.4229 126.97 31.9115C126.97 32.4114 127.047 32.8467 127.201 33.2173C127.357 33.588 127.577 33.8758 127.86 34.0808C128.146 34.2858 128.481 34.3883 128.865 34.3883C129.118 34.3883 129.348 34.3434 129.554 34.2535C129.76 34.1637 129.934 34.0345 130.077 33.866C130.22 33.6975 130.321 33.4953 130.382 33.2595H131.354C131.299 33.6414 131.163 33.9854 130.946 34.2915C130.732 34.5947 130.448 34.8362 130.093 35.016C129.742 35.1929 129.332 35.2813 128.865 35.2813Z" fill="#C9C9C9"/>
<path d="M132.277 29.6032V28.6765H137.42V29.6032H135.343V35.1465H134.371V29.6032H132.277Z" fill="#C9C9C9"/>
<path d="M139.811 33.6807L142.86 28.6765H143.981V35.1465H143.008V30.1424L139.976 35.1465H138.838V28.6765H139.811V33.6807Z" fill="#C9C9C9"/>
</svg>
