<svg width="20" height="19" viewBox="0 0 20 19" fill="none" xmlns="http://www.w3.org/2000/svg">
<g id="Favorite" clip-path="url(#clip0_201_2671)">
<path id="Vector" d="M13.6 2C12.208 2 10.872 2.66213 10 3.70845C9.128 2.66213 7.792 2 6.4 2C3.936 2 2 3.9782 2 6.49591C2 9.58583 4.72 12.1035 8.84 15.9292L10 17L11.16 15.921C15.28 12.1035 18 9.58583 18 6.49591C18 3.9782 16.064 2 13.6 2ZM10.08 14.7112L10 14.7929L9.92 14.7112C6.112 11.188 3.6 8.85831 3.6 6.49591C3.6 4.86104 4.8 3.63488 6.4 3.63488C7.632 3.63488 8.832 4.44414 9.256 5.56403H10.752C11.168 4.44414 12.368 3.63488 13.6 3.63488C15.2 3.63488 16.4 4.86104 16.4 6.49591C16.4 8.85831 13.888 11.188 10.08 14.7112Z" fill="#B4A06B"/>
</g>
<defs>
<clipPath id="clip0_201_2671">
<rect width="20" height="19" fill="white"/>
</clipPath>
</defs>
</svg>
