<svg width="34" height="34" viewBox="0 0 34 34" fill="none" xmlns="http://www.w3.org/2000/svg">
<g clip-path="url(#clip0_1_647)">
<path d="M21.05 9C19.484 9 17.981 9.75041 17 10.9362C16.019 9.75041 14.516 9 12.95 9C10.178 9 8 11.242 8 14.0954C8 17.5973 11.06 20.4507 15.695 24.7864L17 26L18.305 24.7771C22.94 20.4507 26 17.5973 26 14.0954C26 11.242 23.822 9 21.05 9ZM17.09 23.406L17 23.4986L16.91 23.406C12.626 19.4131 9.8 16.7728 9.8 14.0954C9.8 12.2425 11.15 10.8529 12.95 10.8529C14.336 10.8529 15.686 11.77 16.163 13.0392H17.846C18.314 11.77 19.664 10.8529 21.05 10.8529C22.85 10.8529 24.2 12.2425 24.2 14.0954C24.2 16.7728 21.374 19.4131 17.09 23.406Z" fill="white"/>
</g>
<defs>
<clipPath id="clip0_1_647">
<rect width="34" height="34" fill="white"/>
</clipPath>
</defs>
</svg>
