<svg width="100" height="25" viewBox="0 0 100 25" fill="none" xmlns="http://www.w3.org/2000/svg">
<path d="M0.694153 12.564V0.169457H3.37912V5.28342H8.82965V0.169457H11.5084V12.564H8.82965V7.44399H3.37912V12.564H0.694153Z" fill="white"/>
<path d="M26.3525 6.36673C26.3525 7.71835 26.09 8.86823 25.565 9.81638C25.0441 10.7645 24.3331 11.4888 23.4319 11.9891C22.5348 12.4853 21.5262 12.7335 20.4059 12.7335C19.2773 12.7335 18.2645 12.4833 17.3675 11.983C16.4704 11.4827 15.7614 10.7585 15.2406 9.81033C14.7197 8.86218 14.4593 7.71431 14.4593 6.36673C14.4593 5.01511 14.7197 3.86523 15.2406 2.91708C15.7614 1.96893 16.4704 1.24672 17.3675 0.750452C18.2645 0.250151 19.2773 0 20.4059 0C21.5262 0 22.5348 0.250151 23.4319 0.750452C24.3331 1.24672 25.0441 1.96893 25.565 2.91708C26.09 3.86523 26.3525 5.01511 26.3525 6.36673ZM23.6303 6.36673C23.6303 5.4912 23.496 4.75286 23.2272 4.15169C22.9627 3.55052 22.5886 3.0946 22.1049 2.78393C21.6212 2.47326 21.0549 2.31793 20.4059 2.31793C19.7568 2.31793 19.1905 2.47326 18.7068 2.78393C18.2232 3.0946 17.847 3.55052 17.5783 4.15169C17.3137 4.75286 17.1814 5.4912 17.1814 6.36673C17.1814 7.24226 17.3137 7.9806 17.5783 8.58177C17.847 9.18294 18.2232 9.63886 18.7068 9.94953C19.1905 10.2602 19.7568 10.4155 20.4059 10.4155C21.0549 10.4155 21.6212 10.2602 22.1049 9.94953C22.5886 9.63886 22.9627 9.18294 23.2272 8.58177C23.496 7.9806 23.6303 7.24226 23.6303 6.36673Z" fill="white"/>
<path d="M29.3018 0.169457H32.613L36.1103 8.49704H36.2591L39.7564 0.169457H43.0676V12.564H40.4633V4.49665H40.3579L37.0714 12.5035H35.298L32.0115 4.46639H31.9061V12.564H29.3018V0.169457Z" fill="white"/>
<path d="M46.2402 12.564V0.169457H54.7973V2.33003H48.9251V5.28342H54.3571V7.44399H48.9251V10.4034H54.8221V12.564H46.2402Z" fill="white"/>
<path d="M57.8923 12.564V0.169457H60.5773V10.4034H66.0216V12.564H57.8923Z" fill="white"/>
<path d="M71.4451 0.169457V12.564H68.7601V0.169457H71.4451Z" fill="white"/>
<path d="M83.0352 4.1759C82.9484 3.88137 82.8265 3.62113 82.6694 3.39519C82.5123 3.16521 82.3201 2.97154 82.0927 2.81419C81.8695 2.6528 81.6132 2.52975 81.3238 2.44502C81.0386 2.36029 80.7223 2.31793 80.3751 2.31793C79.7261 2.31793 79.1556 2.47528 78.6637 2.78998C78.1759 3.10469 77.7955 3.56263 77.5227 4.16379C77.2499 4.76093 77.1134 5.4912 77.1134 6.35463C77.1134 7.21805 77.2478 7.95236 77.5165 8.55756C77.7852 9.16277 78.1655 9.62474 78.6575 9.94348C79.1494 10.2582 79.7302 10.4155 80.3999 10.4155C81.0076 10.4155 81.5264 10.3106 81.9563 10.1008C82.3904 9.88699 82.7211 9.58641 82.9484 9.19908C83.1799 8.81175 83.2957 8.35381 83.2957 7.82527L83.8414 7.90394H80.5673V5.93098H85.8814V7.49241C85.8814 8.58177 85.6458 9.51782 85.1745 10.3005C84.7033 11.0792 84.0542 11.6804 83.2275 12.1041C82.4007 12.5237 81.454 12.7335 80.3875 12.7335C79.1969 12.7335 78.1511 12.4773 77.2499 11.9649C76.3487 11.4484 75.6459 10.7161 75.1416 9.76797C74.6414 8.81578 74.3913 7.68607 74.3913 6.37883C74.3913 5.3742 74.5401 4.4785 74.8377 3.69174C75.1395 2.90094 75.5612 2.23118 76.1027 1.68246C76.6442 1.13375 77.2747 0.716156 77.994 0.429694C78.7133 0.143231 79.4925 0 80.3317 0C81.051 0 81.7207 0.102885 82.3408 0.308654C82.9608 0.510388 83.5106 0.79685 83.9902 1.16804C84.4738 1.53923 84.8686 1.98103 85.1745 2.49343C85.4804 3.0018 85.6768 3.56263 85.7636 4.1759H83.0352Z" fill="white"/>
<path d="M90.6553 12.564H87.7781L92.1621 0.169457H95.6222L100 12.564H97.1228L93.9418 3.0018H93.8426L90.6553 12.564ZM90.4755 7.69212H97.2716V9.73771H90.4755V7.69212Z" fill="white"/>
<path d="M1.4948 23.8501C1.21714 23.8501 0.965152 23.7979 0.73884 23.6936C0.512529 23.5873 0.332811 23.4346 0.199687 23.2353C0.0665622 23.0342 0 22.7913 0 22.5067C0 22.2563 0.0494462 22.0533 0.148339 21.8977C0.247231 21.7402 0.379404 21.6169 0.544859 21.5277C0.710313 21.4385 0.892884 21.3721 1.09257 21.3284C1.29416 21.2829 1.4967 21.2469 1.70019 21.2203C1.96644 21.1861 2.18229 21.1605 2.34774 21.1434C2.5151 21.1245 2.63681 21.0932 2.71288 21.0495C2.79086 21.0059 2.82984 20.93 2.82984 20.8218V20.7991C2.82984 20.5183 2.75282 20.3001 2.59878 20.1445C2.44664 19.9889 2.21557 19.9111 1.90558 19.9111C1.58418 19.9111 1.33219 19.9813 1.14962 20.1217C0.967053 20.2621 0.838683 20.412 0.764514 20.5714L0.125517 20.3437C0.239624 20.0781 0.391766 19.8712 0.581944 19.7232C0.774023 19.5733 0.983218 19.469 1.20953 19.4102C1.43774 19.3495 1.66215 19.3191 1.88276 19.3191C2.02349 19.3191 2.18514 19.3362 2.36771 19.3703C2.55218 19.4026 2.73 19.4699 2.90116 19.5724C3.07422 19.6749 3.21781 19.8295 3.33191 20.0363C3.44602 20.2431 3.50307 20.5201 3.50307 20.8674V23.7476H2.82984V23.1556H2.79561C2.74997 23.2505 2.6739 23.352 2.5674 23.4602C2.4609 23.5683 2.31922 23.6604 2.14235 23.7363C1.96549 23.8121 1.74963 23.8501 1.4948 23.8501ZM1.59749 23.2467C1.86374 23.2467 2.08815 23.1945 2.27072 23.0902C2.45519 22.9858 2.59402 22.8511 2.68721 22.686C2.7823 22.521 2.82984 22.3474 2.82984 22.1652V21.5504C2.80132 21.5846 2.73856 21.6159 2.64157 21.6444C2.54648 21.6709 2.43618 21.6946 2.31066 21.7155C2.18704 21.7345 2.06628 21.7516 1.94837 21.7667C1.83236 21.78 1.73822 21.7914 1.66596 21.8009C1.49099 21.8237 1.32744 21.8607 1.1753 21.9119C1.02506 21.9612 0.903344 22.0362 0.810157 22.1367C0.718871 22.2354 0.673229 22.3701 0.673229 22.5409C0.673229 22.7743 0.75976 22.9507 0.932821 23.0703C1.10778 23.1879 1.32934 23.2467 1.59749 23.2467Z" fill="#F3F3F3"/>
<path d="M7.43618 19.376V20.0022H5.40509V23.7476H4.73186V19.376H7.43618Z" fill="#F3F3F3"/>
<path d="M10.0285 23.8387C9.60635 23.8387 9.24216 23.7457 8.93597 23.5598C8.63169 23.372 8.39682 23.1101 8.23136 22.7743C8.06781 22.4365 7.98603 22.0438 7.98603 21.596C7.98603 21.1482 8.06781 20.7535 8.23136 20.412C8.39682 20.0686 8.62693 19.801 8.92171 19.6094C9.21839 19.4159 9.56451 19.3191 9.96008 19.3191C10.1883 19.3191 10.4137 19.357 10.6362 19.4329C10.8587 19.5088 11.0612 19.6322 11.2438 19.8029C11.4263 19.9718 11.5718 20.1957 11.6802 20.4746C11.7886 20.7535 11.8428 21.097 11.8428 21.5049V21.7895H8.46528V21.2089H11.1582C11.1582 20.9622 11.1088 20.7421 11.0099 20.5486C10.9129 20.3551 10.774 20.2023 10.5934 20.0904C10.4146 19.9784 10.2035 19.9225 9.96008 19.9225C9.69193 19.9225 9.45991 19.9889 9.26403 20.1217C9.07005 20.2526 8.92076 20.4234 8.81616 20.634C8.71156 20.8446 8.65926 21.0704 8.65926 21.3114V21.6984C8.65926 22.0286 8.71632 22.3085 8.83042 22.538C8.94643 22.7657 9.10713 22.9393 9.31252 23.0589C9.51792 23.1765 9.75659 23.2353 10.0285 23.2353C10.2054 23.2353 10.3652 23.2107 10.5078 23.1613C10.6523 23.1101 10.7769 23.0342 10.8815 22.9337C10.9861 22.8312 11.0669 22.7041 11.124 22.5523L11.7744 22.7344C11.7059 22.9545 11.5909 23.1481 11.4292 23.315C11.2675 23.4801 11.0679 23.6091 10.8301 23.7021C10.5924 23.7932 10.3252 23.8387 10.0285 23.8387Z" fill="#F3F3F3"/>
<path d="M15.7995 21.2544V21.8806H13.3804V21.2544H15.7995ZM13.5402 19.376V23.7476H12.8669V19.376H13.5402ZM16.313 19.376V23.7476H15.6397V19.376H16.313Z" fill="#F3F3F3"/>
<path d="M16.9463 20.0022V19.376H20.5064V20.0022H19.0686V23.7476H18.3954V20.0022H16.9463Z" fill="#F3F3F3"/>
<path d="M23.041 23.8387C22.6302 23.8387 22.2765 23.7419 21.9798 23.5484C21.6831 23.3549 21.4549 23.0883 21.2951 22.7487C21.1354 22.409 21.0555 22.021 21.0555 21.5846C21.0555 21.1406 21.1373 20.7488 21.3008 20.4092C21.4663 20.0676 21.6964 19.801 21.9912 19.6094C22.2879 19.4159 22.634 19.3191 23.0296 19.3191C23.3376 19.3191 23.6153 19.376 23.8625 19.4899C24.1098 19.6037 24.3123 19.7631 24.4702 19.968C24.628 20.1729 24.7259 20.412 24.764 20.6852H24.0908C24.0394 20.486 23.9253 20.3095 23.7484 20.1558C23.5735 20.0003 23.3376 19.9225 23.041 19.9225C22.7785 19.9225 22.5484 19.9908 22.3506 20.1274C22.1547 20.2621 22.0017 20.4528 21.8913 20.6995C21.7829 20.9442 21.7287 21.2317 21.7287 21.5618C21.7287 21.8996 21.782 22.1937 21.8885 22.4441C21.9969 22.6946 22.149 22.8891 22.3449 23.0276C22.5427 23.1661 22.7747 23.2353 23.041 23.2353C23.2159 23.2353 23.3747 23.205 23.5174 23.1443C23.66 23.0835 23.7808 22.9963 23.8797 22.8824C23.9785 22.7686 24.0489 22.632 24.0908 22.4726H24.764C24.7259 22.7306 24.6318 22.9631 24.4816 23.1699C24.3332 23.3748 24.1364 23.538 23.8911 23.6594C23.6476 23.7789 23.3643 23.8387 23.041 23.8387Z" fill="#F3F3F3"/>
<path d="M25.403 20.0022V19.376H28.9631V20.0022H27.5254V23.7476H26.8521V20.0022H25.403Z" fill="#F3F3F3"/>
<path d="M29.9451 23.7476V19.376H31.7366C32.2082 19.376 32.5829 19.4823 32.8606 19.6948C33.1382 19.9073 33.277 20.1881 33.277 20.5372C33.277 20.8029 33.1981 21.0087 33.0403 21.1548C32.8824 21.299 32.6799 21.3968 32.4327 21.448C32.5943 21.4707 32.7512 21.5277 32.9033 21.6187C33.0574 21.7098 33.1848 21.8351 33.2856 21.9944C33.3864 22.1519 33.4368 22.3455 33.4368 22.575C33.4368 22.7989 33.3797 22.9991 33.2656 23.1756C33.1515 23.352 32.988 23.4915 32.775 23.5939C32.562 23.6964 32.3071 23.7476 32.0105 23.7476H29.9451ZM30.5841 23.1329H32.0105C32.2425 23.1329 32.4241 23.0779 32.5553 22.9678C32.6865 22.8578 32.7522 22.7079 32.7522 22.5181C32.7522 22.2923 32.6865 22.1149 32.5553 21.9859C32.4241 21.855 32.2425 21.7895 32.0105 21.7895H30.5841V23.1329ZM30.5841 21.2089H31.7366C31.9173 21.2089 32.0723 21.1842 32.2016 21.1349C32.3309 21.0837 32.4298 21.0116 32.4983 20.9186C32.5686 20.8237 32.6038 20.7118 32.6038 20.5828C32.6038 20.3987 32.5268 20.2545 32.3727 20.1502C32.2187 20.0439 32.0067 19.9908 31.7366 19.9908H30.5841V21.2089Z" fill="#F3F3F3"/>
<path d="M36.236 23.8387C35.8404 23.8387 35.4933 23.7448 35.1947 23.5569C34.8981 23.3691 34.6661 23.1063 34.4987 22.7686C34.3332 22.4308 34.2505 22.0362 34.2505 21.5846C34.2505 21.1292 34.3332 20.7317 34.4987 20.3921C34.6661 20.0524 34.8981 19.7887 35.1947 19.6009C35.4933 19.413 35.8404 19.3191 36.236 19.3191C36.6315 19.3191 36.9777 19.413 37.2743 19.6009C37.5729 19.7887 37.8049 20.0524 37.9704 20.3921C38.1377 20.7317 38.2214 21.1292 38.2214 21.5846C38.2214 22.0362 38.1377 22.4308 37.9704 22.7686C37.8049 23.1063 37.5729 23.3691 37.2743 23.5569C36.9777 23.7448 36.6315 23.8387 36.236 23.8387ZM36.236 23.2353C36.5365 23.2353 36.7837 23.1585 36.9777 23.0048C37.1716 22.8511 37.3152 22.649 37.4084 22.3986C37.5016 22.1481 37.5482 21.8768 37.5482 21.5846C37.5482 21.2924 37.5016 21.0201 37.4084 20.7678C37.3152 20.5154 37.1716 20.3114 36.9777 20.1558C36.7837 20.0003 36.5365 19.9225 36.236 19.9225C35.9355 19.9225 35.6883 20.0003 35.4943 20.1558C35.3003 20.3114 35.1567 20.5154 35.0635 20.7678C34.9703 21.0201 34.9237 21.2924 34.9237 21.5846C34.9237 21.8768 34.9703 22.1481 35.0635 22.3986C35.1567 22.649 35.3003 22.8511 35.4943 23.0048C35.6883 23.1585 35.9355 23.2353 36.236 23.2353Z" fill="#F3F3F3"/>
<path d="M44.4409 21.2544V21.8806H42.0219V21.2544H44.4409ZM42.1816 19.376V23.7476H41.5084V19.376H42.1816ZM44.9544 19.376V23.7476H44.2812V19.376H44.9544Z" fill="#F3F3F3"/>
<path d="M48.021 23.8387C47.5988 23.8387 47.2347 23.7457 46.9285 23.5598C46.6242 23.372 46.3893 23.1101 46.2239 22.7743C46.0603 22.4365 45.9785 22.0438 45.9785 21.596C45.9785 21.1482 46.0603 20.7535 46.2239 20.412C46.3893 20.0686 46.6194 19.801 46.9142 19.6094C47.2109 19.4159 47.557 19.3191 47.9526 19.3191C48.1808 19.3191 48.4062 19.357 48.6287 19.4329C48.8512 19.5088 49.0537 19.6322 49.2363 19.8029C49.4188 19.9718 49.5643 20.1957 49.6727 20.4746C49.7811 20.7535 49.8353 21.097 49.8353 21.5049V21.7895H46.4578V21.2089H49.1507C49.1507 20.9622 49.1012 20.7421 49.0024 20.5486C48.9054 20.3551 48.7665 20.2023 48.5859 20.0904C48.4071 19.9784 48.196 19.9225 47.9526 19.9225C47.6844 19.9225 47.4524 19.9889 47.2565 20.1217C47.0625 20.2526 46.9133 20.4234 46.8087 20.634C46.7041 20.8446 46.6518 21.0704 46.6518 21.3114V21.6984C46.6518 22.0286 46.7088 22.3085 46.8229 22.538C46.9389 22.7657 47.0996 22.9393 47.305 23.0589C47.5104 23.1765 47.7491 23.2353 48.021 23.2353C48.1979 23.2353 48.3577 23.2107 48.5003 23.1613C48.6448 23.1101 48.7694 23.0342 48.874 22.9337C48.9786 22.8312 49.0594 22.7041 49.1165 22.5523L49.7669 22.7344C49.6984 22.9545 49.5834 23.1481 49.4217 23.315C49.26 23.4801 49.0604 23.6091 48.8226 23.7021C48.5849 23.7932 48.3177 23.8387 48.021 23.8387Z" fill="#F3F3F3"/>
<path d="M50.3916 24.9999V23.1215H50.7567C50.8461 23.0285 50.9232 22.928 50.9878 22.8198C51.0525 22.7117 51.1086 22.5836 51.1561 22.4356C51.2056 22.2857 51.2474 22.1035 51.2816 21.8891C51.3159 21.6728 51.3463 21.4119 51.3729 21.1064L51.5213 19.376H54.3055V23.1215H54.9787V24.9999H54.3055V23.7476H51.0648V24.9999H50.3916ZM51.5213 23.1215H53.6322V20.0022H52.1488L52.0347 21.1064C51.9872 21.5637 51.9282 21.9631 51.8579 22.3047C51.7875 22.6462 51.6753 22.9185 51.5213 23.1215Z" fill="#F3F3F3"/>
<path d="M55.8723 23.7476V19.376H57.6638C58.1354 19.376 58.5101 19.4823 58.7877 19.6948C59.0654 19.9073 59.2042 20.1881 59.2042 20.5372C59.2042 20.8029 59.1253 21.0087 58.9674 21.1548C58.8096 21.299 58.607 21.3968 58.3598 21.448C58.5215 21.4707 58.6784 21.5277 58.8305 21.6187C58.9845 21.7098 59.112 21.8351 59.2128 21.9944C59.3136 22.1519 59.3639 22.3455 59.3639 22.575C59.3639 22.7989 59.3069 22.9991 59.1928 23.1756C59.0787 23.352 58.9151 23.4915 58.7021 23.5939C58.4891 23.6964 58.2343 23.7476 57.9376 23.7476H55.8723ZM56.5113 23.1329H57.9376C58.1696 23.1329 58.3513 23.0779 58.4825 22.9678C58.6137 22.8578 58.6793 22.7079 58.6793 22.5181C58.6793 22.2923 58.6137 22.1149 58.4825 21.9859C58.3513 21.855 58.1696 21.7895 57.9376 21.7895H56.5113V23.1329ZM56.5113 21.2089H57.6638C57.8444 21.2089 57.9994 21.1842 58.1287 21.1349C58.2581 21.0837 58.357 21.0116 58.4254 20.9186C58.4958 20.8237 58.531 20.7118 58.531 20.5828C58.531 20.3987 58.4539 20.2545 58.2999 20.1502C58.1459 20.0439 57.9338 19.9908 57.6638 19.9908H56.5113V21.2089Z" fill="#F3F3F3"/>
<path d="M61.0563 22.7572L63.1673 19.376H63.9432V23.7476H63.27V20.3665L61.1704 23.7476H60.3831V19.376H61.0563V22.7572Z" fill="#F3F3F3"/>
<path d="M64.9024 23.7476L66.6825 21.5277L64.9252 19.376H65.724L67.1845 21.2431H67.5497V19.376H68.2229V21.2431H68.5766L70.0372 19.376H70.8359L69.0901 21.5277L70.8588 23.7476H70.0486L68.5652 21.8692H68.2229V23.7476H67.5497V21.8692H67.2074L65.7126 23.7476H64.9024Z" fill="#F3F3F3"/>
<path d="M72.494 22.7572L74.605 19.376H75.381V23.7476H74.7077V20.3665L72.6082 23.7476H71.8208V19.376H72.494V22.7572Z" fill="#F3F3F3"/>
<path d="M79.0103 22.8369L80.5393 19.376H81.1783L79.2841 23.7476H78.7364L76.8765 19.376H77.504L79.0103 22.8369ZM77.2872 19.376V23.7476H76.614V19.376H77.2872ZM80.7333 23.7476V19.376H81.4065V23.7476H80.7333Z" fill="#F3F3F3"/>
<path d="M84.4189 23.8387C84.0233 23.8387 83.6763 23.7448 83.3777 23.5569C83.081 23.3691 82.849 23.1063 82.6816 22.7686C82.5162 22.4308 82.4334 22.0362 82.4334 21.5846C82.4334 21.1292 82.5162 20.7317 82.6816 20.3921C82.849 20.0524 83.081 19.7887 83.3777 19.6009C83.6763 19.413 84.0233 19.3191 84.4189 19.3191C84.8145 19.3191 85.1606 19.413 85.4573 19.6009C85.7559 19.7887 85.9879 20.0524 86.1533 20.3921C86.3207 20.7317 86.4044 21.1292 86.4044 21.5846C86.4044 22.0362 86.3207 22.4308 86.1533 22.7686C85.9879 23.1063 85.7559 23.3691 85.4573 23.5569C85.1606 23.7448 84.8145 23.8387 84.4189 23.8387ZM84.4189 23.2353C84.7194 23.2353 84.9666 23.1585 85.1606 23.0048C85.3546 22.8511 85.4982 22.649 85.5913 22.3986C85.6845 22.1481 85.7311 21.8768 85.7311 21.5846C85.7311 21.2924 85.6845 21.0201 85.5913 20.7678C85.4982 20.5154 85.3546 20.3114 85.1606 20.1558C84.9666 20.0003 84.7194 19.9225 84.4189 19.9225C84.1184 19.9225 83.8712 20.0003 83.6772 20.1558C83.4832 20.3114 83.3396 20.5154 83.2465 20.7678C83.1533 21.0201 83.1067 21.2924 83.1067 21.5846C83.1067 21.8768 83.1533 22.1481 83.2465 22.3986C83.3396 22.649 83.4832 22.8511 83.6772 23.0048C83.8712 23.1585 84.1184 23.2353 84.4189 23.2353Z" fill="#F3F3F3"/>
<path d="M89.2121 23.8387C88.8013 23.8387 88.4476 23.7419 88.1509 23.5484C87.8542 23.3549 87.626 23.0883 87.4663 22.7487C87.3065 22.409 87.2266 22.021 87.2266 21.5846C87.2266 21.1406 87.3084 20.7488 87.472 20.4092C87.6374 20.0676 87.8675 19.801 88.1623 19.6094C88.459 19.4159 88.8051 19.3191 89.2007 19.3191C89.5088 19.3191 89.7864 19.376 90.0337 19.4899C90.2809 19.6037 90.4834 19.7631 90.6413 19.968C90.7991 20.1729 90.8971 20.412 90.9351 20.6852H90.2619C90.2105 20.486 90.0964 20.3095 89.9196 20.1558C89.7446 20.0003 89.5088 19.9225 89.2121 19.9225C88.9496 19.9225 88.7195 19.9908 88.5217 20.1274C88.3259 20.2621 88.1728 20.4528 88.0625 20.6995C87.9541 20.9442 87.8999 21.2317 87.8999 21.5618C87.8999 21.8996 87.9531 22.1937 88.0596 22.4441C88.168 22.6946 88.3202 22.8891 88.516 23.0276C88.7138 23.1661 88.9458 23.2353 89.2121 23.2353C89.3871 23.2353 89.5459 23.205 89.6885 23.1443C89.8311 23.0835 89.9519 22.9963 90.0508 22.8824C90.1497 22.7686 90.22 22.632 90.2619 22.4726H90.9351C90.8971 22.7306 90.8029 22.9631 90.6527 23.1699C90.5043 23.3748 90.3075 23.538 90.0622 23.6594C89.8188 23.7789 89.5354 23.8387 89.2121 23.8387Z" fill="#F3F3F3"/>
<path d="M91.5741 20.0022V19.376H95.1342V20.0022H93.6965V23.7476H93.0233V20.0022H91.5741Z" fill="#F3F3F3"/>
<path d="M96.7895 22.7572L98.9005 19.376H99.6764V23.7476H99.0032V20.3665L96.9036 23.7476H96.1163V19.376H96.7895V22.7572Z" fill="#F3F3F3"/>
</svg>
