<svg width="40" height="45" viewBox="0 0 40 45" fill="none" xmlns="http://www.w3.org/2000/svg">
<g clip-path="url(#clip0_455_3881)">
<path fill-rule="evenodd" clip-rule="evenodd" d="M19.9831 0.000196171C19.9963 -0.000109717 20.0095 -5.78782e-05 20.0227 0.000351688C20.66 0.0201108 21.2644 0.318745 21.7039 0.83107C22.1414 1.34108 22.3802 2.02161 22.3689 2.7253C22.3677 3.06708 22.3065 3.40536 22.1886 3.72118C22.0695 4.04001 21.895 4.32971 21.675 4.57374C21.6037 4.65285 21.5281 4.72666 21.4486 4.79479C25.2467 5.09316 28.9741 6.5704 31.869 9.25908C35.1484 12.3049 37.3153 16.8675 37.3153 22.8754V23.0506H39.1878C39.4205 23.0506 39.6419 23.1613 39.7961 23.3546C39.9503 23.5479 40.0223 23.8052 39.994 24.0614C39.7834 25.9649 38.2194 27.1225 36.7725 27.786C35.6474 28.302 34.3899 28.617 33.3215 28.7637C33.3643 28.9696 33.3673 29.1848 33.3349 29.3982C33.2768 29.7813 33.1091 30.1508 32.8889 30.4994C32.75 30.8212 32.5355 31.1625 32.321 31.4756C32.0742 31.8356 31.7808 32.224 31.4925 32.5995C31.4099 32.7071 31.3285 32.8127 31.2487 32.9162C30.7438 33.5714 30.3067 34.1385 30.0834 34.5311L30.0825 34.5326C29.0733 36.2992 28.3516 38.2484 27.9501 40.2914L30.4336 39.492C30.8644 39.3534 31.3149 39.6284 31.4399 40.1063C31.5649 40.5842 31.317 41.084 30.8862 41.2227L19.2224 44.9768C18.7916 45.1155 18.341 44.8405 18.216 44.3626C18.0911 43.8847 18.339 43.3849 18.7697 43.2462L20.3101 42.7504C20.2086 42.4573 20.0318 42.1038 19.7613 41.6925C19.2967 40.9856 18.6463 40.2429 17.952 39.5427C16.8847 38.4665 15.8524 37.6169 15.2638 37.1325C15.0693 36.9724 14.9232 36.8522 14.8403 36.7769L10.2642 32.7006C9.50257 32.0204 9.02031 31.2546 8.84168 30.4696C8.71276 29.903 8.74841 29.3426 8.93659 28.8571H7.72702C7.71745 28.8571 7.70789 28.8569 7.69833 28.8565C6.49627 28.8094 4.74632 28.4683 3.23457 27.7713C1.79121 27.1059 0.217822 25.9495 0.00621931 24.0629C-0.0225347 23.8065 0.0492948 23.5488 0.203464 23.3551C0.357633 23.1615 0.579309 23.0506 0.812187 23.0506H2.696V22.8754C2.696 16.8645 4.86278 12.301 8.14231 9.25552C11.0345 6.56975 14.7576 5.09409 18.5518 4.79512C18.4722 4.7269 18.3964 4.65298 18.325 4.57374C18.105 4.32972 17.9305 4.04002 17.8115 3.72118C17.6939 3.40631 17.6327 3.06911 17.6312 2.72839C17.6237 2.38111 17.6776 2.03551 17.7897 1.71106C17.9032 1.38259 18.0741 1.0823 18.2927 0.827493C18.5113 0.572683 18.7732 0.368395 19.0634 0.226406C19.3535 0.0844178 19.666 0.00753682 19.9831 0.000196171ZM4.32037 23.0506H35.6909V22.8754C35.6909 17.3956 33.7334 13.3408 30.8263 10.6408C27.9007 7.92364 23.9695 6.54083 20.0055 6.54008C16.0415 6.53933 12.1104 7.92064 9.18497 10.6373C6.27795 13.3369 4.32037 17.3923 4.32037 22.8754V23.0506ZM11.9501 29.8478C11.1231 28.9752 10.5929 29.3212 10.4892 29.4597C10.4172 29.5556 10.3497 29.7343 10.4166 30.0285C10.4862 30.3341 10.7125 30.7874 11.2816 31.2958L15.8694 35.3825C15.8914 35.4026 15.959 35.4582 16.0633 35.5437C16.5565 35.9479 17.8689 37.0237 19.0446 38.2093C19.7758 38.9467 20.5165 39.783 21.0738 40.6306C21.3966 41.1217 21.6951 41.6716 21.8733 42.2473L26.5128 40.754C26.3615 40.5494 26.2925 40.2731 26.3461 39.9942C26.7846 37.7142 27.5849 35.5388 28.7096 33.5695M11.9501 29.8478C11.9637 29.8625 13.1273 31.0918 13.1413 31.1062C13.1515 31.1167 13.1619 31.1269 13.1726 31.1369L16.6582 34.378C17.002 34.6976 17.5142 34.6476 17.8024 34.2662C18.0905 33.8849 18.0454 33.3166 17.7017 32.9969L14.2358 29.7742L14.2249 29.7626C14.0673 29.5906 14.088 29.5011 14.0912 29.4874L14.0915 29.4862C14.1023 29.4289 14.1651 29.2861 14.3683 29.1535C14.7569 28.8999 15.422 28.8525 15.989 29.4982L19.1809 33.1393C19.4936 33.496 20.0078 33.504 20.3294 33.157C20.6509 32.8101 20.6581 32.2397 20.3454 31.883L18.1967 29.4319C18.1633 29.3726 18.1232 29.3167 18.0763 29.2655C18.0714 29.2602 18.0668 29.2551 18.0626 29.2502C18.0737 29.2399 18.0868 29.2285 18.1021 29.2163C18.1775 29.1563 18.2884 29.0918 18.4342 29.0385C19.0546 28.8114 19.9178 28.9061 20.4814 29.5391C21.0853 30.2209 21.5529 30.86 21.9701 31.4349C21.9908 31.4634 22.0115 31.4919 22.0322 31.5204C22.4124 32.0449 22.789 32.5642 23.1826 32.951C23.6227 33.3834 24.1475 33.7165 24.8238 33.7525C25.4679 33.7867 26.1332 33.5438 26.8551 33.1196L26.8566 33.1187C27.4365 32.7762 27.7989 32.3358 28.091 31.875C28.2177 31.6751 28.3362 31.4631 28.4462 31.266C28.4565 31.2476 28.4668 31.2292 28.4769 31.2111C28.5998 30.9914 28.7211 30.7772 28.8634 30.5544L28.8694 30.5449C29.0342 30.2798 29.3797 29.9828 29.8683 29.7363C30.3444 29.496 30.8686 29.3485 31.2947 29.3146C31.4352 29.3035 31.5524 29.3057 31.6456 29.3158C31.6165 29.371 31.578 29.4369 31.5272 29.514C31.4909 29.569 31.4604 29.6284 31.4362 29.691C31.3853 29.8229 31.2551 30.0533 31.0279 30.385C30.8107 30.7018 30.5429 31.0573 30.2559 31.431C30.1807 31.5291 30.1032 31.6294 30.0246 31.7311C29.5346 32.3657 29.0031 33.054 28.7105 33.568M22.1342 28.8571C22.5675 29.3867 22.9261 29.8787 23.2354 30.3048C23.6712 30.9053 23.9709 31.3184 24.2596 31.602C24.5231 31.8609 24.7097 31.9424 24.9016 31.9526C25.1256 31.9645 25.4852 31.8852 26.0938 31.5277C26.3822 31.3573 26.5667 31.147 26.7623 30.8384C26.8605 30.6835 26.9544 30.5155 27.0707 30.3075C27.0792 30.2923 27.0878 30.2768 27.0966 30.2611C27.2202 30.0401 27.3631 29.7866 27.5354 29.5168C27.6882 29.272 27.8762 29.0525 28.085 28.8571H22.1342ZM32.2584 27.0551H7.74179C6.7103 27.0124 5.1632 26.7091 3.85794 26.1073C3.05332 25.7363 2.45699 25.3089 2.08124 24.8526H37.9329C37.5593 25.3184 36.9611 25.7496 36.1519 26.1207C34.8516 26.7171 33.3045 27.0124 32.2584 27.0551ZM19.9972 1.80254C19.9013 1.80747 19.807 1.83205 19.719 1.87509C19.625 1.92108 19.5402 1.98726 19.4694 2.0698C19.3986 2.15235 19.3432 2.24963 19.3064 2.35603C19.2697 2.46243 19.2522 2.57585 19.2552 2.68976L19.2555 2.71552C19.2555 2.82398 19.2748 2.93138 19.3122 3.03158C19.3496 3.13178 19.4044 3.22283 19.4736 3.29953C19.5427 3.37622 19.6248 3.43706 19.7151 3.47857C19.8054 3.52007 19.9022 3.54144 20 3.54144C20.0978 3.54144 20.1946 3.52007 20.2849 3.47857C20.3752 3.43706 20.4573 3.37622 20.5264 3.29953C20.5956 3.22284 20.6504 3.13179 20.6878 3.03158C20.7252 2.93137 20.7445 2.82398 20.7445 2.71552L20.7447 2.69613C20.7492 2.46484 20.671 2.24096 20.5272 2.07338C20.388 1.91113 20.1983 1.8144 19.9972 1.80254ZM19.0186 8.75973C19.0186 8.26213 19.3822 7.85873 19.8308 7.85873C26.0513 7.85873 32.4571 11.7217 33.8264 19.6398C33.9109 20.1284 33.6223 20.6006 33.1818 20.6944C32.7413 20.7881 32.3156 20.468 32.2311 19.9793C31.0511 13.1559 25.5223 9.66074 19.8308 9.66074C19.3822 9.66074 19.0186 9.25734 19.0186 8.75973Z" fill="#2E2F36"/>
</g>
<defs>
<clipPath id="clip0_455_3881">
<rect width="40" height="45" fill="white"/>
</clipPath>
</defs>
</svg>
