<svg width="40" height="40" viewBox="0 0 40 40" fill="none" xmlns="http://www.w3.org/2000/svg">
<g clip-path="url(#clip0_455_3893)">
<path fill-rule="evenodd" clip-rule="evenodd" d="M9.63972 20.3129C8.98467 19.9168 8.19997 19.7942 7.45524 19.9717C7.44367 19.9744 7.43205 19.977 7.42038 19.9792C7.05925 20.0492 6.71571 20.1905 6.40983 20.3947C6.10396 20.599 5.8419 20.8621 5.63896 21.1688C5.43602 21.4754 5.29628 21.8194 5.22791 22.1807C5.16053 22.5367 5.16381 22.9025 5.23749 23.2571C5.42817 23.9911 5.89891 24.6216 6.54919 25.0132C7.20405 25.4075 7.98812 25.5278 8.73115 25.3478C8.74528 25.3444 8.75949 25.3413 8.77378 25.3386C9.13443 25.2708 9.47783 25.1315 9.78366 24.9288C10.0895 24.7261 10.3516 24.4642 10.5544 24.1585C10.7572 23.8529 10.8966 23.5097 10.9645 23.1492C11.0314 22.7936 11.0272 22.4282 10.9523 22.0742C10.7615 21.3386 10.2906 20.7064 9.63972 20.3129ZM7.08295 18.3345C8.25179 18.0607 9.48171 18.2551 10.5093 18.8764C11.5419 19.5008 12.2872 20.5062 12.5841 21.6754C12.5865 21.6848 12.5887 21.6943 12.5908 21.7038C12.7163 22.2815 12.7247 22.8785 12.6153 23.4595C12.5297 23.9144 12.3734 24.3523 12.1526 24.7574C12.5369 24.4921 12.973 24.302 13.438 24.2025C14.2648 24.0256 15.1252 24.1474 15.8678 24.5421C15.9435 24.5626 16.0167 24.5937 16.085 24.6353L21.0611 27.663L27.2992 24.2766C27.3583 24.2446 27.421 24.2197 27.4861 24.2026C28.1769 24.0206 28.9061 24.0461 29.5825 24.2758C29.657 24.3011 29.7276 24.3368 29.7921 24.3817L36.4316 29.0008C38.0925 30.153 38.8188 31.9275 38.4493 33.4239C38.2625 34.1805 37.7914 34.8454 37.0526 35.2342C36.3199 35.6198 35.413 35.6884 34.4186 35.4399C34.3138 35.4138 34.215 35.3676 34.1277 35.304L28.3682 31.11L21.913 34.6301C21.8613 34.6582 21.8069 34.6809 21.7505 34.6977C21.2437 34.8485 20.7104 34.8888 20.1867 34.8159C19.6662 34.7433 19.1672 34.5606 18.723 34.2798L12.3213 30.4004C11.9321 30.1727 11.5933 29.8683 11.3254 29.5057C11.0559 29.141 10.8637 28.7252 10.7607 28.2837C10.6576 27.8422 10.6459 27.3843 10.7262 26.9381C10.7761 26.6609 10.8608 26.3919 10.9778 26.1373C10.8917 26.204 10.8031 26.2677 10.712 26.328C10.2251 26.6507 9.67913 26.8738 9.10564 26.9845C7.93896 27.2612 6.70986 27.07 5.68229 26.4512C4.6485 25.8287 3.90215 24.8238 3.60529 23.6546C3.60267 23.6443 3.60025 23.6339 3.59802 23.6235C3.47452 23.0457 3.4675 22.4492 3.57736 21.8687C3.68723 21.2882 3.91177 20.7354 4.23788 20.2426C4.56398 19.7498 4.9851 19.327 5.47662 18.9988C5.96318 18.6739 6.50906 18.4482 7.08295 18.3345ZM28.004 25.8046L21.4381 29.3689C21.1751 29.5116 20.8561 29.5037 20.6005 29.3482L15.373 26.1676C15.3048 26.1472 15.2389 26.1179 15.1769 26.0801C14.7617 25.8269 14.2652 25.7425 13.7896 25.8442C13.3162 25.9455 12.8995 26.2235 12.6244 26.6214C12.5022 26.8074 12.4189 27.0162 12.3795 27.2352C12.3397 27.4565 12.3455 27.6835 12.3966 27.9024C12.4477 28.1213 12.5429 28.3274 12.6765 28.5082C12.8102 28.689 12.9793 28.8406 13.1736 28.9538L13.1864 28.9612L19.6012 32.8486L19.6165 32.8581C19.8597 33.0127 20.1332 33.1133 20.4187 33.1531C20.6774 33.1891 20.9404 33.1744 21.193 33.1102L28.0306 29.3816C28.3158 29.2262 28.665 29.2489 28.9275 29.4401L34.9778 33.8458C35.5909 33.9719 36.0081 33.8865 36.27 33.7486C36.5469 33.6029 36.7361 33.3552 36.8184 33.0216C36.9873 32.3378 36.6877 31.2221 35.4737 30.3799L28.9386 25.8335C28.6341 25.7485 28.3134 25.7386 28.004 25.8046ZM1.92983 27.4996C2.16909 27.1025 2.68521 26.9743 3.08261 27.2135L20.1367 37.4754L26.1596 34.4287C26.2371 34.3895 26.3202 34.3626 26.406 34.3488C26.7741 34.2899 27.1492 34.2899 27.5173 34.3488C27.5635 34.3562 27.609 34.3674 27.6532 34.3824L39.4345 38.3599C39.874 38.5082 40.1099 38.9846 39.9615 39.4238C39.813 39.863 39.3364 40.0988 38.8969 39.9504L27.1885 35.9976C27.0562 35.9811 26.9225 35.9791 26.7899 35.9915L20.4808 39.183C20.2228 39.3135 19.9159 39.3022 19.6682 39.1532L6.59587 31.2872C6.5772 31.3798 6.54244 31.4708 6.49061 31.5563L1.62027 39.5901C1.37989 39.9866 0.863415 40.1133 0.466685 39.8731C0.0699555 39.6328 -0.0567952 39.1167 0.18358 38.7201L5.05393 30.6863C5.10489 30.6023 5.16827 30.5303 5.24028 30.4715L2.21616 28.6518C1.81876 28.4126 1.69056 27.8968 1.92983 27.4996Z" fill="#2E2F36"/>
<path fill-rule="evenodd" clip-rule="evenodd" d="M19.9128 8.91867C20.3578 8.86433 20.7626 9.18083 20.817 9.62557L22.6998 25.0284C22.7541 25.4731 22.4374 25.8777 21.9925 25.932C21.5475 25.9864 21.1426 25.6699 21.0883 25.2251L19.2055 9.82233C19.1512 9.37758 19.4678 8.973 19.9128 8.91867Z" fill="#2E2F36"/>
<path fill-rule="evenodd" clip-rule="evenodd" d="M38.467 7.3334C34.3299 3.18796 27.0459 0.851117 19.04 1.84167C11.0315 2.83253 4.52911 6.84208 1.50659 11.8446C1.27485 12.2282 0.77589 12.3514 0.392127 12.1198C0.00836393 11.8881 -0.114878 11.3895 0.116859 11.0059C3.45285 5.48453 10.4567 1.26873 18.8405 0.231423C27.2269 -0.806197 35.05 1.61189 39.6164 6.18758C39.933 6.50481 39.9324 7.01847 39.615 7.33488C39.2975 7.65129 38.7836 7.65063 38.467 7.3334Z" fill="#2E2F36"/>
<path fill-rule="evenodd" clip-rule="evenodd" d="M30.8816 8.0964C28.1372 3.77241 23.6919 1.26743 19.0378 1.83061C14.3872 2.39337 10.6711 5.91611 9.04498 10.7809C8.90293 11.2058 8.44308 11.4352 8.01788 11.2933C7.59268 11.1513 7.36313 10.6917 7.50518 10.2668C9.28382 4.94561 13.4369 0.873977 18.8427 0.219838C24.245 -0.433885 29.2472 2.49212 32.2525 7.22729C32.4927 7.60564 32.3804 8.10691 32.0019 8.34691C31.6233 8.58691 31.1218 8.47475 30.8816 8.0964Z" fill="#2E2F36"/>
<path fill-rule="evenodd" clip-rule="evenodd" d="M19.6984 2.10047C19.3777 1.84859 19.1655 1.81514 19.0396 1.83066C18.9132 1.84623 18.7153 1.93033 18.4651 2.25232C18.2129 2.57686 17.9597 3.08077 17.7323 3.78036C17.2788 5.17561 16.9825 7.17635 16.8992 9.59423C16.8838 10.042 16.5081 10.3925 16.0601 10.3771C15.612 10.3617 15.2613 9.98622 15.2767 9.53844C15.3626 7.04364 15.6694 4.87536 16.1883 3.27906C16.4471 2.48288 16.7724 1.78538 17.1829 1.2571C17.5954 0.726277 18.1443 0.306153 18.841 0.220315C19.538 0.134423 20.1728 0.409428 20.7016 0.824802C21.2279 1.23822 21.7123 1.83658 22.1557 2.54668C23.0447 3.97044 23.8649 6.00009 24.5464 8.39821C24.6689 8.82922 24.4186 9.27785 23.9873 9.40026C23.5561 9.52267 23.1072 9.2725 22.9847 8.8415C22.3246 6.51849 21.5551 4.64955 20.7784 3.4057C20.389 2.782 20.0215 2.3543 19.6984 2.10047Z" fill="#2E2F36"/>
<path fill-rule="evenodd" clip-rule="evenodd" d="M39.9263 7.28141C39.9809 7.72613 39.6645 8.13087 39.2195 8.18543L0.989505 12.8728C0.544538 12.9273 0.139568 12.611 0.0849806 12.1663C0.030393 11.7216 0.346858 11.3168 0.791826 11.2623L39.0218 6.57497C39.4668 6.52041 39.8717 6.8367 39.9263 7.28141Z" fill="#2E2F36"/>
</g>
<defs>
<clipPath id="clip0_455_3893">
<rect width="40" height="40" fill="white"/>
</clipPath>
</defs>
</svg>
