<svg width="40" height="45" viewBox="0 0 40 45" fill="none" xmlns="http://www.w3.org/2000/svg">
<g clip-path="url(#clip0_455_3888)">
<path fill-rule="evenodd" clip-rule="evenodd" d="M26.436 1.74033C22.6781 1.74033 19.2373 5.65047 18.909 10.6316L18.9087 10.6366C18.8293 11.7542 18.9256 12.8791 19.1928 13.9582C19.2891 14.3466 19.1386 14.7596 18.8293 14.9556C16.0342 16.7274 14.7693 20.7585 15.1798 24.5213C15.5878 28.2611 17.59 31.3405 20.9895 31.5347C21.4101 31.5587 21.734 31.9673 21.7129 32.4472C21.6919 32.9272 21.3339 33.2968 20.9133 33.2728C16.5222 33.022 14.1307 28.9921 13.6664 24.7363C13.2276 20.7137 14.4561 16.1329 17.5831 13.7838C17.3764 12.7069 17.3105 11.5998 17.3884 10.4985C17.767 4.77271 21.746 0 26.436 0C30.5925 0 33.7268 3.74042 34.1803 8.53582C35.795 9.04601 37.143 10.3806 38.1175 12.0005C39.2138 13.8229 39.9 16.1025 39.9901 18.2835C40.0799 20.4587 39.5762 22.6536 38.1557 24.1376C37.5945 24.7238 36.9159 25.1727 36.1195 25.4649C36.3773 26.6678 36.5082 28.0678 36.1796 29.4577C35.387 32.8156 32.6466 34.3047 30.2579 34.159C29.8374 34.1333 29.5147 33.7235 29.5372 33.2436C29.5597 32.7637 29.9188 32.3955 30.3393 32.4211C32.188 32.5339 34.1447 31.3877 34.7071 29.005L34.7072 29.0046C34.9486 27.984 34.8596 26.8819 34.6233 25.8103C33.711 25.9128 32.6857 25.8545 31.5472 25.6172C31.1329 25.5308 30.8584 25.0776 30.9341 24.6048C31.0098 24.1321 31.407 23.8188 31.8212 23.9052C34.5068 24.465 36.1609 23.8622 37.1259 22.854C38.1044 21.8318 38.5433 20.2185 38.4667 18.3654C38.3904 16.5181 37.8012 14.5495 36.8603 12.9855C35.9154 11.4149 34.678 10.3477 33.3449 10.1068C32.9878 10.0423 32.7195 9.70057 32.7025 9.28848C32.5222 4.93866 29.8325 1.74033 26.436 1.74033ZM11.8272 3.10814C12.1543 3.09679 12.4512 3.3249 12.5652 3.67501C13.1637 5.51463 14.3987 7.9991 15.8576 9.71099C16.1512 10.0555 16.1445 10.6064 15.8427 10.9415C15.5408 11.2765 15.058 11.2689 14.7644 10.9244C13.638 9.60265 12.6518 7.90537 11.9322 6.31519C10.645 9.891 8.74627 12.3845 6.34353 13.9535C7.19021 14.4129 8.07232 14.7847 8.97934 15.064C9.20449 15.1334 9.38946 15.3164 9.48142 15.561C9.57338 15.8056 9.56221 16.0847 9.45111 16.3187C8.09676 19.171 6.60024 21.3288 4.3932 22.7682C5.35617 23.2979 6.36898 23.7048 7.41337 23.9805C7.65659 24.0447 7.85687 24.2407 7.94955 24.5053C8.04222 24.7698 8.01556 25.0694 7.87816 25.3072C6.34718 27.9576 4.99947 30.0233 2.52574 31.4041C6.43458 33.6157 11.3644 34.3409 16.2345 33.2214C16.6473 33.1265 17.0494 33.4315 17.1326 33.9026C17.2157 34.3737 16.9485 34.8326 16.5356 34.9275C10.7431 36.259 4.81201 35.1518 0.362542 32.0246C0.110363 31.8474 -0.0290701 31.5195 0.00493778 31.1838C0.0389457 30.848 0.240241 30.5651 0.521202 30.4582C3.17205 29.4495 4.5105 27.8405 6.01349 25.3535C4.72228 24.9046 3.48467 24.2703 2.3307 23.4648C2.08507 23.2934 1.94502 22.9786 1.96864 22.6511C1.99226 22.3236 2.17553 22.0393 2.44242 21.9159C4.73295 20.8576 6.25463 19.1024 7.64703 16.4235C6.47524 15.9795 5.34802 15.392 4.28529 14.6705C4.03778 14.5024 3.89435 14.1896 3.91451 13.8617C3.93467 13.5339 4.11499 13.247 4.38064 13.12C7.42799 11.6638 9.78206 8.75719 11.1207 3.72512C11.2158 3.36777 11.5001 3.11948 11.8272 3.10814ZM28.7862 7.54021C29.1558 7.7706 29.2917 8.29927 29.0899 8.72102C28.3852 10.1932 27.7866 12.6467 27.5283 15.159C27.2829 17.5456 27.3655 19.7874 27.8329 21.194C30.5426 20.2229 32.3322 19.2582 33.0538 16.9058C33.1929 16.4522 33.6279 16.2132 34.0254 16.3719C34.4229 16.5307 34.6323 17.0271 34.4932 17.4807C33.4703 20.8156 30.8201 21.9724 27.9933 22.9598L27.9709 40.0665C28.837 40.1999 29.6707 40.3533 30.4667 40.5249C33.6167 41.204 36.2381 42.1817 37.9419 43.3909C38.2995 43.6447 38.4091 44.1813 38.1867 44.5894C37.9643 44.9975 37.4941 45.1226 37.1365 44.8688C35.6683 43.8267 33.2626 42.8988 30.1836 42.235C27.1218 41.5749 23.4544 41.1887 19.5059 41.1887C11.8781 41.1887 5.38388 42.628 2.22968 44.6282C1.86157 44.8616 1.39735 44.7103 1.1928 44.2902C0.988256 43.8701 1.12085 43.3403 1.48896 43.1069C3.44021 41.8696 6.42173 40.8746 10.0138 40.2364V37.4843C10.0138 37.0037 10.3552 36.6141 10.7763 36.6141C11.1974 36.6141 11.5388 37.0037 11.5388 37.4843V39.9923C12.0803 39.9147 12.6334 39.845 13.1967 39.7833V37.2257C13.1967 36.7451 13.5381 36.3555 13.9592 36.3555C14.3803 36.3555 14.7217 36.7451 14.7217 37.2257V39.6383C16.2602 39.5138 17.8628 39.4483 19.5059 39.4483C20.7493 39.4483 21.9672 39.4858 23.1501 39.5577C23.1547 38.7947 23.1758 37.7486 23.1992 36.5915L23.2048 36.318C23.2314 34.9996 23.2596 33.5507 23.27 32.1927C23.2804 30.831 23.2729 29.5781 23.2294 28.6476C23.2075 28.1787 23.1776 27.8176 23.1414 27.5742C23.1378 27.5499 23.1343 27.5279 23.1309 27.5082C22.785 27.2807 22.4578 27.1201 22.1236 26.9674C22.0605 26.9386 21.9956 26.9095 21.9294 26.8797C21.5965 26.7301 21.2283 26.5647 20.8718 26.3448C19.947 25.7745 19.1268 24.8665 18.2528 22.9131C18.0612 22.4851 18.21 21.961 18.5851 21.7424C18.9601 21.5239 19.4194 21.6937 19.6109 22.1217C20.3839 23.8491 21.0113 24.4527 21.5968 24.8138C21.8655 24.9794 22.1334 25.1002 22.4631 25.2488C22.5356 25.2815 22.6111 25.3156 22.6903 25.3517C23.1152 25.5458 23.5982 25.7824 24.1299 26.1634C24.13 26.1635 24.1301 26.1636 24.1303 26.1637C24.2831 26.2731 24.3739 26.4147 24.4233 26.506C24.4759 26.6034 24.5117 26.7007 24.5366 26.7802C24.5863 26.9384 24.6199 27.1146 24.645 27.2831C24.6958 27.6255 24.7294 28.065 24.7523 28.555C24.7983 29.5421 24.8055 30.8396 24.7949 32.208C24.7844 33.58 24.756 35.0406 24.7294 36.3581L24.724 36.6238C24.6995 37.837 24.6779 38.9059 24.6746 39.659C24.6746 39.663 24.6745 39.6669 24.6745 39.6709C25.2763 39.7239 25.8673 39.7859 26.4462 39.8565L26.4695 21.991C25.882 20.3718 25.7739 18.0867 25.9369 15.8315C25.8354 15.8008 25.7379 15.7454 25.6512 15.6648C25.0485 15.1038 24.4926 14.5144 24.0615 13.7753C23.6227 13.023 23.3358 12.1555 23.2145 11.065C23.1614 10.5883 23.4571 10.1527 23.8749 10.0922C24.2926 10.0316 24.6743 10.369 24.7274 10.8458C24.8217 11.6933 25.0337 12.3013 25.331 12.811C25.5444 13.1769 25.8127 13.5115 26.147 13.8586C26.4645 11.591 27.0347 9.38429 27.7515 7.88671C27.9534 7.46496 28.4167 7.30982 28.7862 7.54021ZM23.3192 27.6375C23.3192 27.6374 23.3192 27.6374 23.3191 27.6374L23.3192 27.6375Z" fill="#2E2F36"/>
</g>
<defs>
<clipPath id="clip0_455_3888">
<rect width="40" height="45" fill="white"/>
</clipPath>
</defs>
</svg>
