<svg width="206" height="127" viewBox="0 0 206 127" fill="none" xmlns="http://www.w3.org/2000/svg">
<path fill-rule="evenodd" clip-rule="evenodd" d="M166.382 123.492C164.817 125.306 164.817 125.79 164.937 126.153C164.937 126.516 165.058 126.637 165.299 126.758C165.539 126.879 165.901 127 166.142 127C166.382 127 166.744 127 166.984 126.879C167.225 126.758 167.466 126.516 169.152 124.46C170.959 122.283 174.21 118.291 177.1 114.058C179.99 109.945 182.519 105.591 184.928 100.511C187.336 95.4312 189.504 89.5045 190.829 84.0616C192.154 78.6188 192.756 73.7807 192.997 68.3378C193.237 62.895 193.117 57.0893 192.515 51.5254C191.913 45.9616 190.708 40.6397 188.902 35.1969C186.975 29.754 184.446 24.3112 183.001 20.9245C181.556 17.5378 181.315 16.4493 180.954 14.7559C180.472 13.0626 179.87 11.0064 177.823 8.58735C175.776 6.1683 172.404 3.50735 170.356 1.81402C168.309 0.120685 167.587 -0.363124 167.346 0.241637C167.105 0.846399 167.346 2.78164 168.791 5.68449C170.236 8.58735 173.006 12.3369 175.053 14.635C177.1 16.9331 178.545 17.5378 179.629 18.7474C180.713 19.8359 181.556 21.5293 182.76 24.1902C183.965 26.8512 185.41 30.6007 186.734 34.2293C188.059 37.8578 189.143 41.3654 189.865 45.5988C190.588 49.8321 191.07 54.9121 191.19 60.234C191.311 65.5559 191.07 70.9988 189.865 77.4093C188.661 83.8197 186.373 91.0769 183.483 97.6083C180.713 104.019 177.221 109.704 174.09 114.179C170.959 118.412 167.948 121.678 166.382 123.492Z" fill="#B4A06B"/>
<path fill-rule="evenodd" clip-rule="evenodd" d="M185.53 25.2785C184.928 23.1013 184.326 19.4728 184.085 16.0861C183.965 12.6994 184.205 9.55468 184.446 7.74039C184.687 5.80516 184.928 5.20039 185.169 4.83754C185.289 4.47468 185.41 4.35373 186.373 5.92611C187.337 7.37754 189.022 10.5223 190.227 13.4252C191.431 16.449 191.913 19.3518 191.551 21.8918C191.07 24.4318 189.625 26.7299 188.661 27.9394C187.698 29.149 187.457 29.149 186.975 28.7861C186.614 28.3023 186.132 27.4556 185.53 25.2785Z" fill="#B4A06B"/>
<path fill-rule="evenodd" clip-rule="evenodd" d="M191.792 42.3326C191.792 39.9136 192.033 36.1641 192.635 32.8984C193.358 29.5117 194.321 26.4879 195.164 24.6736C195.887 22.8593 196.248 22.2545 196.609 22.0126C196.85 21.6498 196.971 21.6498 197.573 23.3431C198.175 25.0365 199.138 28.5441 199.5 31.8098C199.861 35.0755 199.74 38.0993 198.657 40.5184C197.573 42.9374 195.526 44.8726 194.321 45.7193C193.117 46.6869 192.756 46.6869 192.394 46.2031C192.033 45.5984 191.792 44.6307 191.792 42.3326Z" fill="#B4A06B"/>
<path fill-rule="evenodd" clip-rule="evenodd" d="M193.96 60.2337C194.442 57.8147 195.405 54.0652 196.85 50.7994C198.175 47.5337 199.981 44.7518 201.065 43.0585C202.149 41.3652 202.751 40.8813 202.992 40.6394C203.353 40.3975 203.474 40.3975 203.715 42.2118C203.955 44.0261 204.196 47.7756 203.955 51.1623C203.715 54.549 202.872 57.5728 201.306 59.7499C199.741 61.9271 197.212 63.3785 195.887 64.1042C194.442 64.8299 194.08 64.709 193.96 64.1042C193.599 63.6204 193.478 62.6528 193.96 60.2337Z" fill="#B4A06B"/>
<path fill-rule="evenodd" clip-rule="evenodd" d="M192.756 78.1353C193.719 75.8372 195.405 72.3296 197.452 69.4267C199.5 66.5238 201.667 63.9838 203.112 62.6534C204.558 61.2019 205.16 60.8391 205.521 60.5972C205.882 60.3553 206.003 60.3553 205.882 62.2905C205.762 64.2257 205.28 67.9753 204.317 71.241C203.353 74.5067 202.029 77.4096 199.981 79.2238C197.934 81.1591 195.285 82.0057 193.719 82.3686C192.154 82.7315 191.913 82.6105 191.792 82.0058C191.792 81.401 191.913 80.4334 192.756 78.1353Z" fill="#B4A06B"/>
<path fill-rule="evenodd" clip-rule="evenodd" d="M187.577 96.2784C189.022 94.2222 191.551 91.0774 194.321 88.6584C196.971 86.1184 199.861 84.3041 201.667 83.2155C203.474 82.1269 204.196 81.885 204.557 81.7641C205.039 81.6431 205.16 81.7641 204.557 83.5784C203.955 85.3926 202.631 89.1422 200.945 92.166C199.259 95.3107 197.211 97.7298 194.803 99.1812C192.274 100.633 189.384 100.875 187.818 100.875C186.253 100.875 185.891 100.633 185.891 100.028C185.771 99.4231 186.132 98.3345 187.577 96.2784Z" fill="#B4A06B"/>
<path fill-rule="evenodd" clip-rule="evenodd" d="M179.509 111.76C181.436 110.066 184.687 107.647 187.939 105.954C191.19 104.14 194.442 102.93 196.369 102.325C198.416 101.721 199.138 101.6 199.62 101.6C200.102 101.6 200.222 101.721 199.138 103.414C198.055 105.107 195.887 108.373 193.478 111.034C191.07 113.695 188.541 115.63 185.771 116.356C183.001 117.082 179.991 116.719 178.425 116.356C176.86 115.993 176.619 115.63 176.739 115.025C176.98 114.421 177.582 113.453 179.509 111.76Z" fill="#B4A06B"/>
<path fill-rule="evenodd" clip-rule="evenodd" d="M180.352 29.391C178.305 28.5443 175.053 26.851 172.283 24.9158C169.514 22.9805 167.346 20.9243 166.021 19.4729C164.696 18.1424 164.335 17.5377 164.094 17.1748C163.853 16.812 163.974 16.691 165.66 16.812C167.346 16.9329 170.838 17.4167 173.849 18.2634C176.86 19.1101 179.509 20.4405 181.195 22.3758C182.881 24.311 183.844 26.851 184.206 28.3024C184.567 29.7539 184.446 30.1167 183.844 30.1167C183.483 30.3586 182.52 30.2377 180.352 29.391Z" fill="#B4A06B"/>
<path fill-rule="evenodd" clip-rule="evenodd" d="M185.53 46.2038C183.603 44.8733 180.834 42.6962 178.546 40.2771C176.257 37.8581 174.451 35.3181 173.367 33.7457C172.404 32.1733 172.043 31.4476 172.043 31.0847C171.922 30.7219 171.922 30.6009 173.608 31.0847C175.294 31.5685 178.546 32.6571 181.436 34.1085C184.206 35.56 186.614 37.3743 187.939 39.5514C189.263 41.8495 189.625 44.5104 189.745 45.9619C189.866 47.4133 189.625 47.7762 189.023 47.7762C188.3 47.7762 187.337 47.4133 185.53 46.2038Z" fill="#B4A06B"/>
<path fill-rule="evenodd" clip-rule="evenodd" d="M186.734 62.411C185.169 60.7176 183.001 57.8148 181.436 54.9119C179.75 52.0091 178.666 49.1062 178.064 47.2919C177.462 45.4776 177.341 44.7519 177.341 44.3891C177.341 44.0262 177.462 43.9053 178.907 44.7519C180.352 45.5986 183.362 47.5338 185.651 49.711C188.059 51.8881 189.866 54.1862 190.588 56.6053C191.311 59.1453 190.949 61.8062 190.708 63.2576C190.468 64.7091 190.106 64.951 189.625 64.83C189.023 64.7091 188.18 64.1043 186.734 62.411Z" fill="#B4A06B"/>
<path fill-rule="evenodd" clip-rule="evenodd" d="M184.928 79.7072C183.724 77.772 182.158 74.3853 181.195 71.2406C180.111 68.0958 179.629 64.951 179.388 63.1368C179.148 61.2015 179.148 60.5968 179.268 60.113C179.388 59.7501 179.388 59.6291 180.713 60.8387C182.038 62.0482 184.567 64.4672 186.373 67.0072C188.3 69.5472 189.625 72.2082 189.866 74.7482C190.106 77.4091 189.263 79.9491 188.661 81.2796C188.059 82.6101 187.818 82.852 187.337 82.6101C186.734 82.3682 186.012 81.7634 184.928 79.7072Z" fill="#B4A06B"/>
<path fill-rule="evenodd" clip-rule="evenodd" d="M179.509 95.794C178.666 93.4959 177.462 89.8674 176.859 86.3597C176.257 82.8521 176.257 79.5864 176.257 77.5302C176.257 75.474 176.498 74.7483 176.619 74.3854C176.739 74.0226 176.859 73.9016 178.064 75.3531C179.268 76.8045 181.436 79.8283 183.001 82.7312C184.567 85.755 185.53 88.6578 185.41 91.4397C185.289 94.2216 183.965 96.7616 183.122 98.0921C182.279 99.4226 181.917 99.5435 181.436 99.1807C181.074 98.8178 180.472 97.9712 179.509 95.794Z" fill="#B4A06B"/>
<path fill-rule="evenodd" clip-rule="evenodd" d="M171.079 110.671C170.718 108.252 170.356 104.382 170.477 100.874C170.597 97.3664 171.32 94.1007 171.802 92.1655C172.283 90.2302 172.645 89.5045 172.765 89.1417C173.006 88.7788 173.126 88.6579 173.969 90.3512C174.812 92.0445 176.378 95.4312 177.221 98.6969C178.184 101.963 178.425 104.986 177.702 107.647C176.98 110.308 175.173 112.485 174.09 113.574C173.006 114.663 172.645 114.784 172.283 114.3C171.802 113.937 171.44 112.969 171.079 110.671Z" fill="#B4A06B"/>
<path fill-rule="evenodd" clip-rule="evenodd" d="M39.5449 123.492C41.1105 125.306 41.1105 125.79 40.99 126.153C40.99 126.516 40.8696 126.637 40.6288 126.758C40.3879 126.879 40.0266 127 39.7858 127C39.5449 127 39.1836 127 38.9428 126.879C38.7019 126.758 38.4611 126.516 36.7751 124.46C34.9687 122.283 31.7172 118.291 28.827 114.058C25.9368 109.945 23.4078 105.591 20.9993 100.511C18.5908 95.4312 16.5435 89.5045 15.0984 84.0616C13.7737 78.6188 13.1716 73.7807 12.9308 68.3378C12.6899 62.895 12.8103 57.0893 13.4125 51.5254C14.0146 45.9616 15.2188 40.6397 17.0252 35.1969C18.9521 29.754 21.481 24.3112 22.9261 20.9245C24.3712 17.5378 24.6121 16.4493 24.9734 14.7559C25.4551 13.0626 26.0572 11.0064 28.1044 8.58735C30.1517 6.1683 33.5236 3.50735 35.5709 1.81402C37.6181 0.120685 38.3407 -0.363124 38.5815 0.241637C38.8224 0.846399 38.7019 2.78164 37.1364 5.68449C35.6913 8.58735 32.9215 12.3369 30.8742 14.635C28.827 16.9331 27.3819 17.5378 26.2981 18.7474C25.2142 19.8359 24.3712 21.5293 23.167 24.1902C21.9627 26.8512 20.3972 30.6007 19.1929 34.2293C17.8682 37.8578 16.7844 41.3654 16.0618 45.5988C15.3393 49.8321 14.8576 54.9121 14.7371 60.234C14.6167 65.5559 14.8576 70.9988 16.0618 77.4093C17.2661 83.8197 19.5542 91.0769 22.4444 97.6083C25.2142 104.019 28.7066 109.704 31.8377 114.179C34.9687 118.412 37.9794 121.678 39.5449 123.492Z" fill="#B4A06B"/>
<path fill-rule="evenodd" clip-rule="evenodd" d="M20.3973 25.2785C20.9994 23.1013 21.6015 19.4728 21.8424 16.0861C21.9628 12.6994 21.7219 9.55468 21.4811 7.74039C21.2402 5.80516 20.9994 5.20039 20.7585 4.83754C20.6381 4.47468 20.5177 4.35373 19.5543 5.92611C18.5909 7.37754 16.7845 10.4013 15.5802 13.4252C14.3759 16.449 13.8942 19.3518 14.2555 21.8918C14.7372 24.4318 16.1823 26.7299 17.1457 27.9394C18.1092 29.149 18.35 29.149 18.8317 28.7861C19.3134 28.3023 19.7951 27.4556 20.3973 25.2785Z" fill="#B4A06B"/>
<path fill-rule="evenodd" clip-rule="evenodd" d="M14.2555 42.3326C14.2555 39.9136 14.0146 36.1641 13.4125 32.8984C12.6899 29.5117 11.7265 26.4879 10.8835 24.6736C10.161 22.8593 9.7997 22.2545 9.43842 22.0126C9.19757 21.6498 9.07714 21.6498 8.47501 23.3431C7.87288 25.0365 6.90947 28.5441 6.54819 31.8098C6.18691 35.0755 6.30734 38.0993 7.39117 40.5184C8.47501 42.9374 10.5223 44.8726 11.7265 45.7193C12.9308 46.6869 13.2921 46.6869 13.6533 46.2031C13.8942 45.5984 14.2555 44.6307 14.2555 42.3326Z" fill="#B4A06B"/>
<path fill-rule="evenodd" clip-rule="evenodd" d="M11.9673 60.2337C11.4856 57.8147 10.5222 54.0652 9.0771 50.7994C7.75241 47.5337 5.94602 44.7518 4.86218 43.0585C3.77835 41.3652 3.17622 40.8813 2.93537 40.6394C2.57409 40.3975 2.45366 40.3975 2.21281 42.2118C1.97196 44.0261 1.7311 47.7756 1.97196 51.1623C2.33324 54.549 3.05579 57.5728 4.74176 59.8709C6.3073 62.048 8.83625 63.4994 10.1609 64.2252C11.606 64.9509 11.9673 64.8299 12.0878 64.2252C12.3286 63.6204 12.449 62.6528 11.9673 60.2337Z" fill="#B4A06B"/>
<path fill-rule="evenodd" clip-rule="evenodd" d="M13.1716 78.1353C12.2082 75.8372 10.5222 72.3296 8.47499 69.4267C6.42774 66.5238 4.26007 63.9838 2.81496 62.6534C1.36985 61.2019 0.767717 60.8391 0.406438 60.5972C0.0451598 60.3553 -0.0752663 60.3553 0.0451598 62.2905C0.165586 64.2257 0.64729 67.9753 1.6107 71.241C2.57411 74.5067 3.8988 77.4096 5.94604 79.2238C7.99328 81.1591 10.6427 82.0057 12.2082 82.3686C13.7737 82.7315 14.0146 82.6105 14.135 82.0058C14.2554 81.401 14.135 80.4334 13.1716 78.1353Z" fill="#B4A06B"/>
<path fill-rule="evenodd" clip-rule="evenodd" d="M18.3499 96.2784C16.9048 94.2222 14.3759 91.0774 11.6061 88.6584C8.95669 86.1184 6.06646 84.3041 4.26007 83.2155C2.45368 82.1269 1.73112 81.885 1.36984 81.7641C0.888139 81.6431 0.767713 81.7641 1.36984 83.5784C1.97197 85.3926 3.29666 89.1422 4.98263 92.166C6.66859 95.3107 8.71584 97.7298 11.1244 99.1812C13.6533 100.633 16.5435 100.875 18.1091 100.875C19.6746 100.875 20.0359 100.633 20.0359 100.028C20.1563 99.4231 19.795 98.3345 18.3499 96.2784Z" fill="#B4A06B"/>
<path fill-rule="evenodd" clip-rule="evenodd" d="M26.5389 111.76C24.612 110.066 21.3605 107.647 18.109 105.954C14.8575 104.14 11.606 102.93 9.6792 102.325C7.63196 101.721 6.78898 101.6 6.4277 101.6C5.94599 101.6 5.82557 101.721 6.9094 103.414C7.99324 105.107 10.1609 108.373 12.5694 111.034C14.978 113.695 17.5069 115.63 20.2767 116.356C23.0465 117.082 26.0572 116.719 27.6227 116.356C29.1882 115.993 29.4291 115.63 29.3087 115.025C29.0678 114.421 28.4657 113.453 26.5389 111.76Z" fill="#B4A06B"/>
<path fill-rule="evenodd" clip-rule="evenodd" d="M25.5754 29.391C27.6227 28.5443 30.8742 26.851 33.644 24.9158C36.4138 22.9805 38.5814 20.9243 39.9061 19.4729C41.2308 18.1424 41.5921 17.5377 41.8329 17.1748C42.0738 16.812 41.9534 16.691 40.2674 16.812C38.5814 16.9329 35.0891 17.4167 32.0784 18.2634C29.0678 19.1101 26.4184 20.4405 24.7324 22.3758C23.0465 24.311 22.0831 26.851 21.7218 28.3024C21.3605 29.7539 21.4809 30.1167 22.0831 30.1167C22.5648 30.3586 23.5282 30.2377 25.5754 29.391Z" fill="#B4A06B"/>
<path fill-rule="evenodd" clip-rule="evenodd" d="M20.5176 46.2038C22.4444 44.8733 25.2142 42.6962 27.5023 40.2771C29.7904 37.8581 31.5968 35.3181 32.6806 33.7457C33.6441 32.1733 34.0053 31.4476 34.0053 31.0847C34.1258 30.7219 34.1258 30.6009 32.4398 31.0847C30.7538 31.5685 27.5023 32.6571 24.6121 34.1085C21.8423 35.56 19.4338 37.3743 18.1091 39.5514C16.7844 41.8495 16.4231 44.5104 16.3027 45.9619C16.1823 47.4133 16.4231 47.7762 17.0252 47.7762C17.6274 47.7762 18.5908 47.4133 20.5176 46.2038Z" fill="#B4A06B"/>
<path fill-rule="evenodd" clip-rule="evenodd" d="M19.3133 62.411C20.8789 60.7176 23.0466 57.8148 24.6121 54.9119C26.2981 52.0091 27.3819 49.1062 27.984 47.2919C28.5862 45.4776 28.7066 44.7519 28.7066 44.3891C28.7066 44.0262 28.5862 43.9053 27.141 44.7519C25.6959 45.5986 22.6853 47.5338 20.3972 49.711C17.9887 51.8881 16.1823 54.1862 15.4597 56.6053C14.7372 59.1453 15.0984 61.8062 15.3393 63.2576C15.5801 64.7091 15.9414 64.951 16.4231 64.83C16.9048 64.7091 17.7478 64.1043 19.3133 62.411Z" fill="#B4A06B"/>
<path fill-rule="evenodd" clip-rule="evenodd" d="M20.9993 79.7072C22.2036 77.772 23.7691 74.3853 24.7325 71.2406C25.8163 68.0958 26.298 64.951 26.5389 63.1368C26.7798 61.2015 26.7798 60.5968 26.6593 60.113C26.5389 59.7501 26.5389 59.6291 25.2142 60.8387C23.8895 62.0482 21.481 64.4672 19.5542 67.0072C17.6274 69.5472 16.3027 72.2082 16.0618 74.7482C15.821 77.4091 16.664 79.9491 17.2661 81.2796C17.8682 82.6101 18.1091 82.852 18.5908 82.6101C19.1929 82.3682 19.9155 81.7634 20.9993 79.7072Z" fill="#B4A06B"/>
<path fill-rule="evenodd" clip-rule="evenodd" d="M26.4186 95.794C27.2616 93.4959 28.4658 89.8674 29.0679 86.3597C29.6701 82.8521 29.6701 79.5864 29.6701 77.5302C29.6701 75.474 29.4292 74.7483 29.3088 74.3854C29.1884 74.0226 29.0679 73.9016 27.8637 75.3531C26.6594 76.8045 24.4918 79.8283 22.9262 82.7312C21.3607 85.755 20.3973 88.6578 20.5177 91.4397C20.6381 94.2216 21.9628 96.7616 22.8058 98.0921C23.6488 99.4226 24.01 99.5435 24.4917 99.1807C24.9735 98.8178 25.5756 97.9712 26.4186 95.794Z" fill="#B4A06B"/>
<path fill-rule="evenodd" clip-rule="evenodd" d="M34.9687 110.671C35.33 108.252 35.6913 104.382 35.5709 100.874C35.4504 97.3664 34.7279 94.1007 34.2462 92.1655C33.7645 90.2302 33.4032 89.5045 33.2828 89.1417C33.0419 88.7788 32.9215 88.6579 32.0785 90.3512C31.2355 92.0445 29.67 95.4312 28.827 98.6969C27.8636 101.963 27.6227 104.986 28.3453 107.647C29.0679 110.308 30.8742 112.485 31.9581 113.574C33.0419 114.663 33.4032 114.784 33.7645 114.3C34.1258 113.937 34.6075 112.969 34.9687 110.671Z" fill="#B4A06B"/>
</svg>
