<svg width="20" height="20" viewBox="0 0 20 20" fill="none" xmlns="http://www.w3.org/2000/svg">
<g clip-path="url(#clip0_9_2286)">
<path d="M17.8571 0H13.5714H2.14286C0.928571 0 0 0.928571 0 2.14286V5V16.4286V17.8571C0 19 0.928571 20 2.14286 20H15H17.8571C19.0714 20 20 19 20 17.8571V2.14286C20 0.928571 19.0714 0 17.8571 0ZM13.2857 18.5714L6.42857 11.7143L1.42857 16.7143V14.7143L5.42857 10.7143L1.42857 6.71429V4.71429L5 8.28572L11.8571 1.42857H13.8571L6 9.28571L6.92857 10.2143L15.2857 18.5714H13.2857ZM14 14.1429C13.8571 14.2143 13.7143 14.2857 13.5714 14.2857C13.4286 14.2857 13.2857 14.2143 13.1429 14.1429C12.8571 13.9286 10 11.7143 10 9.28571C10 7.28571 11.5714 5.71429 13.5714 5.71429C15.5714 5.71429 17.1429 7.28571 17.1429 9.28571C17.1429 11.7143 14.2857 13.9286 14 14.1429Z" fill="#858585"/>
<path d="M13.6 11.2C14.4837 11.2 15.2 10.4837 15.2 9.6C15.2 8.71634 14.4837 8 13.6 8C12.7163 8 12 8.71634 12 9.6C12 10.4837 12.7163 11.2 13.6 11.2Z" fill="#858585"/>
</g>
<defs>
<clipPath id="clip0_9_2286">
<rect width="20" height="20" fill="white"/>
</clipPath>
</defs>
</svg>
