<svg width="20" height="20" viewBox="0 0 20 20" fill="none" xmlns="http://www.w3.org/2000/svg">
<g id="&#208;&#145;&#208;&#181;&#208;&#183; &#208;&#189;&#208;&#176;&#208;&#183;&#208;&#178;&#208;&#176;&#208;&#189;&#208;&#184;&#209;&#143; 1" clip-path="url(#clip0_9_2291)">
<path id="Vector" fill-rule="evenodd" clip-rule="evenodd" d="M19.7059 18.8235C19.7839 18.8235 19.8587 18.8545 19.9139 18.9097C19.969 18.9648 20 19.0396 20 19.1176V19.7059C20 19.7839 19.969 19.8587 19.9139 19.9139C19.8587 19.969 19.7839 20 19.7059 20H0.294118C0.216113 20 0.141303 19.969 0.0861451 19.9139C0.0309873 19.8587 0 19.7839 0 19.7059V19.1176C0 19.0396 0.0309873 18.9648 0.0861451 18.9097C0.141303 18.8545 0.216113 18.8235 0.294118 18.8235H1.47059V6.47059C1.47059 6.31458 1.53256 6.16496 1.64288 6.05464C1.75319 5.94433 1.90281 5.88235 2.05882 5.88235H8.52941C8.68542 5.88235 8.83504 5.94433 8.94536 6.05464C9.05567 6.16496 9.11765 6.31458 9.11765 6.47059V18.8235H10.8824V0.588235C10.8824 0.432226 10.9443 0.282606 11.0546 0.17229C11.165 0.0619746 11.3146 0 11.4706 0L17.9412 0C18.0972 0 18.2468 0.0619746 18.3571 0.17229C18.4674 0.282606 18.5294 0.432226 18.5294 0.588235V18.8235H19.7059ZM14.1176 16.7647V3.23529C14.1176 3.15729 14.0867 3.08248 14.0315 3.02732C13.9763 2.97216 13.9015 2.94118 13.8235 2.94118H13.2353C13.1573 2.94118 13.0825 2.97216 13.0273 3.02732C12.9722 3.08248 12.9412 3.15729 12.9412 3.23529V16.7647C12.9412 16.8427 12.9722 16.9175 13.0273 16.9727C13.0825 17.0278 13.1573 17.0588 13.2353 17.0588H13.8235C13.9015 17.0588 13.9763 17.0278 14.0315 16.9727C14.0867 16.9175 14.1176 16.8427 14.1176 16.7647ZM16.4706 16.7647V3.23529C16.4706 3.15729 16.4396 3.08248 16.3844 3.02732C16.3293 2.97216 16.2545 2.94118 16.1765 2.94118H15.5882C15.5102 2.94118 15.4354 2.97216 15.3803 3.02732C15.3251 3.08248 15.2941 3.15729 15.2941 3.23529V16.7647C15.2941 16.8427 15.3251 16.9175 15.3803 16.9727C15.4354 17.0278 15.5102 17.0588 15.5882 17.0588H16.1765C16.2545 17.0588 16.3293 17.0278 16.3844 16.9727C16.4396 16.9175 16.4706 16.8427 16.4706 16.7647ZM4.70588 16.7647V9.11765C4.70588 9.03964 4.6749 8.96483 4.61974 8.90967C4.56458 8.85452 4.48977 8.82353 4.41177 8.82353H3.82353C3.74552 8.82353 3.67071 8.85452 3.61556 8.90967C3.5604 8.96483 3.52941 9.03964 3.52941 9.11765V16.7647C3.52941 16.8427 3.5604 16.9175 3.61556 16.9727C3.67071 17.0278 3.74552 17.0588 3.82353 17.0588H4.41177C4.48977 17.0588 4.56458 17.0278 4.61974 16.9727C4.6749 16.9175 4.70588 16.8427 4.70588 16.7647ZM7.05882 16.7647V9.11765C7.05882 9.03964 7.02784 8.96483 6.97268 8.90967C6.91752 8.85452 6.84271 8.82353 6.76471 8.82353H6.17647C6.09847 8.82353 6.02366 8.85452 5.9685 8.90967C5.91334 8.96483 5.88235 9.03964 5.88235 9.11765V16.7647C5.88235 16.8427 5.91334 16.9175 5.9685 16.9727C6.02366 17.0278 6.09847 17.0588 6.17647 17.0588H6.76471C6.84271 17.0588 6.91752 17.0278 6.97268 16.9727C7.02784 16.9175 7.05882 16.8427 7.05882 16.7647Z" fill="#858585"/>
</g>
<defs>
<clipPath id="clip0_9_2291">
<rect width="20" height="20" fill="white"/>
</clipPath>
</defs>
</svg>
