<svg width="60" height="60" viewBox="0 0 60 60" fill="none" xmlns="http://www.w3.org/2000/svg">
<path fill-rule="evenodd" clip-rule="evenodd" d="M30 2.47985C29.573 2.47985 29.1634 2.65714 28.8614 2.97272C28.5595 3.2883 28.3898 3.71631 28.3898 4.16261C28.3898 4.49543 28.4843 4.82077 28.6612 5.0975C28.8381 5.37422 29.0896 5.58991 29.3838 5.71727C29.678 5.84464 30.0018 5.87796 30.3141 5.81303C30.6265 5.7481 30.9134 5.58783 31.1386 5.3525C31.3637 5.11716 31.5171 4.81732 31.5792 4.4909C31.6414 4.16447 31.6095 3.82613 31.4876 3.51864C31.3657 3.21116 31.1594 2.94835 30.8946 2.76345C30.6298 2.57854 30.3185 2.47985 30 2.47985ZM27.1836 1.2192C27.9305 0.438559 28.9436 0 30 0C30.7878 0 31.5579 0.244132 32.2129 0.701526C32.8679 1.15892 33.3784 1.80903 33.6799 2.56965C33.9813 3.33027 34.0602 4.16723 33.9065 4.97469C33.8786 5.12116 33.8433 5.26547 33.8009 5.40705L47.305 19.5182C47.3161 19.5298 47.327 19.5416 47.3376 19.5536H54.9153C57.445 19.5536 60 21.322 60 24.0298V55.5239C60 58.2301 57.4413 60 54.9153 60H5.08475C2.56506 60 0 58.2414 0 55.5239V24.0298C0 21.3248 2.55045 19.5536 5.08475 19.5536H12.6672C12.6768 19.5429 12.6866 19.5323 12.6966 19.5219L26.1991 5.40717C26.079 5.00652 26.017 4.58702 26.017 4.16261C26.017 3.05862 26.4366 1.99984 27.1836 1.2192ZM27.5813 7.46983L16.0215 19.5536H43.9829L32.4189 7.46972C31.9373 7.85441 31.3761 8.1207 30.7771 8.24523C30.0044 8.40585 29.2036 8.32341 28.4758 8.00835C28.1548 7.86941 27.8544 7.68797 27.5813 7.46983ZM5.08475 22.0335C3.32752 22.0335 2.37288 23.1921 2.37288 24.0298V55.5239C2.37288 56.3667 3.33324 57.5201 5.08475 57.5201H54.9153C56.6672 57.5201 57.6271 56.3603 57.6271 55.5239V24.0298C57.6271 23.1913 56.6703 22.0335 54.9153 22.0335H5.08475ZM15.7322 27.1491C15.7322 26.4643 16.2634 25.9091 16.9186 25.9091H22.3271C22.9824 25.9091 23.5136 26.4643 23.5136 27.1491C23.5136 27.8338 22.9824 28.389 22.3271 28.389H18.1051V31.0761H21.1864C21.8417 31.0761 22.3729 31.6312 22.3729 32.316C22.3729 33.0008 21.8417 33.5559 21.1864 33.5559H18.1051V37.4829C18.1051 38.1677 17.5739 38.7229 16.9186 38.7229C16.2634 38.7229 15.7322 38.1677 15.7322 37.4829V32.3829C15.7311 32.3607 15.7305 32.3384 15.7305 32.316C15.7305 32.2936 15.7311 32.2713 15.7322 32.2491V27.1491ZM28.2343 25.9113C28.2579 25.9099 28.2815 25.9091 28.3051 25.9091H29.661C31.3068 25.9091 33.1322 27.0706 33.1322 29.0479V35.5841C33.1322 37.563 31.3053 38.7246 29.661 38.7246H28.2898C26.6456 38.7246 24.8186 37.563 24.8186 35.5841V29.0497C24.8186 27.0946 26.6032 25.9371 28.2343 25.9113ZM28.3532 28.389C28.3321 28.3902 28.311 28.3908 28.2898 28.3908C27.9123 28.3908 27.6056 28.5204 27.4146 28.6792C27.2246 28.8373 27.1915 28.9781 27.1915 29.0497V35.5841C27.1915 35.6565 27.2249 35.7978 27.4153 35.9562C27.6067 36.1153 27.9134 36.2448 28.2898 36.2448H29.661C30.0375 36.2448 30.3441 36.1153 30.5355 35.9562C30.7259 35.7978 30.7593 35.6565 30.7593 35.5841V29.0479C30.7593 28.9763 30.7263 28.8355 30.5362 28.6774C30.3452 28.5186 30.0386 28.389 29.661 28.389H28.3532ZM35.678 27.1491C35.678 26.4643 36.2092 25.9091 36.8644 25.9091H40.9322C42.5064 25.9091 44.2746 27.0225 44.2746 28.9399V31.0336C44.2746 32.5606 43.1522 33.5773 41.9013 33.9282L44.0412 36.8709C44.4377 37.4161 44.3362 38.1939 43.8145 38.6083C43.2928 39.0227 42.5485 38.9166 42.152 38.3714L39.0198 34.0643H38.0661V37.4829C38.0661 38.1677 37.5349 38.7229 36.8797 38.7229C36.2244 38.7229 35.6932 38.1677 35.6932 37.4829V33.0237C35.6832 32.9588 35.678 32.8922 35.678 32.8244C35.678 32.7565 35.6832 32.6899 35.6932 32.625V27.3484C35.6832 27.2835 35.678 27.2169 35.678 27.1491ZM38.0661 28.389V31.5844H40.9322C41.2729 31.5844 41.5476 31.4671 41.716 31.3271C41.8838 31.1877 41.9017 31.0737 41.9017 31.0336V28.9399C41.9017 28.899 41.8836 28.7851 41.7164 28.6461C41.5485 28.5065 41.274 28.389 40.9322 28.389H38.0661ZM9.59661 42.3576C9.59661 41.6728 10.1278 41.1177 10.7831 41.1177H14.9153C15.7613 41.1177 16.5709 41.3951 17.193 41.8948C17.815 42.3943 18.3051 43.1729 18.3051 44.129V46.1943C18.3051 47.1469 17.8191 47.9257 17.1969 48.4268C16.8242 48.7269 16.3841 48.9469 15.9087 49.075L18.0518 51.9276C18.4565 52.4662 18.3667 53.2456 17.8513 53.6685C17.336 54.0914 16.5901 53.9976 16.1855 53.459L12.9898 49.2056H11.9695V52.5622C11.9695 53.247 11.4383 53.8021 10.7831 53.8021C10.1278 53.8021 9.59661 53.247 9.59661 52.5622V48.0325C9.59548 48.0103 9.59492 47.9881 9.59492 47.9656C9.59492 47.9432 9.59548 47.9209 9.59661 47.8988V42.3576ZM11.9695 46.7257H14.9153C15.2815 46.7257 15.5729 46.6039 15.7485 46.4625C15.9241 46.3211 15.9322 46.2141 15.9322 46.1943V44.129C15.9322 44.1108 15.9248 44.0037 15.7472 43.8611C15.5698 43.7187 15.2777 43.5976 14.9153 43.5976H11.9695V46.7257ZM41.8644 42.3576C41.8644 41.6728 42.3956 41.1177 43.0508 41.1177H48.5593C49.2146 41.1177 49.7458 41.6728 49.7458 42.3576C49.7458 43.0424 49.2146 43.5976 48.5593 43.5976H46.9898V52.5658C46.9898 53.2506 46.4586 53.8057 45.8034 53.8057C45.1481 53.8057 44.6169 53.2506 44.6169 52.5658V43.5976H43.0508C42.3956 43.5976 41.8644 43.0424 41.8644 42.3576ZM20.5407 42.3612C20.5407 41.6764 21.0719 41.1212 21.7271 41.1212H27.2373C27.8925 41.1212 28.4237 41.6764 28.4237 42.3612C28.4237 43.046 27.8925 43.6011 27.2373 43.6011H22.9136V46.2227H26.0678C26.7231 46.2227 27.2542 46.7778 27.2542 47.4626C27.2542 48.1474 26.7231 48.7025 26.0678 48.7025H22.9136V51.3258H27.2356C27.8908 51.3258 28.422 51.881 28.422 52.5658C28.422 53.2506 27.8908 53.8057 27.2356 53.8057H21.7271M20.5407 42.3612V52.4989V42.3612ZM21.7254 53.8057C21.0702 53.8057 20.539 53.2506 20.539 52.5658C20.539 52.5433 20.5396 52.521 20.5407 52.4989M32.9368 41.6025C32.7197 41.3097 32.3801 41.1212 31.9983 41.1212C31.3431 41.1212 30.8119 41.6764 30.8119 42.3612V52.5658C30.8119 53.2506 31.3431 53.8057 31.9983 53.8057C32.6536 53.8057 33.1847 53.2506 33.1847 52.5658V46.4367L37.3301 53.2323C37.6135 53.697 38.1565 53.9104 38.6627 53.7561C39.1689 53.6018 39.5169 53.1168 39.5169 52.5658V42.3612C39.5169 41.6764 38.9858 41.1212 38.3305 41.1212C37.6753 41.1212 37.1441 41.6764 37.1441 42.3612V48.3142L33.2682 41.9603C33.1791 41.8142 33.0656 41.6942 32.9368 41.6025Z" fill="#525252"/>
</svg>
