<svg width="70" height="70" viewBox="0 0 70 70" fill="none" xmlns="http://www.w3.org/2000/svg">
<path fill-rule="evenodd" clip-rule="evenodd" d="M35 2.83237C17.069 2.83237 2.83237 15.6842 2.83237 31.1884C2.83237 39.1314 6.54253 46.3446 12.5815 51.5264C12.9426 51.8363 13.124 52.3069 13.0642 52.779L11.3513 66.3114C16.2784 64.0769 20.2728 61.3758 23.4371 58.4135C23.8029 58.0711 24.3225 57.9474 24.8033 58.0884C28.1144 59.0591 31.5476 59.5494 34.998 59.5445H35C52.931 59.5445 67.1676 46.6927 67.1676 31.1884C67.1676 15.6842 52.931 2.83237 35 2.83237ZM0 31.1884C0 13.8089 15.835 0 35 0C54.165 0 70 13.8089 70 31.1884C70 48.5674 54.1661 62.3759 35.002 62.3769C31.5488 62.3818 28.1114 61.9268 24.7806 61.0246C20.9582 64.4627 16.1193 67.504 10.1643 69.8978C9.69851 70.085 9.16838 70.0117 8.77092 69.705C8.37347 69.3982 8.16811 68.904 8.23115 68.406L10.1599 53.1691C3.90637 47.5506 0 39.7919 0 31.1884ZM35.007 12.2183C35.3892 12.1809 35.7835 12.2987 36.089 12.5715L52.2963 27.0469C52.577 27.2976 52.7463 27.6498 52.7669 28.0256C52.771 28.1001 52.7692 28.1744 52.7617 28.2478C52.801 28.6322 52.6839 29.0311 52.4048 29.3407C51.8811 29.9216 50.9856 29.9681 50.4047 29.4444L50.2611 29.3149C50.0581 29.132 49.9204 28.9036 49.8494 28.6591L35.0071 15.4028L20.1648 28.6591C20.0938 28.9036 19.9561 29.132 19.7531 29.3149L19.6095 29.4444C19.0285 29.9681 18.133 29.9216 17.6094 29.3407C17.3303 29.0311 17.2131 28.6322 17.2525 28.2478C17.245 28.1744 17.2431 28.1001 17.2472 28.0256C17.2678 27.6498 17.4372 27.2976 17.7179 27.0469L33.9251 12.5715C34.2315 12.2979 34.6257 12.181 35.007 12.2183ZM29.9287 29.6342C29.6097 30.7121 29.8381 32.0797 31.0252 33.1483C31.037 33.1589 31.0486 33.1697 31.0601 33.1807L35.5805 37.5336L39.9976 33.191C41.1753 32.0339 41.3685 30.6491 41.0361 29.5955C40.6957 28.5165 39.8589 27.8543 38.8743 27.8543C38.6299 27.8543 38.2242 27.9814 37.7592 28.3254C37.307 28.66 36.9419 29.0965 36.7503 29.4829C36.5133 29.9608 36.0279 30.265 35.4945 30.2699C34.9611 30.2748 34.4702 29.9796 34.2245 29.5061C34.0196 29.1113 33.6397 28.6689 33.1766 28.3309C32.7007 27.9836 32.2896 27.8551 32.0444 27.8543C31.0899 27.8561 30.2569 28.5253 29.9287 29.6342ZM32.0589 25.022C33.1086 25.0269 34.092 25.4925 34.8463 26.043C35.0613 26.1999 35.2698 26.3724 35.468 26.5575C35.6613 26.3744 35.8647 26.2038 36.0746 26.0485C36.8286 25.4907 37.8158 25.022 38.8743 25.022C41.3128 25.022 43.0949 26.7076 43.7372 28.7432C44.3875 30.8041 43.927 33.3008 41.9833 35.2107L36.5836 40.5194C36.0366 41.0571 35.161 41.0617 34.6084 40.5296L29.1117 35.2366C27.0936 33.4075 26.5995 30.9027 27.2128 28.8304C27.8174 26.7875 29.5736 25.0276 32.0364 25.022M32.0589 25.022C32.0553 25.022 32.0518 25.022 32.0483 25.022L32.0589 25.022ZM23.5168 29.6893C24.2989 29.6893 24.9329 30.3233 24.9329 31.1055V43.9017H46.1757V32.3902C46.1757 31.608 46.8098 30.974 47.5919 30.974C48.374 30.974 49.0081 31.608 49.0081 32.3902V45.3179C49.0081 46.1001 48.374 46.7341 47.5919 46.7341H23.5168C22.7346 46.7341 22.1006 46.1001 22.1006 45.3179V31.1055C22.1006 30.3233 22.7346 29.6893 23.5168 29.6893Z" fill="#525252"/>
</svg>
