<svg width="60" height="60" viewBox="0 0 60 60" fill="none" xmlns="http://www.w3.org/2000/svg">
<path fill-rule="evenodd" clip-rule="evenodd" d="M28.5312 3.77428e-05L28.5407 0H31.4593L31.4676 2.88526e-05C32.2279 0.00531098 32.9555 0.308452 33.4931 0.843886C34.0307 1.37932 34.3351 2.10401 34.3404 2.86121L34.3404 2.86948V4.72033H54.9151C57.4484 4.72033 60 6.40884 60 8.98981V38.9999C60 41.5905 57.4362 43.2694 54.9151 43.2694H34.3404V54.6813C36.4207 54.8292 38.3721 55.0772 40.1315 55.4082C43.0923 55.9652 45.6057 56.775 47.2688 57.8062C47.8274 58.1525 47.9982 58.8842 47.6505 59.4404C47.3028 59.9967 46.5682 60.1669 46.0097 59.8206C44.7151 59.0179 42.5392 58.276 39.6893 57.7398C36.866 57.2087 33.4747 56.8965 29.8171 56.8965C22.7299 56.8965 16.769 58.0692 13.9399 59.6367C13.3649 59.9552 12.6396 59.7492 12.3197 59.1766C11.9999 58.604 12.2067 57.8816 12.7816 57.563C15.4866 56.0644 20.1838 55.0128 25.6613 54.6566V43.2694H5.08495C2.56421 43.2694 0 41.5926 0 38.9999V8.98303C0 6.39091 2.5571 4.72033 5.08495 4.72033H25.6613V2.86948L25.6613 2.86122C25.6666 2.10451 25.9706 1.38025 26.5076 0.8449C27.0446 0.309546 27.7714 0.00607311 28.5312 3.77428e-05ZM28.0438 4.72033H31.9579V2.87486C31.9562 2.74229 31.9026 2.61557 31.8084 2.52176C31.7142 2.42796 31.587 2.37456 31.4539 2.37287H28.5469C28.414 2.3748 28.2871 2.42825 28.1931 2.52193C28.099 2.61572 28.0455 2.74237 28.0438 2.87485V4.72033ZM28.0438 43.2694V54.5474C28.6289 54.5316 29.2204 54.5236 29.8171 54.5236C30.5403 54.5236 31.2547 54.5354 31.9579 54.5583V43.2694H28.0438ZM5.08495 7.0932C3.32769 7.0932 2.38251 8.18532 2.38251 8.98303V38.9999C2.38251 39.8004 3.3376 40.8965 5.08495 40.8965H54.9151C56.6619 40.8965 57.6175 39.7991 57.6175 38.9999V8.98981C57.6175 8.19451 56.6668 7.0932 54.9151 7.0932H5.08495ZM15.7279 21.8101C15.7279 22.4654 16.2613 22.9965 16.9192 22.9965C17.5771 22.9965 18.1104 22.4654 18.1104 21.8101V18.0661H21.1737C21.8316 18.0661 22.3649 17.5349 22.3649 16.8796C22.3649 16.2244 21.8316 15.6932 21.1737 15.6932H18.1104V13.1508H22.3275C22.9854 13.1508 23.5187 12.6196 23.5187 11.9644C23.5187 11.3091 22.9854 10.7779 22.3275 10.7779H16.9834C16.9621 10.7768 16.9407 10.7762 16.9192 10.7762C16.2613 10.7762 15.7279 11.3074 15.7279 11.9627M27.4094 13.4224C27.2226 13.5708 27.1895 13.7034 27.1895 13.7728V19.9999C27.1895 20.0664 27.2215 20.1988 27.4105 20.3484C27.6006 20.4988 27.9065 20.622 28.2837 20.622H29.6537C30.0354 20.622 30.3406 20.4982 30.5286 20.3491C30.7151 20.2012 30.7479 20.0691 30.7479 19.9999V13.7745C30.7479 13.7078 30.7157 13.5748 30.5264 13.4248C30.3361 13.274 30.0303 13.1508 29.6537 13.1508H28.2837C28.2672 13.1508 28.2508 13.1505 28.2344 13.1498C27.8763 13.1599 27.5894 13.2795 27.4094 13.4224ZM28.3479 10.7779C28.3267 10.7768 28.3053 10.7762 28.2837 10.7762C26.6274 10.7762 24.807 11.886 24.807 13.7728V19.9999C24.807 21.89 26.6383 22.9949 28.2837 22.9949H29.6537C31.3085 22.9949 33.1304 21.8881 33.1304 19.9999V13.7745C33.1304 11.8857 31.3007 10.7779 29.6537 10.7779H28.3479ZM36.6251 10.8001C36.7023 10.7845 36.7823 10.7762 36.8642 10.7762H40.9246C42.5069 10.7762 44.2721 11.8395 44.2721 13.6695V15.6644C44.2721 17.125 43.1449 18.096 41.8895 18.4294L44.0206 21.2208C44.4188 21.7424 44.317 22.4868 43.7933 22.8834C43.2696 23.28 42.5222 23.1786 42.124 22.657L38.9944 18.5576H38.0469V21.8118C38.0469 22.4671 37.5136 22.9982 36.8557 22.9982C36.1978 22.9982 35.6644 22.4671 35.6644 21.8118V11.9644C35.6644 11.3877 36.0775 10.9071 36.6251 10.8001ZM38.0469 13.1491V16.1847H40.9246C41.2653 16.1847 41.5389 16.073 41.706 15.9407C41.8723 15.8089 41.8895 15.7017 41.8895 15.6644V13.6695C41.8895 13.63 41.8716 13.523 41.7072 13.3926C41.5417 13.2613 41.2687 13.1491 40.9246 13.1491H38.0469ZM33.1713 25.2677C33.8292 25.2677 34.3625 25.7989 34.3625 26.4542V35.1152H38.5796C39.2375 35.1152 39.7708 35.6463 39.7708 36.3016C39.7708 36.9568 39.2375 37.488 38.5796 37.488H33.1713C32.5134 37.488 31.98 36.9568 31.98 36.3016V26.4542C31.98 25.7989 32.5134 25.2677 33.1713 25.2677ZM41.944 36.2948C41.944 36.2971 41.944 36.2993 41.944 36.3016C41.944 36.9568 42.4774 37.488 43.1353 37.488C43.1785 37.488 43.2213 37.4857 43.2634 37.4813H48.5418C49.1998 37.4813 49.7331 36.9501 49.7331 36.2948C49.7331 35.6396 49.1998 35.1084 48.5418 35.1084H44.3265V32.5575H47.3897C48.0476 32.5575 48.581 32.0264 48.581 31.3711C48.581 30.7158 48.0476 30.1847 47.3897 30.1847H44.3265V27.6423H48.5418C49.1998 27.6423 49.7331 27.1111 49.7331 26.4559C49.7331 25.8006 49.1998 25.2694 48.5418 25.2694H43.1995C43.1782 25.2683 43.1568 25.2677 43.1353 25.2677C42.4774 25.2677 41.944 25.7989 41.944 26.4542M24.7109 25.2851C24.1078 25.1862 23.5249 25.559 23.3667 26.1502L21.3046 33.8519C21.2276 34.0001 21.181 34.1664 21.1732 34.3429L20.7306 35.9959C20.5611 36.629 20.939 37.2791 21.5747 37.448C22.2104 37.6168 22.8631 37.2404 23.0326 36.6073L23.3069 35.583H27.3199L27.5974 36.6179C27.7672 37.251 28.4201 37.6271 29.0557 37.458C29.6913 37.289 30.069 36.6387 29.8992 36.0056L29.4492 34.3272C29.4396 34.1618 29.396 34.0054 29.3252 33.865L27.2564 26.1497C27.1159 25.6257 26.6365 25.2633 26.0919 25.2695L24.7109 25.2851ZM26.6836 33.2101L25.3118 28.0945L23.9422 33.2101H26.6836ZM11.3592 25.8783C12.3537 25.3698 13.6965 25.18 15.3266 25.3177L17.367 25.4871C18.0226 25.5415 18.5098 26.115 18.4552 26.7679C18.4006 27.4209 17.8248 27.9062 17.1691 27.8518L15.1252 27.6821C13.7465 27.5656 12.9011 27.7572 12.4475 27.9892C12.0297 28.2029 11.9954 28.4074 11.992 28.4926C11.9863 28.6338 12.0618 28.9494 12.4782 29.3237C12.8833 29.6877 13.5548 30.044 14.5096 30.2153C15.8269 30.4517 16.9276 30.9734 17.7147 31.6813C18.4905 32.3789 19.0269 33.3288 18.9846 34.3701C18.94 35.4674 18.2664 36.3625 17.2359 36.8892C16.2413 37.3975 14.8985 37.5867 13.2686 37.4482C13.2684 37.4482 13.2681 37.4482 13.2679 37.4481L11.2282 37.2789C10.5725 37.2244 10.0853 36.651 10.14 35.998C10.1946 35.345 10.7704 34.8598 11.426 34.9142L13.4706 35.0839C14.8492 35.2011 15.6946 35.0098 16.1482 34.778C16.566 34.5645 16.6006 34.3598 16.6041 34.2742C16.6098 34.1327 16.5343 33.8168 16.118 33.4424C15.7132 33.0784 15.0419 32.7219 14.0872 32.5506C12.7702 32.3143 11.6695 31.7929 10.8822 31.0854C10.1064 30.3882 9.56943 29.4387 9.61139 28.3975C9.65561 27.3002 10.3291 26.4051 11.3592 25.8783Z" fill="#525252"/>
</svg>
