<svg width="133" height="134" viewBox="0 0 133 134" fill="none" xmlns="http://www.w3.org/2000/svg">
<g filter="url(#filter0_d_455_3794)">
<path d="M66.5 83.5634C81.1357 83.5634 93 71.6654 93 56.988C93 42.3106 81.1357 30.4126 66.5 30.4126C51.8643 30.4126 40 42.3106 40 56.988C40 71.6654 51.8643 83.5634 66.5 83.5634Z" fill="#2D8CFF"/>
<path fill-rule="evenodd" clip-rule="evenodd" d="M82.0541 48.0575L74.5645 53.5376V60.4594L82.0541 65.9394C82.5841 66.3447 83.2057 66.4709 83.2057 65.3625V48.6344C83.2057 47.6467 82.7067 47.5216 82.0541 48.0575ZM49.2162 61.1481V48.6687C49.2162 48.1594 49.6336 47.7441 50.147 47.7441H68.294C71.1206 47.7441 73.4129 50.0208 73.4129 52.8278V65.3071C73.4117 65.5534 73.3132 65.789 73.1388 65.9624C72.9645 66.1358 72.7287 66.2326 72.4832 66.2317H54.3351C51.5095 66.2317 49.2162 63.9551 49.2162 61.1481Z" fill="white"/>
</g>
<defs>
<filter id="filter0_d_455_3794" x="0" y="0.412598" width="133" height="133.151" filterUnits="userSpaceOnUse" color-interpolation-filters="sRGB">
<feFlood flood-opacity="0" result="BackgroundImageFix"/>
<feColorMatrix in="SourceAlpha" type="matrix" values="0 0 0 0 0 0 0 0 0 0 0 0 0 0 0 0 0 0 127 0" result="hardAlpha"/>
<feOffset dy="10"/>
<feGaussianBlur stdDeviation="20"/>
<feComposite in2="hardAlpha" operator="out"/>
<feColorMatrix type="matrix" values="0 0 0 0 0.176471 0 0 0 0 0.54902 0 0 0 0 1 0 0 0 0.5 0"/>
<feBlend mode="normal" in2="BackgroundImageFix" result="effect1_dropShadow_455_3794"/>
<feBlend mode="normal" in="SourceGraphic" in2="effect1_dropShadow_455_3794" result="shape"/>
</filter>
</defs>
</svg>
